SplineFontDB: 3.0
FontName: HM_XBShiraz-Italic
FullName: HM_XBShiraz Italic
FamilyName: HM_XBShiraz
Weight: Book
Copyright: Copyright (c) Hossein, 2013. All rights reserved.
Version: 0.11
ItalicAngle: 0
UnderlinePosition: -540
UnderlineWidth: 60
Ascent: 1638
Descent: 410
sfntRevision: 0x00010000
LayerCount: 2
Layer: 0 1 "Back"  1
Layer: 1 1 "Fore"  0
XUID: [1021 55 91091906 11394924]
FSType: 0
OS2Version: 2
OS2_WeightWidthSlopeOnly: 0
OS2_UseTypoMetrics: 1
CreationTime: 1211162340
ModificationTime: 1360911930
PfmFamily: 17
TTFWeight: 400
TTFWidth: 5
LineGap: 0
VLineGap: 0
Panose: 2 0 5 5 2 0 0 9 0 3
OS2TypoAscent: 2150
OS2TypoAOffset: 0
OS2TypoDescent: -950
OS2TypoDOffset: 0
OS2TypoLinegap: 0
OS2WinAscent: 2150
OS2WinAOffset: 0
OS2WinDescent: 950
OS2WinDOffset: 0
HheadAscent: 2150
HheadAOffset: 0
HheadDescent: -950
HheadDOffset: 0
OS2SubXSize: 1434
OS2SubYSize: 1331
OS2SubXOff: 0
OS2SubYOff: 293
OS2SupXSize: 1434
OS2SupYSize: 1331
OS2SupXOff: 0
OS2SupYOff: 928
OS2StrikeYSize: 102
OS2StrikeYPos: 512
OS2Vendor: 'pars'
OS2CodePages: 20000051.41000000
OS2UnicodeRanges: 00002003.80000000.00000008.00000000
Lookup: 6 1 0 "'ccmp' Glyph Composition/Decomposition in Arabic lookup 0"  {"'ccmp' Glyph Composition/Decomposition in Arabic lookup 0 contextual 0"  "'ccmp' Glyph Composition/Decomposition in Arabic lookup 0 contextual 1"  "'ccmp' Glyph Composition/Decomposition in Arabic lookup 0 contextual 2"  "'ccmp' Glyph Composition/Decomposition in Arabic lookup 0 contextual 3"  "'ccmp' Glyph Composition/Decomposition in Arabic lookup 0 contextual 4"  "'ccmp' Glyph Composition/Decomposition in Arabic lookup 0 contextual 5"  } ['ccmp' ('arab' <'ARA ' 'DRI ' 'FAR ' 'KUR ' 'PAS ' 'URD ' 'UYG ' 'UZB ' 'dflt' > ) ]
Lookup: 4 1 0 "'ccmp' Glyph Composition/Decomposition in Arabic lookup 1"  {"'ccmp' Glyph Composition/Decomposition in Arabic lookup 1 subtable"  } ['ccmp' ('arab' <'ARA ' 'DRI ' 'FAR ' 'KUR ' 'PAS ' 'URD ' 'UYG ' 'UZB ' 'dflt' > ) ]

StartChar: .notdef
Encoding: 65536 -1 0
Width: 1239
GlyphClass: 2
Flags: W
LayerCount: 2
Fore
SplineSet
578 330 m 0,0,1
 573 313 573 313 562 298 c 128,-1,2
 551 283 551 283 537 272.5 c 128,-1,3
 523 262 523 262 505.5 255 c 128,-1,4
 488 248 488 248 471 248 c 0,5,6
 437 248 437 248 420 272.5 c 128,-1,7
 403 297 403 297 412 330 c 0,8,9
 421 365 421 365 451.5 389 c 128,-1,10
 482 413 482 413 519 413 c 0,11,12
 553 413 553 413 570 389 c 128,-1,13
 587 365 587 365 578 330 c 0,0,1
839 861 m 0,14,15
 826 812 826 812 792.5 783 c 128,-1,16
 759 754 759 754 717 754 c 0,17,18
 683 754 683 754 667.5 775 c 128,-1,19
 652 796 652 796 660 827 c 0,20,21
 666 850 666 850 681.5 867 c 128,-1,22
 697 884 697 884 714 895.5 c 128,-1,23
 731 907 731 907 744 915.5 c 128,-1,24
 757 924 757 924 759 931 c 0,25,26
 765 953 765 953 747 966.5 c 128,-1,27
 729 980 729 980 696 980 c 0,28,29
 653 980 653 980 620.5 956.5 c 128,-1,30
 588 933 588 933 579 898 c 0,31,32
 574 879 574 879 577.5 850 c 128,-1,33
 581 821 581 821 588 793 c 128,-1,34
 595 765 595 765 601.5 743 c 128,-1,35
 608 721 608 721 608 715 c 0,36,37
 612 683 612 683 609 645 c 128,-1,38
 606 607 606 607 595 566 c 0,39,40
 589 544 589 544 581.5 520.5 c 128,-1,41
 574 497 574 497 564 468 c 1,42,-1
 521 468 l 1,43,-1
 526 488 l 1,44,-1
 539 521 l 1,45,46
 549 558 549 558 512 601 c 0,47,48
 480 637 480 637 462.5 658 c 128,-1,49
 445 679 445 679 442 685 c 0,50,51
 409 743 409 743 428 817 c 0,52,53
 440 862 440 862 467 900 c 128,-1,54
 494 938 494 938 530 966 c 128,-1,55
 566 994 566 994 607.5 1010 c 128,-1,56
 649 1026 649 1026 692 1026 c 0,57,58
 732 1026 732 1026 763.5 1014.5 c 128,-1,59
 795 1003 795 1003 815 981 c 128,-1,60
 835 959 835 959 842 929 c 128,-1,61
 849 899 849 899 839 861 c 0,14,15
-45 34 m 1,62,-1
 905 34 l 1,63,-1
 1227 1239 l 1,64,-1
 277 1239 l 1,65,-1
 -45 34 l 1,62,-1
-89 0 m 1,66,-1
 252 1274 l 1,67,-1
 1270 1274 l 1,68,-1
 929 0 l 1,69,-1
 -89 0 l 1,66,-1
EndSplineSet
EndChar

StartChar: exclam
Encoding: 33 33 4
Width: 587
GlyphClass: 2
Flags: W
LayerCount: 2
Fore
SplineSet
79 323 m 1,0,1
 105 437 105 437 131.5 571 c 128,-1,2
 158 705 158 705 180 870 c 1,3,4
 199 1035 199 1035 211.5 1122.5 c 128,-1,5
 224 1210 224 1210 228 1226 c 0,6,7
 256 1331 256 1331 299 1390 c 128,-1,8
 342 1449 342 1449 403 1449 c 0,9,10
 466 1449 466 1449 477 1390 c 128,-1,11
 488 1331 488 1331 460 1226 c 0,12,13
 456 1210 456 1210 421 1122.5 c 128,-1,14
 386 1035 386 1035 318 870 c 0,15,16
 249 705 249 705 205 571 c 128,-1,17
 161 437 161 437 125 323 c 1,18,-1
 79 323 l 1,0,1
-69 117 m 1,19,20
 -33 226 -33 226 77 235 c 1,21,22
 188 226 188 226 167 113 c 1,23,24
 132 6 132 6 17 -6 c 1,25,26
 -93 3 -93 3 -69 117 c 1,19,20
EndSplineSet
EndChar

StartChar: quotedbl
Encoding: 34 34 5
Width: 667
GlyphClass: 2
Flags: W
LayerCount: 2
Fore
SplineSet
691 1337 m 0,0,1
 683 1308 683 1308 663.5 1256.5 c 128,-1,2
 644 1205 644 1205 622.5 1144 c 128,-1,3
 601 1083 601 1083 578.5 1018.5 c 128,-1,4
 556 954 556 954 541 897 c 1,5,-1
 482 897 l 1,6,7
 497 955 497 955 509 1019.5 c 128,-1,8
 521 1084 521 1084 530 1144.5 c 128,-1,9
 539 1205 539 1205 548.5 1256 c 128,-1,10
 558 1307 558 1307 566 1337 c 0,11,12
 588 1421 588 1421 649 1421 c 0,13,14
 684 1421 684 1421 693 1400.5 c 128,-1,15
 702 1380 702 1380 691 1337 c 0,0,1
419 1337 m 0,16,17
 411 1308 411 1308 391.5 1256.5 c 128,-1,18
 372 1205 372 1205 350 1144 c 128,-1,19
 328 1083 328 1083 305 1018.5 c 128,-1,20
 282 954 282 954 267 897 c 1,21,-1
 209 897 l 1,22,23
 224 955 224 955 236 1019.5 c 128,-1,24
 248 1084 248 1084 257 1144.5 c 128,-1,25
 266 1205 266 1205 274.5 1256 c 128,-1,26
 283 1307 283 1307 291 1337 c 0,27,28
 313 1421 313 1421 378 1421 c 0,29,30
 441 1421 441 1421 419 1337 c 0,16,17
EndSplineSet
EndChar

StartChar: numbersign
Encoding: 35 35 6
Width: 1200
GlyphClass: 2
Flags: W
LayerCount: 2
Fore
SplineSet
925 1005 m 1,0,-1
 492 1005 l 1,1,2
 484 988 484 988 468 951.5 c 128,-1,3
 452 915 452 915 432 869.5 c 128,-1,4
 412 824 412 824 389.5 773 c 128,-1,5
 367 722 367 722 346.5 676 c 128,-1,6
 326 630 326 630 310 594 c 128,-1,7
 294 558 294 558 288 542 c 1,8,-1
 720 542 l 1,9,-1
 925 1005 l 1,0,-1
1089 429 m 1,10,-1
 767 429 l 1,11,12
 761 416 761 416 745 380 c 128,-1,13
 729 344 729 344 707.5 296.5 c 128,-1,14
 686 249 686 249 662.5 194.5 c 128,-1,15
 639 140 639 140 617.5 91 c 128,-1,16
 596 42 596 42 578 3 c 128,-1,17
 560 -36 560 -36 552 -55 c 1,18,-1
 459 -55 l 1,19,-1
 672 429 l 1,20,-1
 238 429 l 1,21,22
 230 412 230 412 212 373.5 c 128,-1,23
 194 335 194 335 173 286 c 128,-1,24
 152 237 152 237 128 183 c 128,-1,25
 104 129 104 129 83 81.5 c 128,-1,26
 62 34 62 34 46 -2.5 c 128,-1,27
 30 -39 30 -39 24 -55 c 1,28,-1
 -70 -55 l 1,29,-1
 144 429 l 1,30,-1
 -62 429 l 1,31,-1
 -31 542 l 1,32,-1
 195 542 l 1,33,34
 201 557 201 557 217.5 594.5 c 128,-1,35
 234 632 234 632 256 680 c 128,-1,36
 278 728 278 728 300.5 781.5 c 128,-1,37
 323 835 323 835 344 881.5 c 128,-1,38
 365 928 365 928 380 961.5 c 128,-1,39
 395 995 395 995 399 1005 c 1,40,-1
 93 1005 l 1,41,-1
 123 1117 l 1,42,-1
 449 1117 l 1,43,44
 456 1133 456 1133 473 1170.5 c 128,-1,45
 490 1208 490 1208 511.5 1255.5 c 128,-1,46
 533 1303 533 1303 555.5 1356.5 c 128,-1,47
 578 1410 578 1410 599.5 1458 c 128,-1,48
 621 1506 621 1506 638.5 1544.5 c 128,-1,49
 656 1583 656 1583 662 1600 c 1,50,-1
 756 1600 l 1,51,-1
 542 1117 l 1,52,-1
 975 1117 l 1,53,54
 984 1135 984 1135 1000.5 1173.5 c 128,-1,55
 1017 1212 1017 1212 1039 1260.5 c 128,-1,56
 1061 1309 1061 1309 1084 1363 c 128,-1,57
 1107 1417 1107 1417 1128 1464.5 c 128,-1,58
 1149 1512 1149 1512 1165 1548.5 c 128,-1,59
 1181 1585 1181 1585 1188 1600 c 1,60,-1
 1283 1600 l 1,61,-1
 1068 1117 l 1,62,-1
 1274 1117 l 1,63,-1
 1244 1005 l 1,64,-1
 1018 1005 l 1,65,66
 969 889 969 889 917 772 c 128,-1,67
 865 655 865 655 814 542 c 1,68,-1
 1120 542 l 1,69,-1
 1089 429 l 1,10,-1
EndSplineSet
EndChar

StartChar: dollar
Encoding: 36 36 7
Width: 1100
GlyphClass: 2
Flags: W
LayerCount: 2
Fore
SplineSet
534 1348 m 1,0,1
 468 1325 468 1325 421.5 1282 c 128,-1,2
 375 1239 375 1239 359 1178 c 0,3,4
 344 1121 344 1121 361.5 1068 c 128,-1,5
 379 1015 379 1015 431 966 c 1,6,-1
 534 1348 l 1,0,1
733 302 m 0,7,8
 743 339 743 339 741.5 369.5 c 128,-1,9
 740 400 740 400 725.5 428.5 c 128,-1,10
 711 457 711 457 683.5 486.5 c 128,-1,11
 656 516 656 516 615 553 c 1,12,-1
 480 49 l 1,13,14
 581 89 581 89 646 153 c 128,-1,15
 711 217 711 217 733 302 c 0,7,8
613 815 m 1,16,-1
 755 1345 l 1,17,18
 740 1352 740 1352 718.5 1356.5 c 128,-1,19
 697 1361 697 1361 667 1361 c 0,20,21
 655 1361 655 1361 639.5 1360 c 128,-1,22
 624 1359 624 1359 610 1357 c 1,23,-1
 493 920 l 1,24,-1
 613 815 l 1,16,-1
553 591 m 1,25,26
 522 615 522 615 491.5 641 c 128,-1,27
 461 667 461 667 432 692 c 1,28,-1
 259 45 l 1,29,30
 279 34 279 34 311 29.5 c 128,-1,31
 343 25 343 25 386 25 c 0,32,33
 391 25 391 25 401 26 c 1,34,-1
 553 591 l 1,25,26
900 360 m 0,35,36
 882 292 882 292 842.5 233.5 c 128,-1,37
 803 175 803 175 747.5 128 c 128,-1,38
 692 81 692 81 620 46 c 128,-1,39
 548 11 548 11 463 -13 c 1,40,-1
 401 -243 l 1,41,-1
 329 -243 l 1,42,-1
 386 -33 l 1,43,44
 354 -36 354 -36 322 -36 c 0,45,46
 303 -36 303 -36 279.5 -35 c 128,-1,47
 256 -34 256 -34 238 -31 c 1,48,-1
 181 -243 l 1,49,-1
 107 -243 l 1,50,-1
 169 -13 l 1,51,52
 111 2 111 2 61.5 29 c 128,-1,53
 12 56 12 56 -21.5 90 c 128,-1,54
 -55 124 -55 124 -69.5 166 c 128,-1,55
 -84 208 -84 208 -72 251 c 0,56,57
 -67 269 -67 269 -56.5 285.5 c 128,-1,58
 -46 302 -46 302 -31 313.5 c 128,-1,59
 -16 325 -16 325 0.5 332.5 c 128,-1,60
 17 340 17 340 33 340 c 0,61,62
 98 340 98 340 110 221 c 1,63,64
 114 167 114 167 137 127.5 c 128,-1,65
 160 88 160 88 190 67 c 1,66,-1
 368 731 l 1,67,68
 258 812 258 812 214.5 903.5 c 128,-1,69
 171 995 171 995 198 1094 c 0,70,71
 212 1147 212 1147 244 1196 c 128,-1,72
 276 1245 276 1245 322.5 1286 c 128,-1,73
 369 1327 369 1327 427 1359 c 128,-1,74
 485 1391 485 1391 550 1409 c 1,75,-1
 592 1565 l 1,76,-1
 666 1565 l 1,77,-1
 626 1418 l 1,78,79
 644 1420 644 1420 664.5 1421 c 128,-1,80
 685 1422 685 1422 701 1422 c 0,81,82
 720 1422 720 1422 738.5 1421 c 128,-1,83
 757 1420 757 1420 774 1418 c 1,84,-1
 814 1565 l 1,85,-1
 886 1565 l 1,86,-1
 845 1411 l 1,87,88
 904 1393 904 1393 949 1369.5 c 128,-1,89
 994 1346 994 1346 1022.5 1318 c 128,-1,90
 1051 1290 1051 1290 1062 1259 c 128,-1,91
 1073 1228 1073 1228 1064 1195 c 0,92,93
 1053 1154 1053 1154 1030.5 1135.5 c 128,-1,94
 1008 1117 1008 1117 970 1117 c 0,95,96
 934 1117 934 1117 909 1151 c 1,97,-1
 878 1214 l 2,98,99
 865 1241 865 1241 850 1268 c 128,-1,100
 835 1295 835 1295 818 1312 c 1,101,-1
 676 781 l 1,102,103
 719 747 719 747 757.5 710 c 128,-1,104
 796 673 796 673 827 636.5 c 128,-1,105
 858 600 858 600 880 565 c 128,-1,106
 902 530 902 530 911 503 c 1,107,108
 916 471 916 471 912.5 433.5 c 128,-1,109
 909 396 909 396 900 360 c 0,35,36
EndSplineSet
EndChar

StartChar: percent
Encoding: 37 37 8
Width: 1815
GlyphClass: 2
Flags: W
LayerCount: 2
Fore
SplineSet
1763 1569 m 1,0,-1
 162 -65 l 1,1,-1
 49 -65 l 1,2,-1
 1654 1569 l 1,3,-1
 1763 1569 l 1,0,-1
679 1122 m 0,4,5
 776 1483 776 1483 606 1483 c 0,6,7
 439 1483 439 1483 342 1122 c 0,8,9
 245 758 245 758 412 758 c 0,10,11
 582 758 582 758 679 1122 c 0,4,5
1478 393 m 1,12,13
 1574 753 1574 753 1403 753 c 0,14,15
 1237 753 1237 753 1141 393 c 1,16,17
 1042 26 1042 26 1208 26 c 0,18,19
 1379 26 1379 26 1478 393 c 1,12,13
1620 393 m 0,20,21
 1598 311 1598 311 1555.5 236.5 c 128,-1,22
 1513 162 1513 162 1456.5 106 c 128,-1,23
 1400 50 1400 50 1333.5 17 c 128,-1,24
 1267 -16 1267 -16 1197 -16 c 0,25,26
 1136 -16 1136 -16 1088.5 13 c 128,-1,27
 1041 42 1041 42 1011.5 95.5 c 128,-1,28
 982 149 982 149 977 224.5 c 128,-1,29
 972 300 972 300 997 393 c 0,30,31
 1018 472 1018 472 1060 545.5 c 128,-1,32
 1102 619 1102 619 1158 676 c 128,-1,33
 1214 733 1214 733 1280.5 766.5 c 128,-1,34
 1347 800 1347 800 1416 800 c 0,35,36
 1477 800 1477 800 1526 770.5 c 128,-1,37
 1575 741 1575 741 1603.5 687 c 128,-1,38
 1632 633 1632 633 1638 558 c 128,-1,39
 1644 483 1644 483 1620 393 c 0,20,21
821 1122 m 0,40,41
 799 1041 799 1041 757.5 967 c 128,-1,42
 716 893 716 893 660.5 836.5 c 128,-1,43
 605 780 605 780 538 746 c 128,-1,44
 471 712 471 712 399 712 c 0,45,46
 339 712 339 712 291 742.5 c 128,-1,47
 243 773 243 773 215 827.5 c 128,-1,48
 187 882 187 882 181.5 957 c 128,-1,49
 176 1032 176 1032 200 1122 c 0,50,51
 221 1201 221 1201 263 1274.5 c 128,-1,52
 305 1348 305 1348 360.5 1405 c 128,-1,53
 416 1462 416 1462 482.5 1496 c 128,-1,54
 549 1530 549 1530 618 1530 c 0,55,56
 679 1530 679 1530 727.5 1500 c 128,-1,57
 776 1470 776 1470 805 1416.5 c 128,-1,58
 834 1363 834 1363 840 1288 c 128,-1,59
 846 1213 846 1213 821 1122 c 0,40,41
EndSplineSet
Ligature2: "<17006,16006> Roman in Arabic lookup 126 subtable" zero fraction zero
Ligature2: "<17006,16006> Roman in Arabic lookup 126 subtable" zero slash zero
Ligature2: "Ligature Substitution lookup 56 subtable" zero fraction zero
Ligature2: "Ligature Substitution lookup 56 subtable" zero slash zero
EndChar

StartChar: ampersand
Encoding: 38 38 9
Width: 1750
GlyphClass: 2
Flags: W
LayerCount: 2
Fore
SplineSet
935 1149 m 0,0,1
 947 1191 947 1191 944 1226 c 128,-1,2
 941 1261 941 1261 925.5 1287 c 128,-1,3
 910 1313 910 1313 883 1327.5 c 128,-1,4
 856 1342 856 1342 817 1342 c 0,5,6
 668 1342 668 1342 624 1178 c 0,7,8
 605 1106 605 1106 632 1034.5 c 128,-1,9
 659 963 659 963 720 900 c 1,10,11
 804 946 804 946 859 1008.5 c 128,-1,12
 914 1071 914 1071 935 1149 c 0,0,1
661 165 m 1,13,14
 787 224 787 224 882 309 c 1,15,16
 859 371 859 371 826 434.5 c 128,-1,17
 793 498 793 498 751.5 557 c 128,-1,18
 710 616 710 616 661.5 671 c 128,-1,19
 613 726 613 726 560 773 c 1,20,21
 495 732 495 732 436.5 685.5 c 128,-1,22
 378 639 378 639 332 590.5 c 128,-1,23
 286 542 286 542 254.5 492.5 c 128,-1,24
 223 443 223 443 211 396 c 0,25,26
 193 330 193 330 199 275.5 c 128,-1,27
 205 221 205 221 231 181.5 c 128,-1,28
 257 142 257 142 303 120 c 128,-1,29
 349 98 349 98 413 98 c 0,30,31
 523 98 523 98 661 165 c 1,13,14
1773 953 m 1,32,33
 1692 953 1692 953 1639 943 c 128,-1,34
 1586 933 1586 933 1557 910 c 0,35,36
 1546 901 1546 901 1525.5 880.5 c 128,-1,37
 1505 860 1505 860 1481 834.5 c 128,-1,38
 1457 809 1457 809 1431 780 c 128,-1,39
 1405 751 1405 751 1380 723 c 128,-1,40
 1355 695 1355 695 1333 670 c 128,-1,41
 1311 645 1311 645 1296 627 c 1,42,-1
 1296 628 l 1,43,44
 1290 621 1290 621 1286 616 c 128,-1,45
 1282 611 1282 611 1281 610 c 1,46,-1
 1281 611 l 1,47,48
 1264 588 1264 588 1240 562 c 128,-1,49
 1216 536 1216 536 1187.5 508.5 c 128,-1,50
 1159 481 1159 481 1128.5 453 c 128,-1,51
 1098 425 1098 425 1070 400 c 1,52,53
 1086 359 1086 359 1106.5 292 c 128,-1,54
 1127 225 1127 225 1151 144 c 1,55,56
 1169 107 1169 107 1196.5 83.5 c 128,-1,57
 1224 60 1224 60 1255 60 c 0,58,59
 1319 60 1319 60 1464 142 c 1,60,-1
 1477 95 l 1,61,62
 1283 -35 1283 -35 1142 -35 c 0,63,64
 1010 -35 1010 -35 960 74 c 1,65,66
 948 103 948 103 934 149.5 c 128,-1,67
 920 196 920 196 902 260 c 1,68,69
 851 218 851 218 795 179 c 128,-1,70
 739 140 739 140 682.5 106.5 c 128,-1,71
 626 73 626 73 571.5 46.5 c 128,-1,72
 517 20 517 20 468 1 c 0,73,74
 416 -19 416 -19 369 -27 c 128,-1,75
 322 -35 322 -35 282 -35 c 0,76,77
 198 -35 198 -35 134.5 -5 c 128,-1,78
 71 25 71 25 32.5 79.5 c 128,-1,79
 -6 134 -6 134 -16 207.5 c 128,-1,80
 -26 281 -26 281 -3 366 c 0,81,82
 22 462 22 462 91 544 c 128,-1,83
 160 626 160 626 258 687 c 1,84,85
 310 718 310 718 379.5 749 c 128,-1,86
 449 780 449 780 525 809 c 1,87,88
 470 882 470 882 447.5 960 c 128,-1,89
 425 1038 425 1038 447 1120 c 0,90,91
 463 1182 463 1182 500 1234 c 128,-1,92
 537 1286 537 1286 589.5 1323 c 128,-1,93
 642 1360 642 1360 709 1380 c 128,-1,94
 776 1400 776 1400 851 1400 c 0,95,96
 918 1400 918 1400 969.5 1384 c 128,-1,97
 1021 1368 1021 1368 1054.5 1337.5 c 128,-1,98
 1088 1307 1088 1307 1099.5 1263.5 c 128,-1,99
 1111 1220 1111 1220 1097 1165 c 1,100,101
 1073 1078 1073 1078 989 1003 c 128,-1,102
 905 928 905 928 750 860 c 1,103,104
 842 779 842 779 919 674.5 c 128,-1,105
 996 570 996 570 1046 449 c 1,106,107
 1135 534 1135 534 1208.5 609.5 c 128,-1,108
 1282 685 1282 685 1335.5 745 c 128,-1,109
 1389 805 1389 805 1421.5 848 c 128,-1,110
 1454 891 1454 891 1460 912 c 0,111,112
 1471 953 1471 953 1343 953 c 1,113,-1
 1357 1007 l 1,114,-1
 1787 1007 l 1,115,-1
 1773 953 l 1,32,33
EndSplineSet
EndChar

StartChar: quotesingle
Encoding: 39 39 10
Width: 424
GlyphClass: 2
Flags: W
LayerCount: 2
Fore
SplineSet
512 1397 m 0,0,1
 509 1385 509 1385 495.5 1352.5 c 128,-1,2
 482 1320 482 1320 462.5 1274 c 128,-1,3
 443 1228 443 1228 418.5 1173.5 c 128,-1,4
 394 1119 394 1119 368 1061 c 128,-1,5
 342 1003 342 1003 318 946 c 128,-1,6
 294 889 294 889 273 840 c 1,7,-1
 203 840 l 1,8,-1
 237 1187 l 1,9,10
 244 1269 244 1269 253 1319.5 c 128,-1,11
 262 1370 262 1370 265 1397 c 1,12,13
 280 1455 280 1455 323 1492.5 c 128,-1,14
 366 1530 366 1530 424 1530 c 0,15,16
 547 1530 547 1530 512 1397 c 0,0,1
EndSplineSet
EndChar

StartChar: parenleft
Encoding: 40 40 11
Width: 726
GlyphClass: 2
Flags: W
LayerCount: 2
Fore
SplineSet
236 -457 m 1,0,1
 248 -476 248 -476 243 -496 c 0,2,3
 238 -512 238 -512 223 -512 c 0,4,5
 218 -512 218 -512 211 -508.5 c 128,-1,6
 204 -505 204 -505 201 -500 c 1,7,8
 170 -467 170 -467 140 -426 c 128,-1,9
 110 -385 110 -385 84 -336.5 c 128,-1,10
 58 -288 58 -288 39 -233.5 c 128,-1,11
 20 -179 20 -179 6 -122 c 1,12,13
 -1 -87 -1 -87 -4.5 -52 c 128,-1,14
 -8 -17 -8 -17 -9.5 20 c 128,-1,15
 -11 57 -11 57 -12.5 94.5 c 128,-1,16
 -14 132 -14 132 -17 172 c 1,17,18
 -13 251 -13 251 -1.5 328.5 c 128,-1,19
 10 406 10 406 28 481 c 1,20,21
 69 632 69 632 144 775.5 c 128,-1,22
 219 919 219 919 327 1069 c 1,23,24
 428 1207 428 1207 528 1303 c 128,-1,25
 628 1399 628 1399 727 1463 c 0,26,27
 753 1479 753 1479 761 1479 c 0,28,29
 772 1479 772 1479 769 1467 c 0,30,31
 765 1454 765 1454 740 1423 c 1,32,33
 522 1171 522 1171 384 938 c 128,-1,34
 246 705 246 705 186 481 c 0,35,36
 149 342 149 342 137 208 c 128,-1,37
 125 74 125 74 133 -68 c 1,38,39
 145 -183 145 -183 170.5 -282.5 c 128,-1,40
 196 -382 196 -382 236 -457 c 1,0,1
EndSplineSet
Substitution2: "Single Substitution lookup 44 subtable" zerowidthspace
EndChar

StartChar: parenright
Encoding: 41 41 12
Width: 825
GlyphClass: 2
Flags: W
LayerCount: 2
Fore
SplineSet
297 1426 m 1,0,1
 287 1448 287 1448 292 1465 c 0,2,3
 296 1480 296 1480 308 1480 c 0,4,5
 322 1480 322 1480 334 1468 c 0,6,7
 404 1405 404 1405 451.5 1312.5 c 128,-1,8
 499 1220 499 1220 528 1087 c 1,9,10
 554 943 554 943 551 795 c 128,-1,11
 548 647 548 647 504 484 c 0,12,13
 426 191 426 191 206 -103 c 0,14,15
 105 -239 105 -239 7.5 -334.5 c 128,-1,16
 -90 -430 -90 -430 -192 -494 c 0,17,18
 -196 -497 -196 -497 -199 -498 c 1,19,-1
 -198 -498 l 1,20,21
 -208 -505 -208 -505 -214 -508.5 c 128,-1,22
 -220 -512 -220 -512 -229 -512 c 0,23,24
 -237 -512 -237 -512 -233 -499 c 0,25,26
 -231 -492 -231 -492 -224.5 -480 c 128,-1,27
 -218 -468 -218 -468 -207 -456 c 0,28,29
 13 -203 13 -203 150.5 29.5 c 128,-1,30
 288 262 288 262 347 484 c 0,31,32
 416 740 416 740 397 1033 c 0,33,34
 389 1157 389 1157 365 1252.5 c 128,-1,35
 341 1348 341 1348 297 1426 c 1,0,1
EndSplineSet
Substitution2: "Single Substitution lookup 44 subtable" zerowidthspace
EndChar

StartChar: asterisk
Encoding: 42 42 13
Width: 793
GlyphClass: 2
Flags: W
LayerCount: 2
Fore
SplineSet
540 1139 m 0,0,1
 550 1177 550 1177 512 1177 c 256,2,3
 474 1177 474 1177 464 1139 c 0,4,5
 454 1103 454 1103 492 1103 c 256,6,7
 530 1103 530 1103 540 1139 c 0,0,1
865 1142 m 1,8,9
 850 1083 850 1083 776 1083 c 0,10,11
 769 1083 769 1083 750.5 1086.5 c 128,-1,12
 732 1090 732 1090 705 1095.5 c 128,-1,13
 678 1101 678 1101 646 1107 c 128,-1,14
 614 1113 614 1113 582 1119 c 1,15,16
 579 1114 579 1114 575 1107.5 c 128,-1,17
 571 1101 571 1101 566 1095 c 1,18,19
 582 1084 582 1084 595 1074 c 128,-1,20
 608 1064 608 1064 623 1050.5 c 128,-1,21
 638 1037 638 1037 656.5 1019 c 128,-1,22
 675 1001 675 1001 700 974 c 1,23,24
 709 959 709 959 713 946.5 c 128,-1,25
 717 934 717 934 713 919 c 0,26,27
 708 900 708 900 689 882 c 128,-1,28
 670 864 670 864 644 864 c 0,29,30
 627 864 627 864 615.5 873.5 c 128,-1,31
 604 883 604 883 593 905.5 c 128,-1,32
 582 928 582 928 567 966 c 128,-1,33
 552 1004 552 1004 525 1061 c 1,34,35
 521 1059 521 1059 515.5 1057 c 128,-1,36
 510 1055 510 1055 498 1050 c 1,37,38
 495 1018 495 1018 492.5 984.5 c 128,-1,39
 490 951 490 951 488 922 c 128,-1,40
 486 893 486 893 483.5 873 c 128,-1,41
 481 853 481 853 480 848 c 0,42,43
 470 810 470 810 450 792.5 c 128,-1,44
 430 775 430 775 399 775 c 0,45,46
 343 775 343 775 362 846 c 0,47,48
 367 864 367 864 379 893.5 c 128,-1,49
 391 923 391 923 411 960 c 1,50,-1
 457 1051 l 1,51,52
 452 1054 452 1054 445 1054.5 c 128,-1,53
 438 1055 438 1055 434 1059 c 1,54,55
 415 1040 415 1040 398 1022 c 128,-1,56
 381 1004 381 1004 361 984 c 128,-1,57
 341 964 341 964 319 942 c 128,-1,58
 297 920 297 920 268 892 c 1,59,60
 229 863 229 863 203 863 c 0,61,62
 195 863 195 863 185.5 868 c 128,-1,63
 176 873 176 873 170.5 881 c 128,-1,64
 165 889 165 889 163 899 c 128,-1,65
 161 909 161 909 164 921 c 0,66,67
 167 932 167 932 170 939 c 128,-1,68
 173 946 173 946 180 953 c 128,-1,69
 187 960 187 960 202 970 c 128,-1,70
 217 980 217 980 243 995 c 128,-1,71
 269 1010 269 1010 309 1033 c 128,-1,72
 349 1056 349 1056 409 1091 c 1,73,74
 402 1105 402 1105 403 1120 c 1,75,76
 368 1114 368 1114 335 1108 c 128,-1,77
 302 1102 302 1102 273.5 1096 c 128,-1,78
 245 1090 245 1090 224.5 1086.5 c 128,-1,79
 204 1083 204 1083 195 1083 c 0,80,81
 123 1083 123 1083 138 1142 c 0,82,83
 146 1171 146 1171 167 1184.5 c 128,-1,84
 188 1198 188 1198 224 1198 c 0,85,86
 238 1198 238 1198 259 1194.5 c 128,-1,87
 280 1191 280 1191 305 1185.5 c 128,-1,88
 330 1180 330 1180 357.5 1174 c 128,-1,89
 385 1168 385 1168 415 1162 c 1,90,91
 426 1177 426 1177 433 1184 c 1,92,93
 424 1191 424 1191 411.5 1200 c 128,-1,94
 399 1209 399 1209 389 1217.5 c 128,-1,95
 379 1226 379 1226 371 1233 c 128,-1,96
 363 1240 363 1240 359 1242 c 1,97,98
 350 1250 350 1250 334 1262 c 128,-1,99
 318 1274 318 1274 305 1290 c 128,-1,100
 292 1306 292 1306 285 1323.5 c 128,-1,101
 278 1341 278 1341 282 1357 c 0,102,103
 289 1382 289 1382 311 1397.5 c 128,-1,104
 333 1413 333 1413 351 1413 c 0,105,106
 378 1413 378 1413 400 1386 c 1,107,-1
 440 1291 l 2,108,109
 449 1271 449 1271 458.5 1253.5 c 128,-1,110
 468 1236 468 1236 475 1217 c 1,111,112
 479 1219 479 1219 483.5 1220 c 128,-1,113
 488 1221 488 1221 490 1223 c 1,114,-1
 504 1227 l 1,115,116
 505 1258 505 1258 506.5 1289 c 128,-1,117
 508 1320 508 1320 509.5 1347 c 128,-1,118
 511 1374 511 1374 513 1396 c 128,-1,119
 515 1418 515 1418 519 1431 c 0,120,121
 538 1502 538 1502 594 1502 c 0,122,123
 625 1502 625 1502 635 1483.5 c 128,-1,124
 645 1465 645 1465 634 1424 c 1,125,-1
 544 1221 l 1,126,127
 544 1221 544 1221 551 1220 c 128,-1,128
 558 1219 558 1219 565 1216 c 1,129,130
 583 1235 583 1235 599.5 1253 c 128,-1,131
 616 1271 616 1271 636 1290.5 c 128,-1,132
 656 1310 656 1310 678 1333 c 128,-1,133
 700 1356 700 1356 730 1386 c 1,134,135
 762 1411 762 1411 789 1411 c 0,136,137
 813 1411 813 1411 824.5 1395 c 128,-1,138
 836 1379 836 1379 830 1355 c 0,139,140
 826 1343 826 1343 818.5 1331 c 128,-1,141
 811 1319 811 1319 790 1303 c 128,-1,142
 769 1287 769 1287 731.5 1264.5 c 128,-1,143
 694 1242 694 1242 631 1207 c 0,144,145
 619 1201 619 1201 609 1194.5 c 128,-1,146
 599 1188 599 1188 588 1185 c 1,147,148
 591 1180 591 1180 592.5 1174 c 128,-1,149
 594 1168 594 1168 597 1162 c 1,150,151
 627 1169 627 1169 659 1175 c 128,-1,152
 691 1181 691 1181 721 1186.5 c 128,-1,153
 751 1192 751 1192 775 1195 c 128,-1,154
 799 1198 799 1198 812 1198 c 0,155,156
 881 1198 881 1198 865 1142 c 1,8,9
EndSplineSet
EndChar

StartChar: plus
Encoding: 43 43 14
Width: 1200
GlyphClass: 2
Flags: W
LayerCount: 2
Fore
SplineSet
930 377 m 1,0,-1
 557 377 l 1,1,-1
 456 0 l 1,2,-1
 350 0 l 1,3,-1
 451 377 l 1,4,-1
 72 377 l 1,5,-1
 99 481 l 1,6,-1
 478 481 l 1,7,-1
 581 864 l 1,8,-1
 687 864 l 1,9,-1
 584 481 l 1,10,-1
 957 481 l 1,11,-1
 930 377 l 1,0,-1
EndSplineSet
EndChar

StartChar: comma
Encoding: 44 44 15
Width: 667
GlyphClass: 2
Flags: W
LayerCount: 2
Fore
SplineSet
240 -41 m 0,0,1
 187 -238 187 -238 -86 -425 c 1,2,-1
 -121 -382 l 1,3,4
 76 -240 76 -240 108 -123 c 1,5,-1
 112 -104 l 1,6,7
 42 -102 42 -102 14 -71 c 128,-1,8
 -14 -40 -14 -40 2 21 c 0,9,10
 9 45 9 45 24 66 c 128,-1,11
 39 87 39 87 58.5 102.5 c 128,-1,12
 78 118 78 118 101.5 125.5 c 128,-1,13
 125 133 125 133 149 133 c 0,14,15
 209 133 209 133 235 86.5 c 128,-1,16
 261 40 261 40 240 -41 c 0,0,1
EndSplineSet
EndChar

StartChar: hyphen
Encoding: 45 45 16
AltUni2: 0000ad.ffffffff.0 002212.ffffffff.0
Width: 1200
GlyphClass: 2
Flags: W
LayerCount: 2
Fore
SplineSet
930 377 m 1,0,-1
 72 377 l 1,1,-1
 99 481 l 1,2,-1
 957 481 l 1,3,-1
 930 377 l 1,0,-1
EndSplineSet
Substitution2: "<17026,16026>  lookup 122 nested-substitutions 0 subtable" hyphenlow
Substitution2: "Single Substitution lookup 44 subtable" hyphenlow
EndChar

StartChar: period
Encoding: 46 46 17
Width: 587
GlyphClass: 2
Flags: W
LayerCount: 2
Fore
SplineSet
-69 117 m 1,0,1
 -33 226 -33 226 79 235 c 1,2,3
 188 226 188 226 167 113 c 1,4,5
 132 6 132 6 19 -6 c 1,6,7
 -93 3 -93 3 -69 117 c 1,0,1
EndSplineSet
Substitution2: "<17001,16003> Urdu lookup 129 subtable" uni06D4
Substitution2: "<17008,16008> Numeric Comma in Arabic lookup 124 nested-substitutions 0 subtable" uni066C
Substitution2: "Single Substitution lookup 44 subtable" uni066C
EndChar

StartChar: slash
Encoding: 47 47 18
Width: 667
GlyphClass: 2
Flags: W
LayerCount: 2
Fore
SplineSet
807 1518 m 1,0,-1
 -124 -313 l 1,1,-1
 -211 -313 l 1,2,-1
 717 1518 l 1,3,-1
 807 1518 l 1,0,-1
EndSplineSet
Substitution2: "<17001,16003> Urdu lookup 129 subtable" slash
EndChar

StartChar: zero
Encoding: 48 48 19
Width: 1200
GlyphClass: 2
Flags: W
LayerCount: 2
Fore
SplineSet
888 746 m 0,0,1
 929 899 929 899 948.5 1011 c 128,-1,2
 968 1123 968 1123 972 1196 c 1,3,4
 971 1325 971 1325 921 1400 c 128,-1,5
 871 1475 871 1475 769 1475 c 0,6,7
 660 1475 660 1475 564.5 1387 c 128,-1,8
 469 1299 469 1299 394 1136 c 1,9,-1
 394 1138 l 1,10,11
 358 1056 358 1056 325 956.5 c 128,-1,12
 292 857 292 857 262 746 c 0,13,14
 223 599 223 599 202.5 489 c 128,-1,15
 182 379 182 379 180 302 c 0,16,17
 178 163 178 163 227.5 92 c 128,-1,18
 277 21 277 21 379 21 c 0,19,20
 467 21 467 21 540 66.5 c 128,-1,21
 613 112 613 112 674 203 c 128,-1,22
 735 294 735 294 787.5 429.5 c 128,-1,23
 840 565 840 565 888 746 c 0,0,1
1075 746 m 0,24,25
 1014 516 1014 516 908 349 c 128,-1,26
 802 182 802 182 645 70 c 1,27,28
 501 -35 501 -35 364 -35 c 0,29,30
 220 -35 220 -35 131 90 c 0,31,32
 95 139 95 139 71.5 204.5 c 128,-1,33
 48 270 48 270 38 346 c 1,34,35
 28 433 28 433 41 536 c 128,-1,36
 54 639 54 639 74 746 c 1,37,38
 137 979 137 979 244.5 1146.5 c 128,-1,39
 352 1314 352 1314 508 1427 c 0,40,41
 584 1482 584 1482 650.5 1506 c 128,-1,42
 717 1530 717 1530 783 1530 c 0,43,44
 888 1530 888 1530 963.5 1471.5 c 128,-1,45
 1039 1413 1039 1413 1081 1297 c 1,46,47
 1160 1070 1160 1070 1075 746 c 0,24,25
EndSplineSet
Substitution2: "<17001,16003> Urdu lookup 129 subtable" zero
EndChar

StartChar: one
Encoding: 49 49 20
Width: 1200
GlyphClass: 2
Flags: W
LayerCount: 2
Fore
SplineSet
732 0 m 1,0,-1
 119 0 l 1,1,-1
 133 55 l 1,2,-1
 269 55 l 2,3,4
 294 55 294 55 311.5 59 c 128,-1,5
 329 63 329 63 341 72.5 c 128,-1,6
 353 82 353 82 362 99.5 c 128,-1,7
 371 117 371 117 378 142 c 2,8,-1
 694 1324 l 1,9,10
 614 1267 614 1267 529 1221 c 128,-1,11
 444 1175 444 1175 346 1133 c 1,12,-1
 334 1174 l 1,13,14
 391 1205 391 1205 456 1247 c 128,-1,15
 521 1289 521 1289 592 1339 c 0,16,17
 678 1399 678 1399 736 1446.5 c 128,-1,18
 794 1494 794 1494 827 1530 c 1,19,-1
 919 1530 l 1,20,-1
 547 139 l 2,21,22
 540 114 540 114 538.5 97 c 128,-1,23
 537 80 537 80 544.5 71.5 c 128,-1,24
 552 63 552 63 566.5 59 c 128,-1,25
 581 55 581 55 607 55 c 2,26,-1
 746 55 l 1,27,-1
 732 0 l 1,0,-1
EndSplineSet
Substitution2: "<17001,16003> Urdu lookup 129 subtable" one
EndChar

StartChar: two
Encoding: 50 50 21
Width: 1200
GlyphClass: 2
Flags: W
LayerCount: 2
Fore
SplineSet
973 345 m 1,0,-1
 835 0 l 1,1,-1
 -128 0 l 1,2,-1
 -116 46 l 1,3,4
 -49 107 -49 107 33.5 178 c 128,-1,5
 116 249 116 249 223 333 c 2,6,-1
 571 606 l 1,7,8
 714 730 714 730 801 843 c 128,-1,9
 888 956 888 956 918 1069 c 0,10,11
 934 1129 934 1129 928 1186.5 c 128,-1,12
 922 1244 922 1244 893 1288 c 128,-1,13
 864 1332 864 1332 814 1358.5 c 128,-1,14
 764 1385 764 1385 690 1385 c 0,15,16
 629 1385 629 1385 564 1360.5 c 128,-1,17
 499 1336 499 1336 438.5 1293 c 128,-1,18
 378 1250 378 1250 325.5 1190.5 c 128,-1,19
 273 1131 273 1131 234 1062 c 1,20,-1
 188 1062 l 1,21,22
 229 1169 229 1169 293 1255.5 c 128,-1,23
 357 1342 357 1342 437 1403 c 128,-1,24
 517 1464 517 1464 609.5 1497 c 128,-1,25
 702 1530 702 1530 798 1530 c 0,26,27
 888 1530 888 1530 961.5 1501.5 c 128,-1,28
 1035 1473 1035 1473 1081 1418.5 c 128,-1,29
 1127 1364 1127 1364 1141 1284.5 c 128,-1,30
 1155 1205 1155 1205 1128 1103 c 0,31,32
 1099 996 1099 996 1033 901.5 c 128,-1,33
 967 807 967 807 851 716 c 1,34,-1
 579 528 l 2,35,36
 458 445 458 445 337.5 354 c 128,-1,37
 217 263 217 263 82 158 c 1,38,-1
 700 158 l 2,39,40
 748 158 748 158 779 165.5 c 128,-1,41
 810 173 810 173 834.5 195 c 128,-1,42
 859 217 859 217 879 253 c 128,-1,43
 899 289 899 289 925 345 c 1,44,-1
 973 345 l 1,0,-1
EndSplineSet
Substitution2: "<17001,16003> Urdu lookup 129 subtable" two
EndChar

StartChar: three
Encoding: 51 51 22
Width: 1200
GlyphClass: 2
Flags: W
LayerCount: 2
Fore
SplineSet
1004 529 m 0,0,1
 984 455 984 455 941.5 383 c 128,-1,2
 899 311 899 311 841 244 c 1,3,4
 784 185 784 185 713 133.5 c 128,-1,5
 642 82 642 82 564 45 c 0,6,7
 484 7 484 7 404 -14 c 128,-1,8
 324 -35 324 -35 246 -35 c 0,9,10
 175 -35 175 -35 113 -22 c 128,-1,11
 51 -9 51 -9 6 15 c 128,-1,12
 -39 39 -39 39 -61.5 71 c 128,-1,13
 -84 103 -84 103 -74 139 c 0,14,15
 -69 157 -69 157 -58.5 172 c 128,-1,16
 -48 187 -48 187 -34 200 c 128,-1,17
 -20 213 -20 213 -3.5 219.5 c 128,-1,18
 13 226 13 226 30 226 c 1,19,20
 45 225 45 225 69 211 c 128,-1,21
 93 197 93 197 122 174 c 128,-1,22
 151 151 151 151 182.5 122.5 c 128,-1,23
 214 94 214 94 244 66 c 1,24,-1
 243 67 l 1,25,26
 261 57 261 57 290 49.5 c 128,-1,27
 319 42 319 42 347 42 c 0,28,29
 411 42 411 42 480 73.5 c 128,-1,30
 549 105 549 105 611.5 161 c 128,-1,31
 674 217 674 217 724 294.5 c 128,-1,32
 774 372 774 372 799 466 c 0,33,34
 817 532 817 532 814 591.5 c 128,-1,35
 811 651 811 651 788.5 697 c 128,-1,36
 766 743 766 743 726.5 769 c 128,-1,37
 687 795 687 795 632 795 c 0,38,39
 548 795 548 795 448 729 c 1,40,-1
 428 767 l 1,41,42
 440 776 440 776 471 797.5 c 128,-1,43
 502 819 502 819 535 842.5 c 128,-1,44
 568 866 568 866 594.5 885 c 128,-1,45
 621 904 621 904 625 907 c 0,46,47
 732 989 732 989 791.5 1055 c 128,-1,48
 851 1121 851 1121 868 1185 c 0,49,50
 880 1230 880 1230 871 1269 c 128,-1,51
 862 1308 862 1308 838.5 1337 c 128,-1,52
 815 1366 815 1366 777.5 1382 c 128,-1,53
 740 1398 740 1398 697 1398 c 0,54,55
 652 1398 652 1398 600.5 1380 c 128,-1,56
 549 1362 549 1362 499 1330.5 c 128,-1,57
 449 1299 449 1299 402 1256 c 128,-1,58
 355 1213 355 1213 319 1164 c 1,59,-1
 278 1184 l 1,60,61
 328 1262 328 1262 389.5 1325.5 c 128,-1,62
 451 1389 451 1389 520.5 1434.5 c 128,-1,63
 590 1480 590 1480 664 1505 c 128,-1,64
 738 1530 738 1530 814 1530 c 0,65,66
 878 1530 878 1530 931 1512 c 128,-1,67
 984 1494 984 1494 1017.5 1458.5 c 128,-1,68
 1051 1423 1051 1423 1062.5 1372.5 c 128,-1,69
 1074 1322 1074 1322 1057 1259 c 0,70,71
 1031 1163 1031 1163 948.5 1079 c 128,-1,72
 866 995 866 995 731 923 c 1,73,74
 738 925 738 925 745 925.5 c 128,-1,75
 752 926 752 926 757 926 c 0,76,77
 961 926 961 926 1008 732 c 0,78,79
 1020 683 1020 683 1019.5 634 c 128,-1,80
 1019 585 1019 585 1004 529 c 0,0,1
EndSplineSet
Substitution2: "<17001,16003> Urdu lookup 129 subtable" three
EndChar

StartChar: four
Encoding: 52 52 23
Width: 1200
GlyphClass: 2
Flags: W
LayerCount: 2
Fore
SplineSet
629 564 m 1,0,1
 634 584 634 584 648.5 640 c 128,-1,2
 663 696 663 696 682.5 768.5 c 128,-1,3
 702 841 702 841 723 923 c 128,-1,4
 744 1005 744 1005 763.5 1078.5 c 128,-1,5
 783 1152 783 1152 797.5 1207.5 c 128,-1,6
 812 1263 812 1263 817 1283 c 1,7,8
 801 1266 801 1266 766 1228.5 c 128,-1,9
 731 1191 731 1191 684 1141 c 128,-1,10
 637 1091 637 1091 581.5 1032 c 128,-1,11
 526 973 526 973 469.5 913 c 128,-1,12
 413 853 413 853 359.5 795.5 c 128,-1,13
 306 738 306 738 261 691 c 128,-1,14
 216 644 216 644 184.5 610 c 128,-1,15
 153 576 153 576 141 564 c 1,16,-1
 629 564 l 1,0,1
1002 434 m 1,17,-1
 763 434 l 1,18,-1
 637 -35 l 1,19,-1
 468 -35 l 1,20,-1
 594 434 l 1,21,-1
 -17 434 l 1,22,-1
 -1 496 l 1,23,-1
 983 1530 l 1,24,-1
 1056 1530 l 1,25,-1
 798 564 l 1,26,-1
 1037 564 l 1,27,-1
 1002 434 l 1,17,-1
EndSplineSet
Substitution2: "<17001,16003> Urdu lookup 129 subtable" four
EndChar

StartChar: five
Encoding: 53 53 24
Width: 1200
GlyphClass: 2
Flags: W
LayerCount: 2
Fore
SplineSet
963 479 m 0,0,1
 883 181 883 181 566 35 c 0,2,3
 496 3 496 3 416.5 -16 c 128,-1,4
 337 -35 337 -35 258 -35 c 0,5,6
 196 -35 196 -35 135.5 -24 c 128,-1,7
 75 -13 75 -13 30.5 8 c 128,-1,8
 -14 29 -14 29 -36.5 57.5 c 128,-1,9
 -59 86 -59 86 -50 121 c 0,10,11
 -29 200 -29 200 51 200 c 0,12,13
 115 200 115 200 187 120 c 1,14,15
 225 75 225 75 259.5 53 c 128,-1,16
 294 31 294 31 331 31 c 0,17,18
 394 31 394 31 460 61 c 128,-1,19
 526 91 526 91 585.5 144 c 128,-1,20
 645 197 645 197 691.5 270 c 128,-1,21
 738 343 738 343 761 428 c 0,22,23
 783 510 783 510 774.5 579 c 128,-1,24
 766 648 766 648 733 697.5 c 128,-1,25
 700 747 700 747 643 775.5 c 128,-1,26
 586 804 586 804 512 804 c 0,27,28
 442 804 442 804 374 782 c 128,-1,29
 306 760 306 760 233 713 c 1,30,-1
 212 736 l 1,31,-1
 416 1499 l 1,32,-1
 1018 1499 l 2,33,34
 1070 1499 1070 1499 1095 1530 c 1,35,-1
 1148 1530 l 1,36,-1
 1068 1334 l 1,37,-1
 464 1334 l 1,38,39
 461 1324 461 1324 451.5 1292 c 128,-1,40
 442 1260 442 1260 428.5 1217.5 c 128,-1,41
 415 1175 415 1175 400.5 1127 c 128,-1,42
 386 1079 386 1079 372.5 1036 c 128,-1,43
 359 993 359 993 348.5 961.5 c 128,-1,44
 338 930 338 930 334 919 c 1,45,46
 454 973 454 973 602 973 c 0,47,48
 704 973 704 973 783 933.5 c 128,-1,49
 862 894 862 894 911 826.5 c 128,-1,50
 960 759 960 759 975 669.5 c 128,-1,51
 990 580 990 580 963 479 c 0,0,1
EndSplineSet
Substitution2: "<17001,16003> Urdu lookup 129 subtable" five
EndChar

StartChar: six
Encoding: 54 54 25
Width: 1200
GlyphClass: 2
Flags: W
LayerCount: 2
Fore
SplineSet
791 430 m 0,0,1
 814 517 814 517 815 590.5 c 128,-1,2
 816 664 816 664 794.5 717.5 c 128,-1,3
 773 771 773 771 730 801.5 c 128,-1,4
 687 832 687 832 623 832 c 0,5,6
 557 832 557 832 465.5 793 c 128,-1,7
 374 754 374 754 273 691 c 1,8,9
 259 663 259 663 247 626.5 c 128,-1,10
 235 590 235 590 222 544 c 0,11,12
 191 426 191 426 186 329 c 128,-1,13
 181 232 181 232 203 162 c 128,-1,14
 225 92 225 92 274 54 c 128,-1,15
 323 16 323 16 402 16 c 0,16,17
 466 16 466 16 525.5 45 c 128,-1,18
 585 74 585 74 636 128 c 128,-1,19
 687 182 687 182 726.5 259 c 128,-1,20
 766 336 766 336 791 430 c 0,0,1
984 453 m 0,21,22
 909 174 909 174 639 34 c 0,23,24
 575 1 575 1 512.5 -17.5 c 128,-1,25
 450 -36 450 -36 384 -35 c 1,26,27
 214 -35 214 -35 114 74 c 0,28,29
 25 172 25 172 17 343 c 1,30,31
 17 398 17 398 23 460 c 128,-1,32
 29 522 29 522 48 592 c 0,33,34
 96 772 96 772 194 921 c 128,-1,35
 292 1070 292 1070 445 1201 c 1,36,37
 586 1320 586 1320 749 1399.5 c 128,-1,38
 912 1479 912 1479 1107 1531 c 1,39,-1
 1127 1486 l 1,40,41
 707 1337 707 1337 489 1065 c 0,42,43
 433 996 433 996 388.5 922.5 c 128,-1,44
 344 849 344 849 306 764 c 1,45,46
 414 832 414 832 504.5 865 c 128,-1,47
 595 898 595 898 677 898 c 256,48,49
 759 898 759 898 828 865.5 c 128,-1,50
 897 833 897 833 940 773.5 c 128,-1,51
 983 714 983 714 996.5 632.5 c 128,-1,52
 1010 551 1010 551 984 453 c 0,21,22
EndSplineSet
Substitution2: "<17001,16003> Urdu lookup 129 subtable" six
EndChar

StartChar: seven
Encoding: 55 55 26
Width: 1200
GlyphClass: 2
Flags: W
LayerCount: 2
Fore
SplineSet
1244 1439 m 1,0,-1
 265 -35 l 1,1,-1
 126 -35 l 1,2,-1
 1069 1330 l 1,3,-1
 420 1330 l 2,4,5
 385 1330 385 1330 361.5 1324.5 c 128,-1,6
 338 1319 338 1319 320 1303 c 128,-1,7
 302 1287 302 1287 287 1260.5 c 128,-1,8
 272 1234 272 1234 256 1192 c 1,9,-1
 211 1192 l 1,10,-1
 292 1494 l 1,11,-1
 1259 1494 l 1,12,-1
 1244 1439 l 1,0,-1
EndSplineSet
Substitution2: "<17001,16003> Urdu lookup 129 subtable" seven
EndChar

StartChar: eight
Encoding: 56 56 27
Width: 1200
GlyphClass: 2
Flags: W
LayerCount: 2
Fore
SplineSet
964 1185 m 0,0,1
 1009 1354 1009 1354 896 1441 c 1,2,-1
 897 1441 l 1,3,4
 841 1478 841 1478 760 1478 c 0,5,6
 704 1478 704 1478 647.5 1460 c 128,-1,7
 591 1442 591 1442 540.5 1407 c 128,-1,8
 490 1372 490 1372 452.5 1323 c 128,-1,9
 415 1274 415 1274 398 1212 c 0,10,11
 363 1081 363 1081 480 980 c 1,12,13
 514 952 514 952 564 923 c 128,-1,14
 614 894 614 894 680 860 c 1,15,16
 734 891 734 891 779.5 928 c 128,-1,17
 825 965 825 965 862 1006.5 c 128,-1,18
 899 1048 899 1048 925 1093 c 128,-1,19
 951 1138 951 1138 964 1185 c 0,0,1
779 345 m 0,20,21
 815 479 815 479 710 584 c 0,22,23
 697 598 697 598 674.5 616 c 128,-1,24
 652 634 652 634 624 653 c 128,-1,25
 596 672 596 672 564 691.5 c 128,-1,26
 532 711 532 711 498 726 c 1,27,28
 436 694 436 694 381.5 653.5 c 128,-1,29
 327 613 327 613 283 566.5 c 128,-1,30
 239 520 239 520 208 469.5 c 128,-1,31
 177 419 177 419 163 368 c 0,32,33
 143 294 143 294 149 230 c 128,-1,34
 155 166 155 166 183.5 119 c 128,-1,35
 212 72 212 72 261.5 45 c 128,-1,36
 311 18 311 18 378 18 c 0,37,38
 442 18 442 18 505.5 42.5 c 128,-1,39
 569 67 569 67 623.5 110.5 c 128,-1,40
 678 154 678 154 719 213.5 c 128,-1,41
 760 273 760 273 779 345 c 0,20,21
955 409 m 0,42,43
 932 322 932 322 879.5 243 c 128,-1,44
 827 164 827 164 749.5 102 c 128,-1,45
 672 40 672 40 574.5 3 c 128,-1,46
 477 -34 477 -34 362 -35 c 0,47,48
 271 -35 271 -35 195 -6 c 128,-1,49
 119 23 119 23 67 74.5 c 128,-1,50
 15 126 15 126 -3 199.5 c 128,-1,51
 -21 273 -21 273 2 362 c 1,52,53
 37 491 37 491 144.5 587.5 c 128,-1,54
 252 684 252 684 444 753 c 1,55,56
 300 829 300 829 247.5 923 c 128,-1,57
 195 1017 195 1017 228 1139 c 0,58,59
 247 1211 247 1211 297 1281 c 128,-1,60
 347 1351 347 1351 420 1406.5 c 128,-1,61
 493 1462 493 1462 583.5 1496 c 128,-1,62
 674 1530 674 1530 774 1530 c 0,63,64
 866 1530 866 1530 938 1502.5 c 128,-1,65
 1010 1475 1010 1475 1056.5 1428.5 c 128,-1,66
 1103 1382 1103 1382 1119 1318.5 c 128,-1,67
 1135 1255 1135 1255 1115 1183 c 0,68,69
 1055 956 1055 956 720 834 c 1,70,71
 878 752 878 752 934.5 648 c 128,-1,72
 991 544 991 544 955 409 c 0,42,43
EndSplineSet
Substitution2: "<17001,16003> Urdu lookup 129 subtable" eight
EndChar

StartChar: nine
Encoding: 57 57 28
Width: 1200
GlyphClass: 2
Flags: W
LayerCount: 2
Fore
SplineSet
930 952 m 0,0,1
 962 1074 962 1074 965 1171.5 c 128,-1,2
 968 1269 968 1269 944 1337.5 c 128,-1,3
 920 1406 920 1406 871 1443 c 128,-1,4
 822 1480 822 1480 751 1480 c 0,5,6
 688 1480 688 1480 629 1451.5 c 128,-1,7
 570 1423 570 1423 519.5 1370 c 128,-1,8
 469 1317 469 1317 428.5 1240.5 c 128,-1,9
 388 1164 388 1164 362 1067 c 0,10,11
 339 981 339 981 339 907.5 c 128,-1,12
 339 834 339 834 360.5 779.5 c 128,-1,13
 382 725 382 725 424.5 694.5 c 128,-1,14
 467 664 467 664 530 664 c 0,15,16
 604 664 604 664 691 701 c 128,-1,17
 778 738 778 738 878 808 c 1,18,19
 893 834 893 834 905.5 870.5 c 128,-1,20
 918 907 918 907 930 952 c 0,0,1
1104 905 m 0,21,22
 1015 573 1015 573 736 323 c 0,23,24
 598 200 598 200 429 110 c 128,-1,25
 260 20 260 20 47 -36 c 1,26,-1
 25 9 l 1,27,28
 449 164 449 164 663 430 c 1,29,30
 718 500 718 500 764.5 575 c 128,-1,31
 811 650 811 650 846 732 c 1,32,33
 737 664 737 664 648.5 631.5 c 128,-1,34
 560 599 560 599 475 599 c 0,35,36
 392 599 392 599 324 631.5 c 128,-1,37
 256 664 256 664 213.5 723.5 c 128,-1,38
 171 783 171 783 157.5 864.5 c 128,-1,39
 144 946 144 946 170 1044 c 0,40,41
 196 1141 196 1141 257.5 1229.5 c 128,-1,42
 319 1318 319 1318 399.5 1384.5 c 128,-1,43
 480 1451 480 1451 576 1490.5 c 128,-1,44
 672 1530 672 1530 768 1530 c 0,45,46
 874 1530 874 1530 955 1486 c 128,-1,47
 1036 1442 1036 1442 1081.5 1360.5 c 128,-1,48
 1127 1279 1127 1279 1134.5 1163.5 c 128,-1,49
 1142 1048 1142 1048 1104 905 c 0,21,22
EndSplineSet
Substitution2: "<17001,16003> Urdu lookup 129 subtable" nine
EndChar

StartChar: colon
Encoding: 58 58 29
Width: 587
GlyphClass: 2
Flags: W
LayerCount: 2
Fore
SplineSet
137 885 m 1,0,1
 173 995 173 995 286 1004 c 1,2,3
 394 995 394 995 373 881 c 1,4,5
 338 774 338 774 225 762 c 1,6,7
 113 771 113 771 137 885 c 1,0,1
-69 117 m 1,8,9
 -33 226 -33 226 79 235 c 1,10,11
 188 226 188 226 167 113 c 1,12,13
 132 6 132 6 19 -6 c 1,14,15
 -93 3 -93 3 -69 117 c 1,8,9
EndSplineSet
Substitution2: "<17001,16003> Urdu lookup 129 subtable" colon
EndChar

StartChar: semicolon
Encoding: 59 59 30
Width: 624
GlyphClass: 2
Flags: W
LayerCount: 2
Fore
SplineSet
478 861 m 0,0,1
 471 835 471 835 454.5 813 c 128,-1,2
 438 791 438 791 417 775.5 c 128,-1,3
 396 760 396 760 370.5 752 c 128,-1,4
 345 744 345 744 318 744 c 256,5,6
 291 744 291 744 269.5 752 c 128,-1,7
 248 760 248 760 235 775.5 c 128,-1,8
 222 791 222 791 217.5 813 c 128,-1,9
 213 835 213 835 220 861 c 0,10,11
 237 922 237 922 276 950.5 c 128,-1,12
 315 979 315 979 381 979 c 0,13,14
 408 979 408 979 429 970.5 c 128,-1,15
 450 962 450 962 463 947.5 c 128,-1,16
 476 933 476 933 481 911 c 128,-1,17
 486 889 486 889 478 861 c 0,0,1
265 3 m 0,18,19
 250 -55 250 -55 216 -109 c 128,-1,20
 182 -163 182 -163 134 -209 c 128,-1,21
 86 -255 86 -255 25 -292 c 128,-1,22
 -36 -329 -36 -329 -107 -355 c 1,23,-1
 -110 -303 l 1,24,25
 102 -200 102 -200 138 -66 c 0,26,27
 150 -21 150 -21 124 -21 c 0,28,29
 120 -21 120 -21 112.5 -22.5 c 128,-1,30
 105 -24 105 -24 95.5 -25.5 c 128,-1,31
 86 -27 86 -27 77 -28.5 c 128,-1,32
 68 -30 68 -30 62 -30 c 0,33,34
 38 -30 38 -30 20 -21.5 c 128,-1,35
 2 -13 2 -13 -9 3 c 128,-1,36
 -20 19 -20 19 -22 40 c 128,-1,37
 -24 61 -24 61 -18 83 c 0,38,39
 -10 112 -10 112 6 134.5 c 128,-1,40
 22 157 22 157 44.5 172.5 c 128,-1,41
 67 188 67 188 93.5 197.5 c 128,-1,42
 120 207 120 207 148 207 c 0,43,44
 185 207 185 207 212.5 190.5 c 128,-1,45
 240 174 240 174 255.5 147.5 c 128,-1,46
 271 121 271 121 274 83.5 c 128,-1,47
 277 46 277 46 265 3 c 0,18,19
EndSplineSet
Substitution2: "<17001,16003> Urdu lookup 129 subtable" semicolon
EndChar

StartChar: less
Encoding: 60 60 31
Width: 1200
GlyphClass: 2
Flags: W
LayerCount: 2
Fore
SplineSet
908 -73 m 1,0,-1
 -27 380 l 1,1,-1
 1 483 l 1,2,-1
 1178 934 l 1,3,-1
 1143 803 l 1,4,-1
 148 430 l 1,5,6
 229 393 229 393 297 360.5 c 128,-1,7
 365 328 365 328 426 299 c 128,-1,8
 487 270 487 270 545.5 243.5 c 128,-1,9
 604 217 604 217 664.5 188 c 128,-1,10
 725 159 725 159 793.5 127 c 128,-1,11
 862 95 862 95 943 58 c 1,12,-1
 908 -73 l 1,0,-1
EndSplineSet
Substitution2: "<17001,16003> Urdu lookup 129 subtable" less
EndChar

StartChar: equal
Encoding: 61 61 32
Width: 1200
GlyphClass: 2
Flags: W
LayerCount: 2
Fore
SplineSet
893 238 m 1,0,-1
 34 238 l 1,1,-1
 64 348 l 1,2,-1
 923 348 l 1,3,-1
 893 238 l 1,0,-1
966 510 m 1,4,-1
 107 510 l 1,5,-1
 137 620 l 1,6,-1
 996 620 l 1,7,-1
 966 510 l 1,4,-1
EndSplineSet
Substitution2: "<17001,16003> Urdu lookup 129 subtable" equal
EndChar

StartChar: greater
Encoding: 62 62 33
Width: 1200
GlyphClass: 2
Flags: W
LayerCount: 2
Fore
SplineSet
-113 58 m 1,0,1
 -11 95 -11 95 74.5 127 c 128,-1,2
 160 159 160 159 237 188 c 128,-1,3
 314 217 314 217 386.5 244 c 128,-1,4
 459 271 459 271 535.5 300 c 128,-1,5
 612 329 612 329 697 361 c 128,-1,6
 782 393 782 393 883 430 c 1,7,-1
 87 803 l 1,8,-1
 122 934 l 1,9,-1
 1057 483 l 1,10,-1
 1029 380 l 1,11,-1
 -148 -73 l 1,12,-1
 -113 58 l 1,0,1
EndSplineSet
Substitution2: "<17001,16003> Urdu lookup 129 subtable" greater
EndChar

StartChar: question
Encoding: 63 63 34
Width: 850
GlyphClass: 2
Flags: W
LayerCount: 2
Fore
SplineSet
324 89 m 0,0,1
 310 34 310 34 264.5 2 c 128,-1,2
 219 -30 219 -30 161 -30 c 0,3,4
 135 -30 135 -30 114.5 -21.5 c 128,-1,5
 94 -13 94 -13 81.5 3.5 c 128,-1,6
 69 20 69 20 65 42 c 128,-1,7
 61 64 61 64 67 89 c 0,8,9
 99 207 99 207 225 207 c 0,10,11
 356 207 356 207 324 89 c 0,0,1
844 1094 m 0,12,13
 808 960 808 960 730 871.5 c 128,-1,14
 652 783 652 783 539 731 c 0,15,16
 502 713 502 713 458.5 698 c 128,-1,17
 415 683 415 683 376.5 666 c 128,-1,18
 338 649 338 649 309.5 627.5 c 128,-1,19
 281 606 281 606 273 577 c 0,20,21
 252 498 252 498 326 401 c 1,22,-1
 256 401 l 1,23,24
 215 466 215 466 201 527.5 c 128,-1,25
 187 589 187 589 204 652 c 0,26,27
 230 750 230 750 314 802 c 1,28,29
 329 810 329 810 356 822.5 c 128,-1,30
 383 835 383 835 416.5 848.5 c 128,-1,31
 450 862 450 862 489 877 c 128,-1,32
 528 892 528 892 564 907 c 128,-1,33
 600 922 600 922 629 935.5 c 128,-1,34
 658 949 658 949 675 960 c 1,35,36
 714 991 714 991 742 1032 c 128,-1,37
 770 1073 770 1073 783 1122 c 0,38,39
 796 1170 796 1170 789 1208 c 128,-1,40
 782 1246 782 1246 758 1272.5 c 128,-1,41
 734 1299 734 1299 694 1313 c 128,-1,42
 654 1327 654 1327 600 1327 c 0,43,44
 585 1327 585 1327 558 1324 c 128,-1,45
 531 1321 531 1321 502.5 1318.5 c 128,-1,46
 474 1316 474 1316 448.5 1313 c 128,-1,47
 423 1310 423 1310 412 1310 c 0,48,49
 269 1310 269 1310 293 1401 c 0,50,51
 324 1518 324 1518 538 1518 c 0,52,53
 630 1518 630 1518 699.5 1487 c 128,-1,54
 769 1456 769 1456 809.5 1400 c 128,-1,55
 850 1344 850 1344 859.5 1266 c 128,-1,56
 869 1188 869 1188 844 1094 c 0,12,13
EndSplineSet
Substitution2: "<17001,16003> Urdu lookup 129 subtable" question
EndChar

StartChar: at
Encoding: 64 64 35
Width: 2201
GlyphClass: 2
Flags: W
LayerCount: 2
Fore
SplineSet
1420 903 m 0,0,1
 1430 937 1430 937 1427 966.5 c 128,-1,2
 1424 996 1424 996 1411.5 1017.5 c 128,-1,3
 1399 1039 1399 1039 1376.5 1051 c 128,-1,4
 1354 1063 1354 1063 1323 1063 c 0,5,6
 1278 1063 1278 1063 1215.5 1026.5 c 128,-1,7
 1153 990 1153 990 1085 930.5 c 128,-1,8
 1017 871 1017 871 947.5 794.5 c 128,-1,9
 878 718 878 718 819 639 c 128,-1,10
 760 560 760 560 717 484 c 128,-1,11
 674 408 674 408 658 348 c 0,12,13
 649 317 649 317 652.5 288.5 c 128,-1,14
 656 260 656 260 668 237.5 c 128,-1,15
 680 215 680 215 700 201 c 128,-1,16
 720 187 720 187 747 187 c 0,17,18
 822 187 822 187 916 246 c 128,-1,19
 1010 305 1010 305 1125 415 c 1,20,21
 1241 531 1241 531 1313 651.5 c 128,-1,22
 1385 772 1385 772 1420 903 c 0,0,1
2007 213 m 1,23,24
 1946 105 1946 105 1864 6.5 c 128,-1,25
 1782 -92 1782 -92 1688 -173 c 0,26,27
 1642 -212 1642 -212 1591 -247.5 c 128,-1,28
 1540 -283 1540 -283 1485.5 -315 c 128,-1,29
 1431 -347 1431 -347 1374.5 -374 c 128,-1,30
 1318 -401 1318 -401 1264 -421 c 0,31,32
 1146 -467 1146 -467 1032.5 -491 c 128,-1,33
 919 -515 919 -515 797 -514 c 1,34,35
 573 -514 573 -514 413 -440.5 c 128,-1,36
 253 -367 253 -367 146 -220 c 1,37,38
 37 -73 37 -73 17 113 c 128,-1,39
 -3 299 -3 299 53 521 c 1,40,41
 118 765 118 765 252.5 966 c 128,-1,42
 387 1167 387 1167 595 1337 c 1,43,44
 800 1500 800 1500 1016 1583.5 c 128,-1,45
 1232 1667 1232 1667 1468 1667 c 0,46,47
 1655 1667 1655 1667 1794 1608 c 128,-1,48
 1933 1549 1933 1549 2015 1443 c 128,-1,49
 2097 1337 2097 1337 2117.5 1189 c 128,-1,50
 2138 1041 2138 1041 2091 863 c 0,51,52
 2071 791 2071 791 2040.5 718.5 c 128,-1,53
 2010 646 2010 646 1969.5 575.5 c 128,-1,54
 1929 505 1929 505 1881.5 439 c 128,-1,55
 1834 373 1834 373 1781 315 c 0,56,57
 1529 39 1529 39 1222 37 c 0,58,59
 1126 37 1126 37 1092.5 77 c 128,-1,60
 1059 117 1059 117 1081 201 c 0,61,62
 1088 227 1088 227 1104 268 c 128,-1,63
 1120 309 1120 309 1142 361 c 1,64,65
 804 37 804 37 603 37 c 0,66,67
 555 37 555 37 521 59.5 c 128,-1,68
 487 82 487 82 469 120.5 c 128,-1,69
 451 159 451 159 448.5 208.5 c 128,-1,70
 446 258 446 258 460 312 c 0,71,72
 483 399 483 399 538 495 c 128,-1,73
 593 591 593 591 674 690 c 0,74,75
 747 779 747 779 834.5 862 c 128,-1,76
 922 945 922 945 1010 1005 c 0,77,78
 1102 1069 1102 1069 1182 1100.5 c 128,-1,79
 1262 1132 1262 1132 1327 1133 c 1,80,81
 1404 1133 1404 1133 1449.5 1096.5 c 128,-1,82
 1495 1060 1495 1060 1494 991 c 1,83,84
 1508 1014 1508 1014 1524.5 1044.5 c 128,-1,85
 1541 1075 1541 1075 1555 1103 c 1,86,-1
 1755 1127 l 1,87,-1
 1357 408 l 2,88,89
 1321 344 1321 344 1298.5 299 c 128,-1,90
 1276 254 1276 254 1267 222 c 0,91,92
 1243 132 1243 132 1330 132 c 0,93,94
 1387 132 1387 132 1452.5 161.5 c 128,-1,95
 1518 191 1518 191 1585.5 243.5 c 128,-1,96
 1653 296 1653 296 1719 367 c 128,-1,97
 1785 438 1785 438 1842 521.5 c 128,-1,98
 1899 605 1899 605 1944 698 c 128,-1,99
 1989 791 1989 791 2015 886 c 0,100,101
 2035 960 2035 960 2038 1031.5 c 128,-1,102
 2041 1103 2041 1103 2031.5 1168.5 c 128,-1,103
 2022 1234 2022 1234 1998.5 1292 c 128,-1,104
 1975 1350 1975 1350 1940 1399 c 1,105,106
 1861 1495 1861 1495 1742.5 1546.5 c 128,-1,107
 1624 1598 1624 1598 1457 1598 c 0,108,109
 1236 1598 1236 1598 1032.5 1509.5 c 128,-1,110
 829 1421 829 1421 639 1252 c 1,111,112
 459 1086 459 1086 341.5 898.5 c 128,-1,113
 224 711 224 711 166 494 c 0,114,115
 131 365 131 365 128.5 247 c 128,-1,116
 126 129 126 129 150 25 c 1,117,118
 164 -25 164 -25 188 -73 c 128,-1,119
 212 -121 212 -121 242 -165 c 128,-1,120
 272 -209 272 -209 309 -247.5 c 128,-1,121
 346 -286 346 -286 387 -316 c 1,122,-1
 386 -316 l 1,123,124
 558 -432 558 -432 827 -432 c 0,125,126
 925 -432 925 -432 1027.5 -410 c 128,-1,127
 1130 -388 1130 -388 1230.5 -349.5 c 128,-1,128
 1331 -311 1331 -311 1428 -257 c 128,-1,129
 1525 -203 1525 -203 1610 -139 c 1,130,131
 1652 -104 1652 -104 1694.5 -62.5 c 128,-1,132
 1737 -21 1737 -21 1778.5 25 c 128,-1,133
 1820 71 1820 71 1858.5 118.5 c 128,-1,134
 1897 166 1897 166 1931 213 c 1,135,-1
 2007 213 l 1,23,24
EndSplineSet
Substitution2: "<17001,16003> Urdu lookup 129 subtable" at
EndChar

StartChar: A
Encoding: 65 65 36
Width: 1625
GlyphClass: 2
Flags: W
LayerCount: 2
Fore
SplineSet
972 773 m 1,0,1
 970 793 970 793 966 836.5 c 128,-1,2
 962 880 962 880 956 934 c 128,-1,3
 950 988 950 988 943 1048 c 128,-1,4
 936 1108 936 1108 930 1160.5 c 128,-1,5
 924 1213 924 1213 919.5 1253 c 128,-1,6
 915 1293 915 1293 913 1308 c 1,7,8
 902 1291 902 1291 874.5 1247.5 c 128,-1,9
 847 1204 847 1204 812.5 1149.5 c 128,-1,10
 778 1095 778 1095 739.5 1034.5 c 128,-1,11
 701 974 701 974 667 920 c 128,-1,12
 633 866 633 866 607.5 826.5 c 128,-1,13
 582 787 582 787 574 773 c 1,14,-1
 972 773 l 1,0,1
1413 0 m 1,15,-1
 747 0 l 1,16,-1
 762 58 l 1,17,-1
 829 58 l 2,18,19
 884 58 884 58 920 61.5 c 128,-1,20
 956 65 956 65 978.5 73 c 128,-1,21
 1001 81 1001 81 1013.5 96.5 c 128,-1,22
 1026 112 1026 112 1031 134 c 1,23,24
 1036 150 1036 150 1034.5 175.5 c 128,-1,25
 1033 201 1033 201 1031 229 c 0,26,27
 1030 245 1030 245 1026.5 278.5 c 128,-1,28
 1023 312 1023 312 1018 354.5 c 128,-1,29
 1013 397 1013 397 1008 444.5 c 128,-1,30
 1003 492 1003 492 998.5 534 c 128,-1,31
 994 576 994 576 990.5 610 c 128,-1,32
 987 644 987 644 985 658 c 1,33,-1
 499 658 l 1,34,35
 471 614 471 614 436 560.5 c 128,-1,36
 401 507 401 507 367 452 c 128,-1,37
 333 397 333 397 300 343.5 c 128,-1,38
 267 290 267 290 241 247 c 128,-1,39
 215 204 215 204 198 174.5 c 128,-1,40
 181 145 181 145 179 138 c 0,41,42
 158 58 158 58 342 58 c 2,43,-1
 386 58 l 1,44,-1
 371 0 l 1,45,-1
 -191 0 l 1,46,-1
 -176 58 l 1,47,48
 -110 61 -110 61 -65.5 76 c 128,-1,49
 -21 91 -21 91 13.5 119.5 c 128,-1,50
 48 148 48 148 78 190 c 128,-1,51
 108 232 108 232 145 289 c 0,52,53
 163 318 163 318 201.5 379.5 c 128,-1,54
 240 441 240 441 292 522.5 c 128,-1,55
 344 604 344 604 405.5 700.5 c 128,-1,56
 467 797 467 797 528.5 895.5 c 128,-1,57
 590 994 590 994 650 1088.5 c 128,-1,58
 710 1183 710 1183 760 1261.5 c 128,-1,59
 810 1340 810 1340 845 1395.5 c 128,-1,60
 880 1451 880 1451 893 1472 c 1,61,62
 892 1486 892 1486 890 1503 c 128,-1,63
 888 1520 888 1520 886 1530 c 1,64,-1
 1107 1530 l 1,65,-1
 1251 202 l 1,66,67
 1257 162 1257 162 1268.5 134 c 128,-1,68
 1280 106 1280 106 1300.5 89.5 c 128,-1,69
 1321 73 1321 73 1352 65.5 c 128,-1,70
 1383 58 1383 58 1428 58 c 1,71,-1
 1413 0 l 1,15,-1
EndSplineSet
Substitution2: "<17001,16003> Urdu lookup 129 subtable" A
EndChar

StartChar: B
Encoding: 66 66 37
Width: 1524
GlyphClass: 2
Flags: W
LayerCount: 2
Fore
SplineSet
1197 1147 m 0,0,1
 1280 1459 1280 1459 890 1459 c 0,2,3
 874 1459 874 1459 826 1457.5 c 128,-1,4
 778 1456 778 1456 686 1451 c 1,5,-1
 532 875 l 1,6,-1
 785 875 l 2,7,8
 1124 875 1124 875 1197 1147 c 0,0,1
1081 451 m 0,9,10
 1102 527 1102 527 1091 594.5 c 128,-1,11
 1080 662 1080 662 1038.5 711 c 128,-1,12
 997 760 997 760 928.5 788.5 c 128,-1,13
 860 817 860 817 767 817 c 2,14,-1
 516 817 l 1,15,-1
 382 316 l 2,16,17
 365 252 365 252 366.5 206.5 c 128,-1,18
 368 161 368 161 392 131.5 c 128,-1,19
 416 102 416 102 463 88 c 128,-1,20
 510 74 510 74 582 74 c 0,21,22
 980 74 980 74 1081 451 c 0,9,10
1319 457 m 0,23,24
 1295 366 1295 366 1240 283 c 128,-1,25
 1185 200 1185 200 1103 137 c 128,-1,26
 1021 74 1021 74 914 37 c 128,-1,27
 807 0 807 0 678 0 c 2,28,-1
 -200 0 l 1,29,-1
 -185 58 l 1,30,-1
 -125 58 l 2,31,32
 -51 58 -51 58 -3.5 68 c 128,-1,33
 44 78 44 78 74.5 100.5 c 128,-1,34
 105 123 105 123 123 159.5 c 128,-1,35
 141 196 141 196 154 246 c 2,36,-1
 419 1235 l 2,37,38
 435 1295 435 1295 436.5 1333.5 c 128,-1,39
 438 1372 438 1372 424 1395 c 128,-1,40
 410 1418 410 1418 379 1428 c 128,-1,41
 348 1438 348 1438 296 1438 c 2,42,-1
 206 1438 l 1,43,-1
 221 1494 l 1,44,45
 241 1496 241 1496 270 1498.5 c 128,-1,46
 299 1501 299 1501 336 1503.5 c 128,-1,47
 373 1506 373 1506 421 1507 c 128,-1,48
 469 1508 469 1508 529 1508 c 1,49,50
 628 1511 628 1511 723 1512.5 c 128,-1,51
 818 1514 818 1514 890 1514 c 0,52,53
 1064 1514 1064 1514 1179 1489.5 c 128,-1,54
 1294 1465 1294 1465 1346 1421 c 1,55,56
 1402 1369 1402 1369 1422.5 1302 c 128,-1,57
 1443 1235 1443 1235 1421 1153 c 0,58,59
 1408 1103 1408 1103 1378 1056.5 c 128,-1,60
 1348 1010 1348 1010 1304.5 971.5 c 128,-1,61
 1261 933 1261 933 1206 903 c 128,-1,62
 1151 873 1151 873 1087 857 c 1,63,64
 1236 805 1236 805 1297 704.5 c 128,-1,65
 1358 604 1358 604 1319 457 c 0,23,24
EndSplineSet
Substitution2: "<17001,16003> Urdu lookup 129 subtable" B
EndChar

StartChar: C
Encoding: 67 67 38
AltUni2: 00216d.ffffffff.0
Width: 1750
GlyphClass: 2
Flags: W
LayerCount: 2
Fore
SplineSet
1561 388 m 1,0,1
 1532 333 1532 333 1498 280 c 128,-1,2
 1464 227 1464 227 1430.5 180 c 128,-1,3
 1397 133 1397 133 1366.5 93.5 c 128,-1,4
 1336 54 1336 54 1311 25 c 1,5,6
 1297 28 1297 28 1284.5 29.5 c 128,-1,7
 1272 31 1272 31 1259 31 c 0,8,9
 1252 31 1252 31 1241.5 29.5 c 128,-1,10
 1231 28 1231 28 1219 26 c 0,11,12
 1172 18 1172 18 1108.5 5.5 c 128,-1,13
 1045 -7 1045 -7 982 -16.5 c 128,-1,14
 919 -26 919 -26 863.5 -33 c 128,-1,15
 808 -40 808 -40 777 -40 c 0,16,17
 652 -40 652 -40 550.5 -18.5 c 128,-1,18
 449 3 449 3 360 52 c 0,19,20
 272 101 272 101 211.5 172.5 c 128,-1,21
 151 244 151 244 119 334 c 0,22,23
 89 421 89 421 89.5 517.5 c 128,-1,24
 90 614 90 614 118 728 c 1,25,26
 149 847 149 847 203 948 c 128,-1,27
 257 1049 257 1049 336 1142 c 1,28,29
 414 1232 414 1232 513 1302 c 128,-1,30
 612 1372 612 1372 726 1427 c 256,31,32
 840 1482 840 1482 954.5 1505.5 c 128,-1,33
 1069 1529 1069 1529 1196 1530 c 0,34,35
 1295 1530 1295 1530 1391.5 1512.5 c 128,-1,36
 1488 1495 1488 1495 1573 1464 c 1,37,38
 1605 1451 1605 1451 1633 1442.5 c 128,-1,39
 1661 1434 1661 1434 1672 1434 c 0,40,41
 1705 1434 1705 1434 1718 1449 c 1,42,-1
 1759 1449 l 1,43,-1
 1685 1092 l 1,44,-1
 1631 1092 l 1,45,46
 1606 1323 1606 1323 1416 1414 c 0,47,48
 1367 1438 1367 1438 1310.5 1448.5 c 128,-1,49
 1254 1459 1254 1459 1191 1459 c 0,50,51
 791 1459 791 1459 543 1133 c 0,52,53
 482 1053 482 1053 439 966.5 c 128,-1,54
 396 880 396 880 368 776 c 0,55,56
 326 616 326 616 340 486.5 c 128,-1,57
 354 357 354 357 423 246 c 0,58,59
 492 136 492 136 598.5 85 c 128,-1,60
 705 34 705 34 836 31 c 1,61,62
 1032 31 1032 31 1197 118.5 c 128,-1,63
 1362 206 1362 206 1509 388 c 1,64,-1
 1561 388 l 1,0,1
EndSplineSet
Substitution2: "<17001,16003> Urdu lookup 129 subtable" C
EndChar

StartChar: D
Encoding: 68 68 39
AltUni2: 00216e.ffffffff.0
Width: 1824
GlyphClass: 2
Flags: W
LayerCount: 2
Fore
SplineSet
1460 758 m 1,0,1
 1502 916 1502 916 1490 1045.5 c 128,-1,2
 1478 1175 1478 1175 1404.5 1266.5 c 128,-1,3
 1331 1358 1331 1358 1193.5 1408.5 c 128,-1,4
 1056 1459 1056 1459 848 1459 c 0,5,6
 811 1459 811 1459 764.5 1456.5 c 128,-1,7
 718 1454 718 1454 659 1449 c 1,8,-1
 319 182 l 2,9,10
 308 139 308 139 311.5 114.5 c 128,-1,11
 315 90 315 90 333.5 77.5 c 128,-1,12
 352 65 352 65 388 61.5 c 128,-1,13
 424 58 424 58 478 58 c 0,14,15
 630 58 630 58 748 78.5 c 128,-1,16
 866 99 866 99 947 133 c 1,17,-1
 946 133 l 1,18,19
 995 159 995 159 1045.5 193.5 c 128,-1,20
 1096 228 1096 228 1144.5 270.5 c 128,-1,21
 1193 313 1193 313 1238 360.5 c 128,-1,22
 1283 408 1283 408 1320 457 c 1,23,24
 1365 522 1365 522 1401 599 c 128,-1,25
 1437 676 1437 676 1460 758 c 1,0,1
1705 797 m 0,26,27
 1676 690 1676 690 1622 591.5 c 128,-1,28
 1568 493 1568 493 1491 403 c 0,29,30
 1457 362 1457 362 1414 322 c 128,-1,31
 1371 282 1371 282 1324 246 c 128,-1,32
 1277 210 1277 210 1225.5 177.5 c 128,-1,33
 1174 145 1174 145 1123 120 c 0,34,35
 1012 65 1012 65 880 32.5 c 128,-1,36
 748 0 748 0 604 0 c 2,37,-1
 -163 0 l 1,38,-1
 -148 58 l 1,39,-1
 -104 58 l 2,40,41
 -49 58 -49 58 -10.5 68 c 128,-1,42
 28 78 28 78 54.5 99.5 c 128,-1,43
 81 121 81 121 98 152 c 128,-1,44
 115 183 115 183 126 225 c 2,45,-1
 400 1249 l 2,46,47
 416 1308 416 1308 416 1344.5 c 128,-1,48
 416 1381 416 1381 400 1402 c 128,-1,49
 384 1423 384 1423 352.5 1430.5 c 128,-1,50
 321 1438 321 1438 274 1438 c 2,51,-1
 222 1438 l 1,52,-1
 237 1494 l 1,53,54
 260 1495 260 1495 316.5 1497.5 c 128,-1,55
 373 1500 373 1500 448.5 1502.5 c 128,-1,56
 524 1505 524 1505 608 1507 c 128,-1,57
 692 1509 692 1509 768 1511 c 128,-1,58
 844 1513 844 1513 902 1513.5 c 128,-1,59
 960 1514 960 1514 984 1514 c 0,60,61
 1203 1514 1203 1514 1359.5 1464 c 128,-1,62
 1516 1414 1516 1414 1607.5 1320.5 c 128,-1,63
 1699 1227 1699 1227 1724 1094.5 c 128,-1,64
 1749 962 1749 962 1705 797 c 0,26,27
EndSplineSet
Substitution2: "<17001,16003> Urdu lookup 129 subtable" D
EndChar

StartChar: E
Encoding: 69 69 40
Width: 1426
GlyphClass: 2
Flags: W
LayerCount: 2
Fore
SplineSet
1219 367 m 1,0,-1
 1083 0 l 1,1,-1
 -194 0 l 1,2,-1
 -179 58 l 1,3,-1
 -108 58 l 2,4,5
 -36 58 -36 58 9.5 68.5 c 128,-1,6
 55 79 55 79 84 102 c 128,-1,7
 113 125 113 125 130 161 c 128,-1,8
 147 197 147 197 160 246 c 2,9,-1
 429 1250 l 2,10,11
 445 1308 445 1308 444.5 1344.5 c 128,-1,12
 444 1381 444 1381 427.5 1401.5 c 128,-1,13
 411 1422 411 1422 379 1430 c 128,-1,14
 347 1438 347 1438 298 1438 c 2,15,-1
 239 1438 l 1,16,-1
 254 1494 l 1,17,-1
 1408 1494 l 1,18,-1
 1316 1152 l 1,19,-1
 1282 1152 l 1,20,21
 1297 1277 1297 1277 1270.5 1337 c 128,-1,22
 1244 1397 1244 1397 1179 1397 c 2,23,-1
 681 1397 l 1,24,-1
 527 822 l 1,25,-1
 948 822 l 2,26,27
 980 822 980 822 1005.5 831.5 c 128,-1,28
 1031 841 1031 841 1052 861.5 c 128,-1,29
 1073 882 1073 882 1091 916.5 c 128,-1,30
 1109 951 1109 951 1128 1001 c 1,31,-1
 1182 1001 l 1,32,-1
 1057 536 l 1,33,-1
 1003 536 l 1,34,35
 1011 588 1011 588 1012 624 c 128,-1,36
 1013 660 1013 660 1007 676 c 1,37,38
 997 698 997 698 967.5 711 c 128,-1,39
 938 724 938 724 897 724 c 2,40,-1
 500 724 l 1,41,-1
 366 222 l 2,42,43
 357 188 357 188 356 164 c 128,-1,44
 355 140 355 140 366 125.5 c 128,-1,45
 377 111 377 111 399 104.5 c 128,-1,46
 421 98 421 98 456 98 c 2,47,-1
 823 98 l 2,48,49
 885 98 885 98 932.5 114.5 c 128,-1,50
 980 131 980 131 1019 165.5 c 128,-1,51
 1058 200 1058 200 1093.5 250.5 c 128,-1,52
 1129 301 1129 301 1167 367 c 1,53,-1
 1219 367 l 1,0,-1
EndSplineSet
Substitution2: "<17001,16003> Urdu lookup 129 subtable" E
EndChar

StartChar: F
Encoding: 70 70 41
Width: 1274
GlyphClass: 2
Flags: W
LayerCount: 2
Fore
SplineSet
1301 1201 m 1,0,-1
 1249 1201 l 1,1,2
 1263 1254 1263 1254 1261.5 1291 c 128,-1,3
 1260 1328 1260 1328 1244 1351.5 c 128,-1,4
 1228 1375 1228 1375 1195 1386 c 128,-1,5
 1162 1397 1162 1397 1111 1397 c 2,6,-1
 663 1397 l 1,7,-1
 516 848 l 1,8,-1
 983 848 l 2,9,10
 1105 848 1105 848 1155 1001 c 1,11,-1
 1207 1001 l 1,12,-1
 1091 568 l 1,13,-1
 1039 568 l 1,14,15
 1061 666 1061 666 1035 708 c 128,-1,16
 1009 750 1009 750 926 750 c 2,17,-1
 489 750 l 1,18,-1
 351 235 l 2,19,20
 337 180 337 180 339.5 146 c 128,-1,21
 342 112 342 112 361.5 92.5 c 128,-1,22
 381 73 381 73 419 65.5 c 128,-1,23
 457 58 457 58 512 58 c 1,24,-1
 497 0 l 1,25,-1
 -92 0 l 1,26,-1
 -77 58 l 1,27,28
 -18 62 -18 62 18 71.5 c 128,-1,29
 54 81 54 81 78.5 105.5 c 128,-1,30
 103 130 103 130 120 173.5 c 128,-1,31
 137 217 137 217 155 286 c 2,32,-1
 405 1217 l 2,33,34
 422 1281 422 1281 426.5 1324 c 128,-1,35
 431 1367 431 1367 418 1392 c 128,-1,36
 405 1417 405 1417 374 1427.5 c 128,-1,37
 343 1438 343 1438 288 1438 c 1,38,-1
 303 1494 l 1,39,-1
 1380 1494 l 1,40,-1
 1301 1201 l 1,0,-1
EndSplineSet
Substitution2: "<17001,16003> Urdu lookup 129 subtable" F
EndChar

StartChar: G
Encoding: 71 71 42
Width: 1777
GlyphClass: 2
Flags: W
LayerCount: 2
Fore
SplineSet
1677 594 m 1,0,1
 1507 582 1507 582 1472 449 c 2,2,-1
 1383 117 l 1,3,4
 1210 37 1210 37 1042 -1 c 128,-1,5
 874 -39 874 -39 696 -39 c 0,6,7
 585 -39 585 -39 493 -13 c 128,-1,8
 401 13 401 13 326 60 c 1,9,10
 249 115 249 115 195 190 c 128,-1,11
 141 265 141 265 119 361 c 1,12,13
 101 446 101 446 102.5 536 c 128,-1,14
 104 626 104 626 126 716 c 1,15,16
 169 875 169 875 259 1012 c 128,-1,17
 349 1149 349 1149 479 1265 c 1,18,19
 631 1397 631 1397 805 1463.5 c 128,-1,20
 979 1530 979 1530 1183 1530 c 0,21,22
 1226 1530 1226 1530 1275 1525 c 128,-1,23
 1324 1520 1324 1520 1374.5 1511.5 c 128,-1,24
 1425 1503 1425 1503 1476 1491 c 128,-1,25
 1527 1479 1527 1479 1576 1465 c 0,26,27
 1577 1465 1577 1465 1579 1464.5 c 128,-1,28
 1581 1464 1581 1464 1582 1464 c 0,29,30
 1603 1458 1603 1458 1618 1453.5 c 128,-1,31
 1633 1449 1633 1449 1636 1449 c 0,32,33
 1667 1449 1667 1449 1692 1465 c 1,34,-1
 1734 1465 l 1,35,-1
 1628 1069 l 1,36,-1
 1568 1069 l 1,37,38
 1590 1459 1590 1459 1191 1459 c 0,39,40
 1050 1459 1050 1459 920.5 1406 c 128,-1,41
 791 1353 791 1353 683 1257 c 128,-1,42
 575 1161 575 1161 493 1027.5 c 128,-1,43
 411 894 411 894 368 734 c 0,44,45
 322 563 322 563 338 434.5 c 128,-1,46
 354 306 354 306 427 207 c 1,47,48
 460 165 460 165 502 134 c 128,-1,49
 544 103 544 103 592 82.5 c 128,-1,50
 640 62 640 62 691 49.5 c 128,-1,51
 742 37 742 37 793 31 c 1,52,53
 835 32 835 32 882 39 c 128,-1,54
 929 46 929 46 978.5 58.5 c 128,-1,55
 1028 71 1028 71 1077.5 87 c 128,-1,56
 1127 103 1127 103 1174 123 c 1,57,-1
 1253 415 l 2,58,59
 1267 467 1267 467 1266 502 c 128,-1,60
 1265 537 1265 537 1249 557 c 128,-1,61
 1233 577 1233 577 1200.5 585.5 c 128,-1,62
 1168 594 1168 594 1117 594 c 2,63,-1
 1022 594 l 1,64,-1
 1036 648 l 1,65,-1
 1691 648 l 1,66,-1
 1677 594 l 1,0,1
EndSplineSet
Substitution2: "<17001,16003> Urdu lookup 129 subtable" G
EndChar

StartChar: H
Encoding: 72 72 43
Width: 1900
GlyphClass: 2
Flags: W
LayerCount: 2
Fore
SplineSet
1633 0 m 1,0,-1
 946 0 l 1,1,-1
 961 58 l 1,2,-1
 1041 58 l 2,3,4
 1096 58 1096 58 1133 68 c 128,-1,5
 1170 78 1170 78 1196.5 100 c 128,-1,6
 1223 122 1223 122 1239 154 c 128,-1,7
 1255 186 1255 186 1267 230 c 2,8,-1
 1395 707 l 1,9,-1
 475 707 l 1,10,-1
 355 261 l 2,11,12
 340 202 340 202 338.5 162.5 c 128,-1,13
 337 123 337 123 352 99.5 c 128,-1,14
 367 76 367 76 399 67 c 128,-1,15
 431 58 431 58 483 58 c 2,16,-1
 497 58 l 1,17,-1
 482 0 l 1,18,-1
 -128 0 l 1,19,-1
 -113 58 l 1,20,-1
 -92 58 l 2,21,22
 -36 58 -36 58 2 67.5 c 128,-1,23
 40 77 40 77 67 98.5 c 128,-1,24
 94 120 94 120 109.5 151 c 128,-1,25
 125 182 125 182 137 225 c 2,26,-1
 418 1273 l 2,27,28
 429 1316 429 1316 429.5 1345.5 c 128,-1,29
 430 1375 430 1375 414.5 1394.5 c 128,-1,30
 399 1414 399 1414 369 1424 c 128,-1,31
 339 1434 339 1434 289 1438 c 1,32,-1
 304 1494 l 1,33,-1
 882 1494 l 1,34,-1
 867 1438 l 1,35,36
 799 1438 799 1438 757 1425 c 128,-1,37
 715 1412 715 1412 687.5 1384.5 c 128,-1,38
 660 1357 660 1357 643.5 1315 c 128,-1,39
 627 1273 627 1273 611 1213 c 2,40,-1
 501 805 l 1,41,-1
 1421 805 l 1,42,-1
 1545 1268 l 2,43,44
 1558 1314 1558 1314 1558.5 1346 c 128,-1,45
 1559 1378 1559 1378 1543 1398 c 128,-1,46
 1527 1418 1527 1418 1495.5 1428 c 128,-1,47
 1464 1438 1464 1438 1411 1438 c 2,48,-1
 1361 1438 l 1,49,-1
 1376 1494 l 1,50,-1
 1998 1494 l 1,51,-1
 1983 1438 l 1,52,53
 1924 1435 1924 1435 1884 1422.5 c 128,-1,54
 1844 1410 1844 1410 1819.5 1387 c 128,-1,55
 1795 1364 1795 1364 1779 1329 c 128,-1,56
 1763 1294 1763 1294 1750 1246 c 2,57,-1
 1486 259 l 2,58,59
 1469 196 1469 196 1470 157 c 128,-1,60
 1471 118 1471 118 1488 95.5 c 128,-1,61
 1505 73 1505 73 1537 65.5 c 128,-1,62
 1569 58 1569 58 1616 58 c 2,63,-1
 1648 58 l 1,64,-1
 1633 0 l 1,0,-1
EndSplineSet
Substitution2: "<17001,16003> Urdu lookup 129 subtable" H
EndChar

StartChar: I
Encoding: 73 73 44
Width: 800
GlyphClass: 2
Flags: W
LayerCount: 2
Fore
SplineSet
497 0 m 1,0,-1
 -96 0 l 1,1,-1
 -81 58 l 1,2,3
 -25 61 -25 61 11.5 70 c 128,-1,4
 48 79 48 79 73.5 101 c 128,-1,5
 99 123 99 123 117 161 c 128,-1,6
 135 199 135 199 150 257 c 2,7,-1
 422 1271 l 2,8,9
 433 1313 433 1313 434 1343 c 128,-1,10
 435 1373 435 1373 420 1393.5 c 128,-1,11
 405 1414 405 1414 374 1424.5 c 128,-1,12
 343 1435 343 1435 289 1438 c 1,13,-1
 304 1494 l 1,14,-1
 897 1494 l 1,15,-1
 882 1438 l 1,16,17
 817 1438 817 1438 774.5 1426.5 c 128,-1,18
 732 1415 732 1415 703 1391.5 c 128,-1,19
 674 1368 674 1368 657 1332.5 c 128,-1,20
 640 1297 640 1297 627 1249 c 2,21,-1
 357 240 l 2,22,23
 342 184 342 184 343.5 149 c 128,-1,24
 345 114 345 114 364.5 93.5 c 128,-1,25
 384 73 384 73 421 65.5 c 128,-1,26
 458 58 458 58 512 58 c 1,27,-1
 497 0 l 1,0,-1
EndSplineSet
Substitution2: "<17001,16003> Urdu lookup 129 subtable" I
EndChar

StartChar: J
Encoding: 74 74 45
Width: 724
GlyphClass: 2
Flags: W
LayerCount: 2
Fore
SplineSet
841 1438 m 1,0,1
 785 1436 785 1436 746.5 1426.5 c 128,-1,2
 708 1417 708 1417 682 1397 c 128,-1,3
 656 1377 656 1377 639.5 1345.5 c 128,-1,4
 623 1314 623 1314 610 1268 c 2,5,-1
 338 251 l 2,6,7
 290 74 290 74 217.5 -74 c 128,-1,8
 145 -222 145 -222 52 -329 c 128,-1,9
 -41 -436 -41 -436 -149.5 -495.5 c 128,-1,10
 -258 -555 -258 -555 -377 -555 c 0,11,12
 -421 -555 -421 -555 -461 -545 c 128,-1,13
 -501 -535 -501 -535 -528 -517.5 c 128,-1,14
 -555 -500 -555 -500 -569.5 -475 c 128,-1,15
 -584 -450 -584 -450 -576 -418 c 0,16,17
 -572 -404 -572 -404 -560 -386 c 128,-1,18
 -548 -368 -548 -368 -532.5 -354.5 c 128,-1,19
 -517 -341 -517 -341 -498.5 -331.5 c 128,-1,20
 -480 -322 -480 -322 -460 -322 c 0,21,22
 -449 -322 -449 -322 -431.5 -330.5 c 128,-1,23
 -414 -339 -414 -339 -396 -351 c 128,-1,24
 -378 -363 -378 -363 -358 -377.5 c 128,-1,25
 -338 -392 -338 -392 -317.5 -404 c 128,-1,26
 -297 -416 -297 -416 -278.5 -424 c 128,-1,27
 -260 -432 -260 -432 -243 -432 c 0,28,29
 -51 -432 -51 -432 41 -89 c 2,30,-1
 383 1187 l 2,31,32
 406 1273 406 1273 408.5 1322.5 c 128,-1,33
 411 1372 411 1372 395.5 1397.5 c 128,-1,34
 380 1423 380 1423 345 1430.5 c 128,-1,35
 310 1438 310 1438 258 1438 c 2,36,-1
 229 1438 l 1,37,-1
 244 1494 l 1,38,-1
 856 1494 l 1,39,-1
 841 1438 l 1,0,1
EndSplineSet
Substitution2: "<17001,16003> Urdu lookup 129 subtable" J
EndChar

StartChar: K
Encoding: 75 75 46
AltUni2: 00212a.ffffffff.0
Width: 1677
GlyphClass: 2
Flags: W
LayerCount: 2
Fore
SplineSet
1479 0 m 1,0,-1
 769 0 l 1,1,-1
 784 58 l 1,2,3
 941 60 941 60 956 119 c 1,4,5
 974 183 974 183 758 473 c 1,6,7
 708 544 708 544 674 586 c 128,-1,8
 640 628 640 628 612 651 c 128,-1,9
 584 674 584 674 558 682 c 128,-1,10
 532 690 532 690 497 690 c 2,11,-1
 471 690 l 1,12,-1
 353 249 l 2,13,14
 338 194 338 194 337.5 157.5 c 128,-1,15
 337 121 337 121 352.5 98.5 c 128,-1,16
 368 76 368 76 401 67 c 128,-1,17
 434 58 434 58 487 58 c 2,18,-1
 525 58 l 1,19,-1
 510 0 l 1,20,-1
 -154 0 l 1,21,-1
 -139 58 l 1,22,-1
 -89 58 l 2,23,24
 -40 58 -40 58 -2.5 66 c 128,-1,25
 35 74 35 74 63 94 c 128,-1,26
 91 114 91 114 109 145.5 c 128,-1,27
 127 177 127 177 140 225 c 2,28,-1
 420 1271 l 2,29,30
 432 1316 432 1316 432 1347.5 c 128,-1,31
 432 1379 432 1379 415.5 1399 c 128,-1,32
 399 1419 399 1419 366 1428.5 c 128,-1,33
 333 1438 333 1438 281 1438 c 2,34,-1
 231 1438 l 1,35,-1
 246 1494 l 1,36,-1
 900 1494 l 1,37,-1
 885 1438 l 1,38,-1
 857 1438 l 2,39,40
 805 1438 805 1438 767 1428 c 128,-1,41
 729 1418 729 1418 701.5 1396.5 c 128,-1,42
 674 1375 674 1375 655 1339.5 c 128,-1,43
 636 1304 636 1304 622 1252 c 2,44,-1
 486 746 l 1,45,46
 548 757 548 757 625.5 794.5 c 128,-1,47
 703 832 703 832 785 898 c 0,48,49
 904 994 904 994 1000 1082 c 128,-1,50
 1096 1170 1096 1170 1168 1254 c 1,51,-1
 1167 1253 l 1,52,53
 1232 1332 1232 1332 1242 1368 c 0,54,55
 1261 1438 1261 1438 1096 1438 c 1,56,-1
 1111 1494 l 1,57,-1
 1747 1494 l 1,58,-1
 1732 1438 l 1,59,60
 1512 1437 1512 1437 1394 1340 c 0,61,62
 1382 1330 1382 1330 1359.5 1308.5 c 128,-1,63
 1337 1287 1337 1287 1307.5 1257 c 128,-1,64
 1278 1227 1278 1227 1243.5 1191.5 c 128,-1,65
 1209 1156 1209 1156 1174 1120 c 0,66,67
 1126 1071 1126 1071 1079.5 1026 c 128,-1,68
 1033 981 1033 981 985 939 c 128,-1,69
 937 897 937 897 885.5 859 c 128,-1,70
 834 821 834 821 778 787 c 1,71,72
 803 774 803 774 839.5 737.5 c 128,-1,73
 876 701 876 701 921 641 c 1,74,75
 974 568 974 568 1024.5 493 c 128,-1,76
 1075 418 1075 418 1124 334 c 1,77,-1
 1199 198 l 1,78,79
 1205 185 1205 185 1218 166 c 128,-1,80
 1231 147 1231 147 1245 124 c 1,81,82
 1257 107 1257 107 1279 94 c 128,-1,83
 1301 81 1301 81 1333 74.5 c 128,-1,84
 1365 68 1365 68 1405.5 64 c 128,-1,85
 1446 60 1446 60 1494 58 c 1,86,-1
 1479 0 l 1,0,-1
EndSplineSet
Substitution2: "<17001,16003> Urdu lookup 129 subtable" K
EndChar

StartChar: L
Encoding: 76 76 47
AltUni2: 00216c.ffffffff.0
Width: 1325
GlyphClass: 2
Flags: W
LayerCount: 2
Fore
SplineSet
1207 361 m 1,0,-1
 919 0 l 1,1,-1
 -153 0 l 1,2,-1
 -138 58 l 1,3,-1
 -54 58 l 2,4,5
 -12 58 -12 58 18 66 c 128,-1,6
 48 74 48 74 70 92 c 128,-1,7
 92 110 92 110 106.5 139 c 128,-1,8
 121 168 121 168 132 209 c 2,9,-1
 414 1262 l 2,10,11
 427 1313 427 1313 426.5 1346.5 c 128,-1,12
 426 1380 426 1380 410 1400 c 128,-1,13
 394 1420 394 1420 361.5 1429 c 128,-1,14
 329 1438 329 1438 280 1438 c 2,15,-1
 239 1438 l 1,16,-1
 254 1494 l 1,17,-1
 968 1494 l 1,18,-1
 953 1438 l 1,19,-1
 860 1438 l 2,20,21
 795 1438 795 1438 754.5 1429.5 c 128,-1,22
 714 1421 714 1421 690 1402.5 c 128,-1,23
 666 1384 666 1384 652.5 1353.5 c 128,-1,24
 639 1323 639 1323 627 1278 c 2,25,-1
 332 179 l 2,26,27
 311 98 311 98 399 98 c 2,28,-1
 752 98 l 2,29,30
 807 98 807 98 866.5 122.5 c 128,-1,31
 926 147 926 147 974 190 c 0,32,33
 1004 217 1004 217 1048 261.5 c 128,-1,34
 1092 306 1092 306 1150 361 c 1,35,-1
 1207 361 l 1,0,-1
EndSplineSet
Substitution2: "<17001,16003> Urdu lookup 129 subtable" L
EndChar

StartChar: M
Encoding: 77 77 48
AltUni2: 00216f.ffffffff.0
Width: 2201
GlyphClass: 2
Flags: W
LayerCount: 2
Fore
SplineSet
1949 0 m 1,0,-1
 1324 0 l 1,1,-1
 1339 58 l 1,2,3
 1447 58 1447 58 1509.5 92 c 128,-1,4
 1572 126 1572 126 1590 193 c 1,5,-1
 1594 206 l 2,6,7
 1597 217 1597 217 1606.5 262.5 c 128,-1,8
 1616 308 1616 308 1630.5 377 c 128,-1,9
 1645 446 1645 446 1662.5 531.5 c 128,-1,10
 1680 617 1680 617 1699 708.5 c 128,-1,11
 1718 800 1718 800 1736 890 c 128,-1,12
 1754 980 1754 980 1769.5 1055.5 c 128,-1,13
 1785 1131 1785 1131 1796 1187.5 c 128,-1,14
 1807 1244 1807 1244 1811 1268 c 1,15,16
 1791 1241 1791 1241 1744.5 1177 c 128,-1,17
 1698 1113 1698 1113 1634 1026 c 128,-1,18
 1570 939 1570 939 1494.5 836.5 c 128,-1,19
 1419 734 1419 734 1341 627.5 c 128,-1,20
 1263 521 1263 521 1188 419 c 128,-1,21
 1113 317 1113 317 1051 231.5 c 128,-1,22
 989 146 989 146 943.5 85.5 c 128,-1,23
 898 25 898 25 881 0 c 1,24,-1
 815 0 l 1,25,-1
 548 1252 l 1,26,27
 542 1233 542 1233 525.5 1183 c 128,-1,28
 509 1133 509 1133 486.5 1064 c 128,-1,29
 464 995 464 995 436 911 c 128,-1,30
 408 827 408 827 379 740 c 128,-1,31
 350 653 350 653 323 567.5 c 128,-1,32
 296 482 296 482 272.5 409.5 c 128,-1,33
 249 337 249 337 231.5 282.5 c 128,-1,34
 214 228 214 228 205 204 c 1,35,36
 191 143 191 143 228 102.5 c 128,-1,37
 265 62 265 62 357 58 c 1,38,-1
 342 0 l 1,39,-1
 -166 0 l 1,40,-1
 -151 58 l 1,41,42
 -71 58 -71 58 -20 80 c 128,-1,43
 31 102 31 102 58 142 c 1,44,45
 71 168 71 168 87 210 c 128,-1,46
 103 252 103 252 122 307 c 2,47,-1
 427 1232 l 2,48,49
 429 1237 429 1237 430 1239.5 c 128,-1,50
 431 1242 431 1242 432 1243 c 0,51,52
 448 1306 448 1306 453 1343.5 c 128,-1,53
 458 1381 458 1381 447.5 1401 c 128,-1,54
 437 1421 437 1421 410.5 1428 c 128,-1,55
 384 1435 384 1435 340 1438 c 1,56,-1
 354 1490 l 1,57,-1
 723 1490 l 1,58,-1
 975 299 l 1,59,60
 979 305 979 305 1005.5 340.5 c 128,-1,61
 1032 376 1032 376 1076 435 c 128,-1,62
 1120 494 1120 494 1177 570 c 128,-1,63
 1234 646 1234 646 1296.5 730 c 128,-1,64
 1359 814 1359 814 1424.5 903 c 128,-1,65
 1490 992 1490 992 1552.5 1075.5 c 128,-1,66
 1615 1159 1615 1159 1670.5 1233.5 c 128,-1,67
 1726 1308 1726 1308 1768 1364.5 c 128,-1,68
 1810 1421 1810 1421 1834.5 1454.5 c 128,-1,69
 1859 1488 1859 1488 1861 1490 c 1,70,-1
 2223 1490 l 1,71,-1
 2209 1438 l 1,72,-1
 2124 1430 l 1,73,74
 2084 1421 2084 1421 2059 1398.5 c 128,-1,75
 2034 1376 2034 1376 2025 1349 c 1,76,77
 2017 1309 2017 1309 2003.5 1240 c 128,-1,78
 1990 1171 1990 1171 1973 1084.5 c 128,-1,79
 1956 998 1956 998 1936.5 900.5 c 128,-1,80
 1917 803 1917 803 1898 705.5 c 128,-1,81
 1879 608 1879 608 1862 517 c 128,-1,82
 1845 426 1845 426 1831 353.5 c 128,-1,83
 1817 281 1817 281 1807.5 232.5 c 128,-1,84
 1798 184 1798 184 1796 171 c 0,85,86
 1793 140 1793 140 1796.5 118.5 c 128,-1,87
 1800 97 1800 97 1808 83 c 1,88,89
 1817 71 1817 71 1856.5 65 c 128,-1,90
 1896 59 1896 59 1964 58 c 1,91,-1
 1949 0 l 1,0,-1
EndSplineSet
Substitution2: "<17001,16003> Urdu lookup 129 subtable" M
EndChar

StartChar: N
Encoding: 78 78 49
Width: 1951
GlyphClass: 2
Flags: W
LayerCount: 2
Fore
SplineSet
2095 1438 m 1,0,1
 2031 1438 2031 1438 1987 1432 c 128,-1,2
 1943 1426 1943 1426 1914 1412.5 c 128,-1,3
 1885 1399 1885 1399 1869.5 1375.5 c 128,-1,4
 1854 1352 1854 1352 1845 1318 c 2,5,-1
 1487 -16 l 1,6,-1
 1417 -16 l 1,7,-1
 537 1266 l 1,8,-1
 267 259 l 2,9,10
 246 180 246 180 255 134.5 c 128,-1,11
 264 89 264 89 297 73 c 1,12,13
 321 65 321 65 360 62 c 128,-1,14
 399 59 399 59 451 58 c 1,15,-1
 436 0 l 1,16,-1
 -128 0 l 1,17,-1
 -113 58 l 1,18,-1
 -98 58 l 2,19,20
 94 58 94 58 136 213 c 2,21,-1
 448 1379 l 1,22,23
 414 1403 414 1403 364.5 1419.5 c 128,-1,24
 315 1436 315 1436 260 1438 c 1,25,-1
 275 1494 l 1,26,-1
 662 1494 l 1,27,-1
 1463 332 l 1,28,-1
 1713 1265 l 2,29,30
 1728 1321 1728 1321 1723.5 1354.5 c 128,-1,31
 1719 1388 1719 1388 1696.5 1406 c 128,-1,32
 1674 1424 1674 1424 1631.5 1430.5 c 128,-1,33
 1589 1437 1589 1437 1527 1438 c 1,34,-1
 1542 1494 l 1,35,-1
 2110 1494 l 1,36,-1
 2095 1438 l 1,0,1
EndSplineSet
Substitution2: "<17001,16003> Urdu lookup 129 subtable" N
EndChar

StartChar: O
Encoding: 79 79 50
Width: 1976
GlyphClass: 2
Flags: W
LayerCount: 2
Fore
SplineSet
1601 708 m 0,0,1
 1645 871 1645 871 1632.5 1009 c 128,-1,2
 1620 1147 1620 1147 1557 1247 c 128,-1,3
 1494 1347 1494 1347 1386.5 1403 c 128,-1,4
 1279 1459 1279 1459 1133 1459 c 0,5,6
 848 1459 848 1459 634 1234 c 0,7,8
 539 1135 539 1135 473 1026 c 128,-1,9
 407 917 407 917 373 788 c 0,10,11
 320 590 320 590 357 409 c 0,12,13
 375 320 375 320 419.5 251.5 c 128,-1,14
 464 183 464 183 534 130 c 0,15,16
 602 78 602 78 681 55.5 c 128,-1,17
 760 33 760 33 853 31 c 1,18,19
 976 31 976 31 1093 80.5 c 128,-1,20
 1210 130 1210 130 1310 220 c 128,-1,21
 1410 310 1410 310 1485.5 434 c 128,-1,22
 1561 558 1561 558 1601 708 c 0,0,1
1860 788 m 0,23,24
 1811 606 1811 606 1709 461 c 128,-1,25
 1607 316 1607 316 1450 194 c 1,26,27
 1292 80 1292 80 1128 20.5 c 128,-1,28
 964 -39 964 -39 783 -39 c 0,29,30
 670 -39 670 -39 570 -16 c 128,-1,31
 470 7 470 7 389 50 c 0,32,33
 299 97 299 97 234 166.5 c 128,-1,34
 169 236 169 236 131 323 c 1,35,36
 96 409 96 409 92.5 505.5 c 128,-1,37
 89 602 89 602 116 712 c 1,38,39
 179 947 179 947 341 1135 c 0,40,41
 418 1225 418 1225 522 1298 c 128,-1,42
 626 1371 626 1371 740 1426 c 0,43,44
 853 1481 853 1481 970.5 1504.5 c 128,-1,45
 1088 1528 1088 1528 1215 1530 c 1,46,47
 1328 1530 1328 1530 1427.5 1504.5 c 128,-1,48
 1527 1479 1527 1479 1608 1432 c 128,-1,49
 1689 1385 1689 1385 1749 1318.5 c 128,-1,50
 1809 1252 1809 1252 1843.5 1169.5 c 128,-1,51
 1878 1087 1878 1087 1883 990.5 c 128,-1,52
 1888 894 1888 894 1860 788 c 0,23,24
EndSplineSet
Substitution2: "<17001,16003> Urdu lookup 129 subtable" O
EndChar

StartChar: P
Encoding: 80 80 51
Width: 1352
GlyphClass: 2
Flags: W
LayerCount: 2
Fore
SplineSet
1126 1096 m 0,0,1
 1223 1459 1223 1459 836 1459 c 0,2,3
 787 1459 787 1459 745.5 1456.5 c 128,-1,4
 704 1454 704 1454 675 1449 c 1,5,-1
 474 701 l 1,6,7
 510 694 510 694 540.5 689 c 128,-1,8
 571 684 571 684 593 684 c 0,9,10
 684 684 684 684 769 712 c 128,-1,11
 854 740 854 740 924 793 c 128,-1,12
 994 846 994 846 1047 922.5 c 128,-1,13
 1100 999 1100 999 1126 1096 c 0,0,1
1357 1089 m 0,14,15
 1329 982 1329 982 1264 896 c 128,-1,16
 1199 810 1199 810 1107 750.5 c 128,-1,17
 1015 691 1015 691 899 659 c 128,-1,18
 783 627 783 627 653 627 c 0,19,20
 600 627 600 627 552 631.5 c 128,-1,21
 504 636 504 636 459 644 c 1,22,-1
 349 235 l 2,23,24
 336 184 336 184 336.5 150.5 c 128,-1,25
 337 117 337 117 353 95.5 c 128,-1,26
 369 74 369 74 402 66 c 128,-1,27
 435 58 435 58 486 58 c 2,28,-1
 572 58 l 1,29,-1
 557 0 l 1,30,-1
 -114 0 l 1,31,-1
 -99 58 l 1,32,-1
 -62 58 l 2,33,34
 -14 58 -14 58 17.5 65 c 128,-1,35
 49 72 49 72 70.5 87 c 128,-1,36
 92 102 92 102 104.5 127 c 128,-1,37
 117 152 117 152 127 189 c 2,38,-1
 429 1316 l 2,39,40
 462 1438 462 1438 357 1438 c 2,41,-1
 232 1438 l 1,42,-1
 247 1494 l 1,43,44
 270 1495 270 1495 318.5 1497.5 c 128,-1,45
 367 1500 367 1500 428.5 1502.5 c 128,-1,46
 490 1505 490 1505 557.5 1507 c 128,-1,47
 625 1509 625 1509 685.5 1511 c 128,-1,48
 746 1513 746 1513 791 1513.5 c 128,-1,49
 836 1514 836 1514 854 1514 c 0,50,51
 1007 1514 1007 1514 1114.5 1484 c 128,-1,52
 1222 1454 1222 1454 1284.5 1398.5 c 128,-1,53
 1347 1343 1347 1343 1365 1264.5 c 128,-1,54
 1383 1186 1383 1186 1357 1089 c 0,14,15
EndSplineSet
Substitution2: "<17001,16003> Urdu lookup 129 subtable" P
EndChar

StartChar: Q
Encoding: 81 81 52
Width: 1976
GlyphClass: 2
Flags: W
LayerCount: 2
Fore
SplineSet
1601 708 m 0,0,1
 1645 872 1645 872 1632.5 1010 c 128,-1,2
 1620 1148 1620 1148 1557.5 1248 c 128,-1,3
 1495 1348 1495 1348 1387 1403.5 c 128,-1,4
 1279 1459 1279 1459 1133 1459 c 0,5,6
 854 1459 854 1459 634 1234 c 0,7,8
 538 1136 538 1136 475 1027.5 c 128,-1,9
 412 919 412 919 373 788 c 1,10,11
 318 583 318 583 357 410 c 0,12,13
 367 369 367 369 385 330.5 c 128,-1,14
 403 292 403 292 427 256 c 0,15,16
 451 219 451 219 478.5 188 c 128,-1,17
 506 157 506 157 536 131 c 1,18,19
 602 88 602 88 684 61 c 128,-1,20
 766 34 766 34 854 34 c 0,21,22
 977 34 977 34 1093.5 83 c 128,-1,23
 1210 132 1210 132 1310 221.5 c 128,-1,24
 1410 311 1410 311 1485.5 434.5 c 128,-1,25
 1561 558 1561 558 1601 708 c 0,0,1
1554 -480 m 1,26,27
 1500 -496 1500 -496 1434 -496 c 0,28,29
 1350 -496 1350 -496 1268.5 -467 c 128,-1,30
 1187 -438 1187 -438 1116 -386 c 1,31,-1
 1117 -386 l 1,32,33
 1099 -373 1099 -373 1042.5 -316 c 128,-1,34
 986 -259 986 -259 883 -161 c 0,35,36
 839 -120 839 -120 795.5 -87.5 c 128,-1,37
 752 -55 752 -55 711 -37 c 1,38,39
 665 -31 665 -31 615.5 -21 c 128,-1,40
 566 -11 566 -11 518 4 c 128,-1,41
 470 19 470 19 426 36 c 128,-1,42
 382 53 382 53 349 73 c 0,43,44
 269 123 269 123 210.5 195 c 128,-1,45
 152 267 152 267 122 349 c 0,46,47
 92 430 92 430 94 525 c 128,-1,48
 96 620 96 620 119 722 c 1,49,50
 150 839 150 839 205.5 939.5 c 128,-1,51
 261 1040 261 1040 345 1136 c 0,52,53
 426 1228 426 1228 527 1298.5 c 128,-1,54
 628 1369 628 1369 739 1423 c 1,55,56
 853 1480 853 1480 966.5 1505 c 128,-1,57
 1080 1530 1080 1530 1205 1530 c 0,58,59
 1323 1530 1323 1530 1425.5 1504.5 c 128,-1,60
 1528 1479 1528 1479 1610.5 1432 c 128,-1,61
 1693 1385 1693 1385 1752 1317.5 c 128,-1,62
 1811 1250 1811 1250 1845 1167 c 128,-1,63
 1879 1084 1879 1084 1883 986.5 c 128,-1,64
 1887 889 1887 889 1858 781 c 0,65,66
 1833 687 1833 687 1787.5 599 c 128,-1,67
 1742 511 1742 511 1682 431.5 c 128,-1,68
 1622 352 1622 352 1546.5 281.5 c 128,-1,69
 1471 211 1471 211 1384 150 c 0,70,71
 1303 94 1303 94 1211 55.5 c 128,-1,72
 1119 17 1119 17 1021 -14 c 1,73,74
 1069 -38 1069 -38 1136.5 -96 c 128,-1,75
 1204 -154 1204 -154 1281 -238 c 1,76,77
 1362 -328 1362 -328 1446.5 -371.5 c 128,-1,78
 1531 -415 1531 -415 1615 -419 c 1,79,-1
 1554 -480 l 1,26,27
EndSplineSet
Substitution2: "<17001,16003> Urdu lookup 129 subtable" Q
EndChar

StartChar: R
Encoding: 82 82 53
Width: 1925
GlyphClass: 2
Flags: W
LayerCount: 2
Fore
SplineSet
1703 -25 m 1,0,1
 1677 -28 1677 -28 1650.5 -29 c 128,-1,2
 1624 -30 1624 -30 1595 -30 c 0,3,4
 1491 -30 1491 -30 1408.5 -14.5 c 128,-1,5
 1326 1 1326 1 1269 26 c 0,6,7
 1244 38 1244 38 1215 61.5 c 128,-1,8
 1186 85 1186 85 1155.5 116.5 c 128,-1,9
 1125 148 1125 148 1094 184.5 c 128,-1,10
 1063 221 1063 221 1032 260 c 1,11,12
 936 392 936 392 862.5 485 c 128,-1,13
 789 578 789 578 728 627 c 1,14,15
 672 625 672 625 629 624 c 128,-1,16
 586 623 586 623 567 623 c 0,17,18
 546 623 546 623 519.5 624 c 128,-1,19
 493 625 493 625 456 627 c 1,20,-1
 349 230 l 2,21,22
 336 181 336 181 338 148.5 c 128,-1,23
 340 116 340 116 356 95 c 128,-1,24
 372 74 372 74 404.5 66 c 128,-1,25
 437 58 437 58 485 58 c 2,26,-1
 546 58 l 1,27,-1
 531 0 l 1,28,-1
 -154 0 l 1,29,-1
 -139 58 l 1,30,-1
 -92 58 l 2,31,32
 -37 58 -37 58 1 67 c 128,-1,33
 39 76 39 76 67 98.5 c 128,-1,34
 95 121 95 121 112.5 157.5 c 128,-1,35
 130 194 130 194 145 249 c 2,36,-1
 413 1250 l 2,37,38
 427 1302 427 1302 429 1337.5 c 128,-1,39
 431 1373 431 1373 416 1395.5 c 128,-1,40
 401 1418 401 1418 371 1428 c 128,-1,41
 341 1438 341 1438 290 1438 c 2,42,-1
 231 1438 l 1,43,-1
 246 1494 l 1,44,45
 250 1494 250 1494 270 1494.5 c 128,-1,46
 290 1495 290 1495 320 1496 c 128,-1,47
 350 1497 350 1497 385.5 1499 c 128,-1,48
 421 1501 421 1501 453.5 1502.5 c 128,-1,49
 486 1504 486 1504 514 1505.5 c 128,-1,50
 542 1507 542 1507 557 1508 c 0,51,52
 635 1513 635 1513 709.5 1513 c 128,-1,53
 784 1513 784 1513 857 1514 c 1,54,55
 1014 1514 1014 1514 1127.5 1485 c 128,-1,56
 1241 1456 1241 1456 1308 1401 c 128,-1,57
 1375 1346 1375 1346 1396 1266.5 c 128,-1,58
 1417 1187 1417 1187 1390 1087 c 0,59,60
 1371 1018 1371 1018 1333 957 c 128,-1,61
 1295 896 1295 896 1241.5 845.5 c 128,-1,62
 1188 795 1188 795 1119.5 757 c 128,-1,63
 1051 719 1051 719 973 697 c 1,64,65
 995 676 995 676 1020.5 646.5 c 128,-1,66
 1046 617 1046 617 1074.5 583 c 128,-1,67
 1103 549 1103 549 1131.5 511 c 128,-1,68
 1160 473 1160 473 1188 436 c 2,69,-1
 1296 288 l 2,70,71
 1357 205 1357 205 1419.5 150.5 c 128,-1,72
 1482 96 1482 96 1551 65 c 1,73,74
 1584 49 1584 49 1626.5 41 c 128,-1,75
 1669 33 1669 33 1716 26 c 1,76,-1
 1703 -25 l 1,0,1
1149 1072 m 0,77,78
 1201 1266 1201 1266 1114 1362.5 c 128,-1,79
 1027 1459 1027 1459 789 1459 c 0,80,81
 757 1459 757 1459 728 1458 c 128,-1,82
 699 1457 699 1457 677 1455 c 1,83,-1
 471 683 l 1,84,85
 490 679 490 679 526 678 c 128,-1,86
 562 677 562 677 609 677 c 0,87,88
 1043 677 1043 677 1149 1072 c 0,77,78
EndSplineSet
Substitution2: "<17001,16003> Urdu lookup 129 subtable" R
EndChar

StartChar: S
Encoding: 83 83 54
Width: 1177
GlyphClass: 2
Flags: W
LayerCount: 2
Fore
SplineSet
969 375 m 0,0,1
 944 283 944 283 885.5 206.5 c 128,-1,2
 827 130 827 130 746 76 c 128,-1,3
 665 22 665 22 568 -8.5 c 128,-1,4
 471 -39 471 -39 368 -39 c 0,5,6
 327 -39 327 -39 264.5 -26.5 c 128,-1,7
 202 -14 202 -14 131 7 c 0,8,9
 71 25 71 25 51 25 c 0,10,11
 26 25 26 25 1 0 c 1,12,-1
 -44 0 l 1,13,-1
 5 374 l 1,14,-1
 63 374 l 1,15,16
 59 299 59 299 79.5 236 c 128,-1,17
 100 173 100 173 140 129 c 128,-1,18
 180 85 180 85 237.5 61 c 128,-1,19
 295 37 295 37 367 37 c 0,20,21
 434 37 434 37 499 57.5 c 128,-1,22
 564 78 564 78 617.5 115.5 c 128,-1,23
 671 153 671 153 710.5 204 c 128,-1,24
 750 255 750 255 766 314 c 0,25,26
 781 371 781 371 760 430 c 128,-1,27
 739 489 739 489 691 547 c 1,28,29
 672 568 672 568 623 609 c 128,-1,30
 574 650 574 650 495 708 c 1,31,32
 458 737 458 737 426.5 765 c 128,-1,33
 395 793 395 793 369 818 c 128,-1,34
 343 843 343 843 322.5 864 c 128,-1,35
 302 885 302 885 285 899 c 1,36,37
 257 925 257 925 244 960.5 c 128,-1,38
 231 996 231 996 227 1034.5 c 128,-1,39
 223 1073 223 1073 226.5 1111.5 c 128,-1,40
 230 1150 230 1150 233 1180 c 1,41,42
 251 1248 251 1248 297 1310.5 c 128,-1,43
 343 1373 343 1373 413 1422 c 128,-1,44
 483 1471 483 1471 570 1500.5 c 128,-1,45
 657 1530 657 1530 754 1530 c 0,46,47
 814 1530 814 1530 872.5 1519 c 128,-1,48
 931 1508 931 1508 986 1487 c 0,49,50
 1009 1478 1009 1478 1030 1474 c 128,-1,51
 1051 1470 1051 1470 1062 1470 c 0,52,53
 1085 1470 1085 1470 1110 1494 c 1,54,-1
 1157 1494 l 1,55,-1
 1111 1182 l 1,56,-1
 1064 1182 l 1,57,58
 1056 1245 1056 1245 1030 1296.5 c 128,-1,59
 1004 1348 1004 1348 964 1384 c 128,-1,60
 924 1420 924 1420 871.5 1440.5 c 128,-1,61
 819 1461 819 1461 757 1461 c 0,62,63
 701 1461 701 1461 648.5 1445.5 c 128,-1,64
 596 1430 596 1430 553 1401 c 128,-1,65
 510 1372 510 1372 480 1332 c 128,-1,66
 450 1292 450 1292 436 1242 c 0,67,68
 406 1129 406 1129 512 1016 c 0,69,70
 525 1002 525 1002 574.5 962 c 128,-1,71
 624 922 624 922 706 861 c 1,72,73
 741 837 741 837 773 810 c 128,-1,74
 805 783 805 783 832.5 757 c 128,-1,75
 860 731 860 731 882.5 707 c 128,-1,76
 905 683 905 683 917 664 c 1,77,78
 966 596 966 596 978 524 c 128,-1,79
 990 452 990 452 969 375 c 0,0,1
EndSplineSet
Substitution2: "<17001,16003> Urdu lookup 129 subtable" S
EndChar

StartChar: T
Encoding: 84 84 55
Width: 1625
GlyphClass: 2
Flags: W
LayerCount: 2
Fore
SplineSet
1650 1133 m 1,0,-1
 1598 1133 l 1,1,2
 1606 1210 1606 1210 1604 1260.5 c 128,-1,3
 1602 1311 1602 1311 1590 1341 c 128,-1,4
 1578 1371 1578 1371 1556 1384 c 128,-1,5
 1534 1397 1534 1397 1500 1397 c 2,6,-1
 1092 1397 l 1,7,-1
 778 225 l 2,8,9
 765 179 765 179 766 148 c 128,-1,10
 767 117 767 117 782.5 96 c 128,-1,11
 798 75 798 75 831 66.5 c 128,-1,12
 864 58 864 58 917 58 c 2,13,-1
 1010 58 l 1,14,-1
 995 0 l 1,15,-1
 230 0 l 1,16,-1
 245 58 l 1,17,-1
 338 58 l 2,18,19
 390 58 390 58 428 66.5 c 128,-1,20
 466 75 466 75 493 95.5 c 128,-1,21
 520 116 520 116 537 147.5 c 128,-1,22
 554 179 554 179 567 225 c 2,23,-1
 881 1397 l 1,24,-1
 474 1397 l 2,25,26
 433 1397 433 1397 396 1373.5 c 128,-1,27
 359 1350 359 1350 322 1306 c 1,28,29
 292 1268 292 1268 233 1133 c 1,30,-1
 178 1133 l 1,31,-1
 325 1530 l 1,32,-1
 380 1530 l 1,33,34
 376 1494 376 1494 440 1494 c 2,35,-1
 1586 1494 l 2,36,37
 1648 1494 1648 1494 1662 1530 c 1,38,-1
 1719 1530 l 1,39,-1
 1650 1133 l 1,0,-1
EndSplineSet
Substitution2: "<17001,16003> Urdu lookup 129 subtable" T
EndChar

StartChar: U
Encoding: 85 85 56
Width: 1900
GlyphClass: 2
Flags: W
LayerCount: 2
Fore
SplineSet
2057 1438 m 1,0,1
 1998 1437 1998 1437 1953 1424.5 c 128,-1,2
 1908 1412 1908 1412 1875 1386 c 128,-1,3
 1842 1360 1842 1360 1819 1319.5 c 128,-1,4
 1796 1279 1796 1279 1781 1223 c 2,5,-1
 1609 580 l 2,6,7
 1581 475 1581 475 1533.5 390.5 c 128,-1,8
 1486 306 1486 306 1414 229 c 1,9,10
 1346 158 1346 158 1258 103 c 128,-1,11
 1170 48 1170 48 1074 14 c 1,12,13
 997 -12 997 -12 911 -25.5 c 128,-1,14
 825 -39 825 -39 732 -39 c 0,15,16
 573 -39 573 -39 455.5 4.5 c 128,-1,17
 338 48 338 48 269.5 128 c 128,-1,18
 201 208 201 208 182.5 319.5 c 128,-1,19
 164 431 164 431 200 567 c 2,20,-1
 387 1262 l 2,21,22
 402 1320 402 1320 400.5 1354.5 c 128,-1,23
 399 1389 399 1389 379.5 1407 c 128,-1,24
 360 1425 360 1425 323 1431 c 128,-1,25
 286 1437 286 1437 229 1438 c 1,26,-1
 244 1494 l 1,27,-1
 865 1494 l 1,28,-1
 850 1438 l 1,29,-1
 825 1438 l 2,30,31
 776 1438 776 1438 739 1429.5 c 128,-1,32
 702 1421 702 1421 675.5 1401.5 c 128,-1,33
 649 1382 649 1382 630 1349.5 c 128,-1,34
 611 1317 611 1317 598 1268 c 2,35,-1
 421 606 l 2,36,37
 388 485 388 485 400 391 c 128,-1,38
 412 297 412 297 463.5 232 c 128,-1,39
 515 167 515 167 606 132.5 c 128,-1,40
 697 98 697 98 822 98 c 0,41,42
 1359 98 1359 98 1496 609 c 2,43,-1
 1645 1165 l 2,44,45
 1671 1264 1671 1264 1667 1326.5 c 128,-1,46
 1663 1389 1663 1389 1635 1411 c 1,47,48
 1614 1420 1614 1420 1575.5 1428 c 128,-1,49
 1537 1436 1537 1436 1486 1438 c 1,50,-1
 1501 1494 l 1,51,-1
 2072 1494 l 1,52,-1
 2057 1438 l 1,0,1
EndSplineSet
Substitution2: "<17001,16003> Urdu lookup 129 subtable" U
EndChar

StartChar: V
Encoding: 86 86 57
Width: 1651
GlyphClass: 2
Flags: W
LayerCount: 2
Fore
SplineSet
1813 1438 m 1,0,1
 1766 1438 1766 1438 1726 1427 c 128,-1,2
 1686 1416 1686 1416 1650 1391.5 c 128,-1,3
 1614 1367 1614 1367 1580.5 1329 c 128,-1,4
 1547 1291 1547 1291 1514 1236 c 1,5,-1
 679 -39 l 1,6,-1
 549 -39 l 1,7,-1
 379 1254 l 2,8,9
 371 1322 371 1322 358.5 1359 c 128,-1,10
 346 1396 346 1396 326 1413 c 128,-1,11
 306 1430 306 1430 274.5 1433.5 c 128,-1,12
 243 1437 243 1437 194 1438 c 1,13,-1
 209 1494 l 1,14,-1
 876 1494 l 1,15,-1
 861 1438 l 1,16,17
 795 1438 795 1438 746.5 1431 c 128,-1,18
 698 1424 698 1424 666 1411 c 128,-1,19
 634 1398 634 1398 616 1380 c 128,-1,20
 598 1362 598 1362 592 1338 c 0,21,22
 589 1327 589 1327 589.5 1310.5 c 128,-1,23
 590 1294 590 1294 592 1279 c 0,24,25
 625 1015 625 1015 662.5 753.5 c 128,-1,26
 700 492 700 492 735 228 c 1,27,28
 742 239 742 239 771 285 c 128,-1,29
 800 331 800 331 844.5 399 c 128,-1,30
 889 467 889 467 944 551 c 128,-1,31
 999 635 999 635 1054.5 721.5 c 128,-1,32
 1110 808 1110 808 1163.5 891 c 128,-1,33
 1217 974 1217 974 1260.5 1039.5 c 128,-1,34
 1304 1105 1304 1105 1331.5 1147.5 c 128,-1,35
 1359 1190 1359 1190 1363 1196 c 0,36,37
 1395 1245 1395 1245 1416.5 1283.5 c 128,-1,38
 1438 1322 1438 1322 1443 1342 c 0,39,40
 1456 1391 1456 1391 1409 1414.5 c 128,-1,41
 1362 1438 1362 1438 1248 1438 c 1,42,-1
 1263 1494 l 1,43,-1
 1828 1494 l 1,44,-1
 1813 1438 l 1,0,1
EndSplineSet
Substitution2: "<17001,16003> Urdu lookup 129 subtable" V
EndChar

StartChar: W
Encoding: 87 87 58
Width: 2401
GlyphClass: 2
Flags: W
LayerCount: 2
Fore
SplineSet
2567 1438 m 1,0,1
 2508 1438 2508 1438 2465.5 1426.5 c 128,-1,2
 2423 1415 2423 1415 2389.5 1389.5 c 128,-1,3
 2356 1364 2356 1364 2326 1323 c 128,-1,4
 2296 1282 2296 1282 2259 1224 c 1,5,6
 2257 1217 2257 1217 2231 1179 c 128,-1,7
 2205 1141 2205 1141 2166 1080 c 128,-1,8
 2127 1019 2127 1019 2075 940 c 128,-1,9
 2023 861 2023 861 1966.5 773.5 c 128,-1,10
 1910 686 1910 686 1849.5 593.5 c 128,-1,11
 1789 501 1789 501 1732 412.5 c 128,-1,12
 1675 324 1675 324 1623.5 245.5 c 128,-1,13
 1572 167 1572 167 1532 105.5 c 128,-1,14
 1492 44 1492 44 1467.5 6 c 128,-1,15
 1443 -32 1443 -32 1438 -39 c 1,16,-1
 1318 -39 l 1,17,-1
 1204 690 l 1,18,19
 1194 675 1194 675 1170.5 640 c 128,-1,20
 1147 605 1147 605 1115 556.5 c 128,-1,21
 1083 508 1083 508 1043.5 450.5 c 128,-1,22
 1004 393 1004 393 963 332 c 128,-1,23
 922 271 922 271 882.5 213 c 128,-1,24
 843 155 843 155 808.5 105 c 128,-1,25
 774 55 774 55 749 16.5 c 128,-1,26
 724 -22 724 -22 711 -39 c 1,27,-1
 586 -39 l 1,28,-1
 430 1234 l 1,29,30
 421 1292 421 1292 407.5 1331 c 128,-1,31
 394 1370 394 1370 369.5 1393.5 c 128,-1,32
 345 1417 345 1417 305.5 1427.5 c 128,-1,33
 266 1438 266 1438 208 1438 c 2,34,-1
 190 1438 l 1,35,-1
 205 1494 l 1,36,-1
 834 1494 l 1,37,-1
 819 1438 l 1,38,-1
 773 1438 l 2,39,40
 712 1438 712 1438 675 1418.5 c 128,-1,41
 638 1399 638 1399 628 1359 c 0,42,43
 624 1346 624 1346 623 1328.5 c 128,-1,44
 622 1311 622 1311 624 1294 c 0,45,46
 626 1279 626 1279 632.5 1230 c 128,-1,47
 639 1181 639 1181 648 1110.5 c 128,-1,48
 657 1040 657 1040 669 953 c 128,-1,49
 681 866 681 866 692.5 775 c 128,-1,50
 704 684 704 684 716 594.5 c 128,-1,51
 728 505 728 505 737 429.5 c 128,-1,52
 746 354 746 354 753 297.5 c 128,-1,53
 760 241 760 241 764 217 c 1,54,55
 771 228 771 228 791.5 258 c 128,-1,56
 812 288 812 288 839.5 329.5 c 128,-1,57
 867 371 867 371 900 420.5 c 128,-1,58
 933 470 933 470 968.5 522 c 128,-1,59
 1004 574 1004 574 1038 624.5 c 128,-1,60
 1072 675 1072 675 1101 717.5 c 128,-1,61
 1130 760 1130 760 1151 792 c 128,-1,62
 1172 824 1172 824 1182 839 c 1,63,64
 1181 846 1181 846 1176 882 c 128,-1,65
 1171 918 1171 918 1164 968.5 c 128,-1,66
 1157 1019 1157 1019 1148 1076 c 128,-1,67
 1139 1133 1139 1133 1132.5 1182.5 c 128,-1,68
 1126 1232 1126 1232 1120.5 1266 c 128,-1,69
 1115 1300 1115 1300 1114 1304 c 0,70,71
 1108 1341 1108 1341 1093.5 1366 c 128,-1,72
 1079 1391 1079 1391 1055.5 1407 c 128,-1,73
 1032 1423 1032 1423 995.5 1430.5 c 128,-1,74
 959 1438 959 1438 906 1438 c 1,75,-1
 921 1494 l 1,76,-1
 1907 1494 l 1,77,-1
 1892 1438 l 1,78,79
 1842 1438 1842 1438 1802.5 1430 c 128,-1,80
 1763 1422 1763 1422 1731 1407 c 128,-1,81
 1699 1392 1699 1392 1673.5 1369 c 128,-1,82
 1648 1346 1648 1346 1625 1315 c 0,83,84
 1620 1309 1620 1309 1600.5 1280.5 c 128,-1,85
 1581 1252 1581 1252 1554 1213.5 c 128,-1,86
 1527 1175 1527 1175 1496.5 1130 c 128,-1,87
 1466 1085 1466 1085 1439.5 1045.5 c 128,-1,88
 1413 1006 1413 1006 1394 978 c 128,-1,89
 1375 950 1375 950 1371 943 c 1,90,-1
 1372 944 l 1,91,92
 1374 929 1374 929 1380 893 c 128,-1,93
 1386 857 1386 857 1393.5 808.5 c 128,-1,94
 1401 760 1401 760 1410 702 c 128,-1,95
 1419 644 1419 644 1428.5 583.5 c 128,-1,96
 1438 523 1438 523 1447 465.5 c 128,-1,97
 1456 408 1456 408 1463.5 358.5 c 128,-1,98
 1471 309 1471 309 1476 271 c 128,-1,99
 1481 233 1481 233 1484 217 c 1,100,101
 1485 219 1485 219 1505.5 251 c 128,-1,102
 1526 283 1526 283 1560 335.5 c 128,-1,103
 1594 388 1594 388 1639.5 457 c 128,-1,104
 1685 526 1685 526 1735 603.5 c 128,-1,105
 1785 681 1785 681 1838.5 762.5 c 128,-1,106
 1892 844 1892 844 1942.5 921.5 c 128,-1,107
 1993 999 1993 999 2038 1067.5 c 128,-1,108
 2083 1136 2083 1136 2117 1188.5 c 128,-1,109
 2151 1241 2151 1241 2171 1272 c 128,-1,110
 2191 1303 2191 1303 2192 1306 c 0,111,112
 2206 1327 2206 1327 2213.5 1343 c 128,-1,113
 2221 1359 2221 1359 2224 1371 c 0,114,115
 2231 1399 2231 1399 2190.5 1417.5 c 128,-1,116
 2150 1436 2150 1436 2061 1438 c 1,117,-1
 2076 1494 l 1,118,-1
 2582 1494 l 1,119,-1
 2567 1438 l 1,0,1
1520 1341 m 2,120,121
 1531 1357 1531 1357 1537.5 1369 c 128,-1,122
 1544 1381 1544 1381 1546 1392 c 0,123,124
 1552 1414 1552 1414 1538.5 1426 c 128,-1,125
 1525 1438 1525 1438 1493 1438 c 2,126,-1
 1392 1438 l 2,127,128
 1358 1438 1358 1438 1336 1427 c 128,-1,129
 1314 1416 1314 1416 1309 1397 c 0,130,131
 1305 1384 1305 1384 1307.5 1362 c 128,-1,132
 1310 1340 1310 1340 1313.5 1314.5 c 128,-1,133
 1317 1289 1317 1289 1322 1263.5 c 128,-1,134
 1327 1238 1327 1238 1331 1218 c 0,135,136
 1338 1187 1338 1187 1343.5 1158 c 128,-1,137
 1349 1129 1349 1129 1353 1095 c 1,138,-1
 1520 1341 l 2,120,121
EndSplineSet
Substitution2: "<17001,16003> Urdu lookup 129 subtable" W
EndChar

StartChar: X
Encoding: 88 88 59
Width: 1800
GlyphClass: 2
Flags: W
LayerCount: 2
Fore
SplineSet
1594 0 m 1,0,-1
 925 0 l 1,1,-1
 940 58 l 1,2,3
 1095 58 1095 58 1109 111 c 0,4,5
 1113 124 1113 124 1106 148 c 128,-1,6
 1099 172 1099 172 1085.5 203 c 128,-1,7
 1072 234 1072 234 1054.5 268.5 c 128,-1,8
 1037 303 1037 303 1018 336 c 128,-1,9
 999 369 999 369 981.5 400.5 c 128,-1,10
 964 432 964 432 953 456 c 1,11,12
 919 513 919 513 891 566 c 128,-1,13
 863 619 863 619 834 671 c 1,14,15
 829 666 829 666 806 645 c 128,-1,16
 783 624 783 624 748.5 593 c 128,-1,17
 714 562 714 562 672 523 c 128,-1,18
 630 484 630 484 586.5 444.5 c 128,-1,19
 543 405 543 405 500.5 366 c 128,-1,20
 458 327 458 327 424 296.5 c 128,-1,21
 390 266 390 266 367.5 245 c 128,-1,22
 345 224 345 224 340 221 c 1,23,24
 303 187 303 187 279.5 159 c 128,-1,25
 256 131 256 131 250 111 c 0,26,27
 243 83 243 83 271.5 70.5 c 128,-1,28
 300 58 300 58 361 58 c 2,29,-1
 415 58 l 1,30,-1
 400 0 l 1,31,-1
 -179 0 l 1,32,-1
 -164 58 l 1,33,34
 -78 64 -78 64 -8.5 89.5 c 128,-1,35
 61 115 61 115 122 158 c 0,36,37
 157 182 157 182 201.5 220.5 c 128,-1,38
 246 259 246 259 303 311 c 2,39,-1
 788 751 l 1,40,41
 777 773 777 773 757.5 812.5 c 128,-1,42
 738 852 738 852 713 899 c 128,-1,43
 688 946 688 946 661.5 996.5 c 128,-1,44
 635 1047 635 1047 611 1090.5 c 128,-1,45
 587 1134 587 1134 569.5 1166.5 c 128,-1,46
 552 1199 552 1199 544 1210 c 1,47,48
 516 1264 516 1264 493.5 1299.5 c 128,-1,49
 471 1335 471 1335 450.5 1357.5 c 128,-1,50
 430 1380 430 1380 409 1393.5 c 128,-1,51
 388 1407 388 1407 361 1417 c 256,52,53
 334 1427 334 1427 295 1432 c 128,-1,54
 256 1437 256 1437 206 1438 c 1,55,-1
 221 1494 l 1,56,-1
 945 1494 l 1,57,-1
 930 1438 l 1,58,59
 742 1438 742 1438 728 1387 c 0,60,61
 723 1369 723 1369 727.5 1348.5 c 128,-1,62
 732 1328 732 1328 750.5 1293 c 128,-1,63
 769 1258 769 1258 800.5 1201.5 c 128,-1,64
 832 1145 832 1145 883 1053 c 1,65,66
 896 1027 896 1027 909 1002.5 c 128,-1,67
 922 978 922 978 932.5 958 c 128,-1,68
 943 938 943 938 950.5 924.5 c 128,-1,69
 958 911 958 911 959 908 c 1,70,71
 965 914 965 914 991.5 938 c 128,-1,72
 1018 962 1018 962 1055 995.5 c 128,-1,73
 1092 1029 1092 1029 1134 1066 c 128,-1,74
 1176 1103 1176 1103 1211 1135 c 128,-1,75
 1246 1167 1246 1167 1270 1188.5 c 128,-1,76
 1294 1210 1294 1210 1295 1212 c 0,77,78
 1434 1338 1434 1338 1448 1390 c 0,79,80
 1461 1438 1461 1438 1370 1438 c 2,81,-1
 1294 1438 l 1,82,-1
 1309 1494 l 1,83,-1
 1892 1494 l 1,84,-1
 1877 1438 l 1,85,86
 1830 1438 1830 1438 1773.5 1419.5 c 128,-1,87
 1717 1401 1717 1401 1655.5 1369 c 128,-1,88
 1594 1337 1594 1337 1531 1292.5 c 128,-1,89
 1468 1248 1468 1248 1408 1196 c 0,90,91
 1390 1180 1390 1180 1357.5 1150.5 c 128,-1,92
 1325 1121 1325 1121 1285.5 1084 c 128,-1,93
 1246 1047 1246 1047 1203.5 1007 c 128,-1,94
 1161 967 1161 967 1122 931 c 128,-1,95
 1083 895 1083 895 1052 867 c 128,-1,96
 1021 839 1021 839 1006 826 c 1,97,98
 1017 805 1017 805 1037 766.5 c 128,-1,99
 1057 728 1057 728 1083 679.5 c 128,-1,100
 1109 631 1109 631 1138.5 575.5 c 128,-1,101
 1168 520 1168 520 1198 465 c 128,-1,102
 1228 410 1228 410 1256.5 358.5 c 128,-1,103
 1285 307 1285 307 1307.5 265 c 128,-1,104
 1330 223 1330 223 1346 196 c 128,-1,105
 1362 169 1362 169 1367 163 c 0,106,107
 1390 133 1390 133 1409.5 115 c 128,-1,108
 1429 97 1429 97 1454.5 85.5 c 128,-1,109
 1480 74 1480 74 1517 68.5 c 128,-1,110
 1554 63 1554 63 1609 58 c 1,111,-1
 1594 0 l 1,0,-1
EndSplineSet
Substitution2: "<17001,16003> Urdu lookup 129 subtable" X
EndChar

StartChar: Y
Encoding: 89 89 60
Width: 1700
GlyphClass: 2
Flags: W
LayerCount: 2
Fore
SplineSet
1834 1438 m 1,0,1
 1780 1434 1780 1434 1732.5 1419.5 c 128,-1,2
 1685 1405 1685 1405 1642.5 1381 c 128,-1,3
 1600 1357 1600 1357 1560.5 1324 c 128,-1,4
 1521 1291 1521 1291 1483 1249 c 1,5,6
 1470 1233 1470 1233 1440.5 1199 c 128,-1,7
 1411 1165 1411 1165 1372 1118.5 c 128,-1,8
 1333 1072 1333 1072 1286.5 1017.5 c 128,-1,9
 1240 963 1240 963 1192.5 907 c 128,-1,10
 1145 851 1145 851 1099 797.5 c 128,-1,11
 1053 744 1053 744 1015.5 699.5 c 128,-1,12
 978 655 978 655 950 623.5 c 128,-1,13
 922 592 922 592 911 580 c 1,14,-1
 816 227 l 2,15,16
 804 181 804 181 805.5 149 c 128,-1,17
 807 117 807 117 823 96 c 128,-1,18
 839 75 839 75 872 66.5 c 128,-1,19
 905 58 905 58 957 58 c 2,20,-1
 992 58 l 1,21,-1
 977 0 l 1,22,-1
 309 0 l 1,23,-1
 324 58 l 1,24,-1
 376 58 l 2,25,26
 474 58 474 58 527 95 c 128,-1,27
 580 132 580 132 604 222 c 2,28,-1
 693 554 l 1,29,30
 692 559 692 559 680.5 589 c 128,-1,31
 669 619 669 619 652.5 665.5 c 128,-1,32
 636 712 636 712 614.5 771 c 128,-1,33
 593 830 593 830 571 890 c 128,-1,34
 549 950 549 950 527 1008 c 128,-1,35
 505 1066 505 1066 488 1111 c 128,-1,36
 471 1156 471 1156 460.5 1184.5 c 128,-1,37
 450 1213 450 1213 448 1215 c 1,38,39
 414 1309 414 1309 380.5 1356.5 c 128,-1,40
 347 1404 347 1404 309 1418 c 1,41,42
 288 1427 288 1427 255 1431.5 c 128,-1,43
 222 1436 222 1436 180 1438 c 1,44,-1
 195 1494 l 1,45,-1
 841 1494 l 1,46,-1
 826 1438 l 1,47,48
 656 1438 656 1438 641 1384 c 0,49,50
 638 1371 638 1371 643 1347.5 c 128,-1,51
 648 1324 648 1324 657.5 1294 c 128,-1,52
 667 1264 667 1264 680 1229 c 128,-1,53
 693 1194 693 1194 707.5 1158.5 c 128,-1,54
 722 1123 722 1123 736 1089 c 128,-1,55
 750 1055 750 1055 762 1028 c 0,56,57
 765 1022 765 1022 774.5 998.5 c 128,-1,58
 784 975 784 975 796.5 942 c 128,-1,59
 809 909 809 909 823 872 c 128,-1,60
 837 835 837 835 850 802 c 128,-1,61
 863 769 863 769 871.5 744.5 c 128,-1,62
 880 720 880 720 882 713 c 1,63,64
 887 720 887 720 910.5 746.5 c 128,-1,65
 934 773 934 773 967.5 812.5 c 128,-1,66
 1001 852 1001 852 1043 900.5 c 128,-1,67
 1085 949 1085 949 1127.5 999 c 128,-1,68
 1170 1049 1170 1049 1210.5 1096.5 c 128,-1,69
 1251 1144 1251 1144 1284 1182.5 c 128,-1,70
 1317 1221 1317 1221 1338 1245.5 c 128,-1,71
 1359 1270 1359 1270 1362 1273 c 0,72,73
 1386 1305 1386 1305 1402 1329 c 128,-1,74
 1418 1353 1418 1353 1422 1369 c 0,75,76
 1431 1403 1431 1403 1398.5 1420.5 c 128,-1,77
 1366 1438 1366 1438 1285 1438 c 1,78,-1
 1300 1494 l 1,79,-1
 1849 1494 l 1,80,-1
 1834 1438 l 1,0,1
EndSplineSet
Substitution2: "<17001,16003> Urdu lookup 129 subtable" Y
EndChar

StartChar: Z
Encoding: 90 90 61
Width: 1625
GlyphClass: 2
Flags: W
LayerCount: 2
Fore
SplineSet
1428 442 m 1,0,-1
 1281 0 l 1,1,-1
 -103 0 l 1,2,-1
 -86 65 l 1,3,-1
 1332 1397 l 1,4,-1
 636 1397 l 2,5,6
 577 1397 577 1397 534 1383 c 128,-1,7
 491 1369 491 1369 459.5 1338.5 c 128,-1,8
 428 1308 428 1308 404.5 1261 c 128,-1,9
 381 1214 381 1214 357 1148 c 1,10,-1
 301 1148 l 1,11,-1
 394 1494 l 1,12,-1
 1646 1494 l 1,13,-1
 1629 1430 l 1,14,-1
 203 98 l 1,15,-1
 1031 98 l 2,16,17
 1106 98 1106 98 1162.5 131 c 128,-1,18
 1219 164 1219 164 1259 221 c 0,19,20
 1268 234 1268 234 1281.5 257 c 128,-1,21
 1295 280 1295 280 1311 309.5 c 128,-1,22
 1327 339 1327 339 1343.5 373 c 128,-1,23
 1360 407 1360 407 1375 442 c 1,24,-1
 1428 442 l 1,0,-1
EndSplineSet
Substitution2: "<17001,16003> Urdu lookup 129 subtable" Z
EndChar

StartChar: bracketleft
Encoding: 91 91 62
Width: 660
GlyphClass: 2
Flags: W
LayerCount: 2
Fore
SplineSet
-239 -520 m 1,0,-1
 288 1449 l 1,1,-1
 698 1449 l 1,2,-1
 664 1323 l 1,3,-1
 388 1323 l 1,4,-1
 -72 -392 l 1,5,-1
 204 -392 l 1,6,-1
 170 -520 l 1,7,-1
 -239 -520 l 1,0,-1
EndSplineSet
Substitution2: "<17001,16003> Urdu lookup 129 subtable" bracketleft
EndChar

StartChar: backslash
Encoding: 92 92 63
Width: 1100
GlyphClass: 2
Flags: W
LayerCount: 2
Fore
SplineSet
783 -35 m 1,0,-1
 671 -35 l 1,1,-1
 317 1530 l 1,2,-1
 429 1530 l 1,3,-1
 783 -35 l 1,0,-1
EndSplineSet
Substitution2: "<17001,16003> Urdu lookup 129 subtable" backslash
EndChar

StartChar: bracketright
Encoding: 93 93 64
Width: 760
GlyphClass: 2
Flags: W
LayerCount: 2
Fore
SplineSet
-239 -520 m 1,0,-1
 -205 -392 l 1,1,-1
 67 -392 l 1,2,-1
 527 1323 l 1,3,-1
 254 1323 l 1,4,-1
 288 1449 l 1,5,-1
 698 1449 l 1,6,-1
 170 -520 l 1,7,-1
 -239 -520 l 1,0,-1
EndSplineSet
Substitution2: "<17001,16003> Urdu lookup 129 subtable" bracketright
EndChar

StartChar: asciicircum
Encoding: 94 94 65
Width: 1127
GlyphClass: 2
Flags: W
LayerCount: 2
Fore
SplineSet
1094 766 m 1,0,-1
 969 766 l 1,1,-1
 748 1442 l 1,2,3
 731 1421 731 1421 687 1369.5 c 128,-1,4
 643 1318 643 1318 584 1250 c 128,-1,5
 525 1182 525 1182 460 1106.5 c 128,-1,6
 395 1031 395 1031 336 962 c 128,-1,7
 277 893 277 893 231 841 c 128,-1,8
 185 789 185 789 168 766 c 1,9,-1
 42 766 l 1,10,-1
 772 1613 l 1,11,-1
 818 1613 l 1,12,-1
 1094 766 l 1,0,-1
EndSplineSet
Substitution2: "<17001,16003> Urdu lookup 129 subtable" asciicircum
EndChar

StartChar: underscore
Encoding: 95 95 66
Width: 1200
GlyphClass: 2
Flags: W
LayerCount: 2
Fore
SplineSet
798 -830 m 1,0,-1
 -442 -830 l 1,1,-1
 -407 -700 l 1,2,-1
 833 -700 l 1,3,-1
 798 -830 l 1,0,-1
EndSplineSet
Substitution2: "<17001,16003> Urdu lookup 129 subtable" underscore
EndChar

StartChar: grave
Encoding: 96 96 67
Width: 800
GlyphClass: 2
Flags: W
LayerCount: 2
Fore
SplineSet
738 1164 m 1,0,-1
 692 1164 l 1,1,-1
 485 1333 l 2,2,3
 415 1391 415 1391 388.5 1436.5 c 128,-1,4
 362 1482 362 1482 367 1507 c 1,5,6
 388 1583 388 1583 471 1583 c 0,7,8
 511 1583 511 1583 542 1556 c 128,-1,9
 573 1529 573 1529 596 1477 c 2,10,-1
 738 1164 l 1,0,-1
EndSplineSet
Substitution2: "<17001,16003> Urdu lookup 129 subtable" grave
EndChar

StartChar: a
Encoding: 97 97 68
Width: 951
GlyphClass: 2
Flags: W
LayerCount: 2
Fore
SplineSet
494 437 m 1,0,1
 480 430 480 430 454.5 420 c 128,-1,2
 429 410 429 410 399 398.5 c 128,-1,3
 369 387 369 387 337 375 c 128,-1,4
 305 363 305 363 276.5 352.5 c 128,-1,5
 248 342 248 342 226.5 332.5 c 128,-1,6
 205 323 205 323 198 318 c 0,7,8
 162 294 162 294 135.5 265 c 128,-1,9
 109 236 109 236 99 201 c 1,10,11
 92 172 92 172 96.5 147.5 c 128,-1,12
 101 123 101 123 115.5 105 c 128,-1,13
 130 87 130 87 152 77 c 128,-1,14
 174 67 174 67 200 67 c 0,15,16
 210 67 210 67 232.5 75 c 128,-1,17
 255 83 255 83 286 98 c 128,-1,18
 317 113 317 113 352.5 131.5 c 128,-1,19
 388 150 388 150 422 169 c 1,20,-1
 494 437 l 1,0,1
766 106 m 1,21,22
 570 -30 570 -30 488 -30 c 0,23,24
 437 -30 437 -30 416.5 2.5 c 128,-1,25
 396 35 396 35 411 111 c 1,26,27
 200 -30 200 -30 102 -30 c 0,28,29
 51 -30 51 -30 13 -16.5 c 128,-1,30
 -25 -3 -25 -3 -46.5 23.5 c 128,-1,31
 -68 50 -68 50 -74.5 87 c 128,-1,32
 -81 124 -81 124 -68 172 c 0,33,34
 -52 235 -52 235 -3.5 284.5 c 128,-1,35
 45 334 45 334 116 363 c 0,36,37
 134 370 134 370 182 385 c 128,-1,38
 230 400 230 400 289.5 418.5 c 128,-1,39
 349 437 349 437 409 458 c 128,-1,40
 469 479 469 479 510 500 c 1,41,-1
 560 685 l 2,42,43
 576 745 576 745 571.5 786.5 c 128,-1,44
 567 828 567 828 549.5 853.5 c 128,-1,45
 532 879 532 879 504.5 890 c 128,-1,46
 477 901 477 901 449 901 c 0,47,48
 425 901 425 901 397.5 892 c 128,-1,49
 370 883 370 883 345.5 867 c 128,-1,50
 321 851 321 851 302 831 c 128,-1,51
 283 811 283 811 277 790 c 0,52,53
 274 778 274 778 278 744 c 1,54,-1
 85 658 l 1,55,56
 83 671 83 671 84.5 681 c 128,-1,57
 86 691 86 691 88 698 c 0,58,59
 94 721 94 721 119 752.5 c 128,-1,60
 144 784 144 784 180 817 c 128,-1,61
 216 850 216 850 260 880.5 c 128,-1,62
 304 911 304 911 346 934 c 1,63,64
 395 959 395 959 438 969.5 c 128,-1,65
 481 980 481 980 520 982 c 1,66,67
 681 982 681 982 740 855 c 0,68,69
 752 830 752 830 747.5 777.5 c 128,-1,70
 743 725 743 725 721 644 c 2,71,-1
 636 325 l 2,72,73
 615 248 615 248 605.5 202.5 c 128,-1,74
 596 157 596 157 596 134 c 128,-1,75
 596 111 596 111 605.5 104.5 c 128,-1,76
 615 98 615 98 631 98 c 0,77,78
 685 98 685 98 762 154 c 1,79,-1
 766 106 l 1,21,22
EndSplineSet
Substitution2: "<17001,16003> Urdu lookup 129 subtable" a
EndChar

StartChar: b
Encoding: 98 98 69
Width: 1200
GlyphClass: 2
Flags: W
LayerCount: 2
Fore
SplineSet
850 449 m 0,0,1
 872 532 872 532 870 606.5 c 128,-1,2
 868 681 868 681 841.5 737.5 c 128,-1,3
 815 794 815 794 764.5 827 c 128,-1,4
 714 860 714 860 640 860 c 0,5,6
 590 860 590 860 511.5 831 c 128,-1,7
 433 802 433 802 348 750 c 1,8,-1
 227 297 l 2,9,10
 212 242 212 242 218.5 197 c 128,-1,11
 225 152 225 152 250.5 119.5 c 128,-1,12
 276 87 276 87 318.5 70 c 128,-1,13
 361 53 361 53 416 53 c 0,14,15
 490 53 490 53 558 83.5 c 128,-1,16
 626 114 626 114 683.5 166.5 c 128,-1,17
 741 219 741 219 784 291.5 c 128,-1,18
 827 364 827 364 850 449 c 0,0,1
1036 515 m 0,19,20
 1005 398 1005 398 934.5 298 c 128,-1,21
 864 198 864 198 767.5 125 c 128,-1,22
 671 52 671 52 557.5 11 c 128,-1,23
 444 -30 444 -30 327 -30 c 0,24,25
 255 -30 255 -30 172 -18 c 128,-1,26
 89 -6 89 -6 -21 16 c 1,27,-1
 326 1312 l 2,28,29
 340 1364 340 1364 341.5 1396 c 128,-1,30
 343 1428 343 1428 339 1441 c 1,31,-1
 340 1441 l 1,32,33
 331 1445 331 1445 316 1447.5 c 128,-1,34
 301 1450 301 1450 282.5 1453 c 128,-1,35
 264 1456 264 1456 243 1458.5 c 128,-1,36
 222 1461 222 1461 205 1464 c 1,37,-1
 218 1513 l 1,38,-1
 534 1613 l 1,39,-1
 580 1613 l 1,40,-1
 368 822 l 1,41,42
 636 982 636 982 764 982 c 0,43,44
 848 982 848 982 910 943.5 c 128,-1,45
 972 905 972 905 1008 840 c 128,-1,46
 1044 775 1044 775 1052.5 690.5 c 128,-1,47
 1061 606 1061 606 1036 515 c 0,19,20
EndSplineSet
Substitution2: "<17001,16003> Urdu lookup 129 subtable" b
EndChar

StartChar: c
Encoding: 99 99 70
AltUni2: 00217d.ffffffff.0
Width: 1024
GlyphClass: 2
Flags: W
LayerCount: 2
Fore
SplineSet
804 226 m 1,0,1
 580 -30 580 -30 305 -30 c 0,2,3
 218 -30 218 -30 153.5 3.5 c 128,-1,4
 89 37 89 37 52 99.5 c 128,-1,5
 15 162 15 162 8 247.5 c 128,-1,6
 1 333 1 333 26 436 c 1,7,8
 54 541 54 541 119 639.5 c 128,-1,9
 184 738 184 738 276.5 813.5 c 128,-1,10
 369 889 369 889 484 935.5 c 128,-1,11
 599 982 599 982 725 982 c 0,12,13
 779 982 779 982 826 973 c 128,-1,14
 873 964 873 964 905 946.5 c 128,-1,15
 937 929 937 929 952.5 902.5 c 128,-1,16
 968 876 968 876 959 841 c 0,17,18
 948 800 948 800 925 780.5 c 128,-1,19
 902 761 902 761 863 761 c 0,20,21
 810 761 810 761 753 833 c 1,22,23
 719 873 719 873 690 890.5 c 128,-1,24
 661 908 661 908 624 908 c 0,25,26
 568 908 568 908 505.5 877.5 c 128,-1,27
 443 847 443 847 385.5 791.5 c 128,-1,28
 328 736 328 736 280.5 658.5 c 128,-1,29
 233 581 233 581 208 488 c 0,30,31
 187 407 187 407 190 332.5 c 128,-1,32
 193 258 193 258 221.5 202 c 128,-1,33
 250 146 250 146 302.5 112.5 c 128,-1,34
 355 79 355 79 431 79 c 0,35,36
 513 79 513 79 597.5 122.5 c 128,-1,37
 682 166 682 166 769 256 c 1,38,-1
 804 226 l 1,0,1
EndSplineSet
Substitution2: "<17001,16003> Urdu lookup 129 subtable" c
EndChar

StartChar: d
Encoding: 100 100 71
AltUni2: 00217e.ffffffff.0
Width: 1200
GlyphClass: 2
Flags: W
LayerCount: 2
Fore
SplineSet
848 731 m 1,0,1
 811 815 811 815 752.5 861 c 128,-1,2
 694 907 694 907 616 907 c 0,3,4
 553 907 553 907 491 879.5 c 128,-1,5
 429 852 429 852 374.5 801.5 c 128,-1,6
 320 751 320 751 276.5 679 c 128,-1,7
 233 607 233 607 209 516 c 0,8,9
 187 435 187 435 190 357 c 128,-1,10
 193 279 193 279 218 218.5 c 128,-1,11
 243 158 243 158 288.5 120.5 c 128,-1,12
 334 83 334 83 398 83 c 0,13,14
 423 83 423 83 458 93 c 128,-1,15
 493 103 493 103 534.5 119.5 c 128,-1,16
 576 136 576 136 620 157 c 128,-1,17
 664 178 664 178 707 202 c 1,18,-1
 848 731 l 1,0,1
1021 94 m 1,19,-1
 680 -30 l 1,20,-1
 644 -30 l 1,21,-1
 688 133 l 1,22,23
 550 52 550 52 449 11 c 128,-1,24
 348 -30 348 -30 279 -30 c 0,25,26
 203 -30 203 -30 142.5 4.5 c 128,-1,27
 82 39 82 39 46.5 102 c 128,-1,28
 11 165 11 165 1.5 250 c 128,-1,29
 -8 335 -8 335 19 436 c 0,30,31
 49 545 49 545 109.5 643.5 c 128,-1,32
 170 742 170 742 257.5 816.5 c 128,-1,33
 345 891 345 891 454 936 c 128,-1,34
 563 981 563 981 687 982 c 0,35,36
 745 982 745 982 800.5 970.5 c 128,-1,37
 856 959 856 959 904 940 c 1,38,-1
 1026 1393 l 2,39,40
 1030 1409 1030 1409 1029.5 1419 c 128,-1,41
 1029 1429 1029 1429 1021.5 1435.5 c 128,-1,42
 1014 1442 1014 1442 997.5 1445.5 c 128,-1,43
 981 1449 981 1449 954 1453 c 2,44,-1
 874 1464 l 1,45,-1
 887 1513 l 1,46,-1
 1256 1614 l 1,47,-1
 880 209 l 2,48,49
 857 126 857 126 918 126 c 0,50,51
 940 126 940 126 973 135.5 c 128,-1,52
 1006 145 1006 145 1036 153 c 1,53,-1
 1021 94 l 1,19,-1
EndSplineSet
Substitution2: "<17001,16003> Urdu lookup 129 subtable" d
EndChar

StartChar: e
Encoding: 101 101 72
Width: 1052
GlyphClass: 2
Flags: W
LayerCount: 2
Fore
SplineSet
745 677 m 1,0,1
 748 727 748 727 739 772 c 128,-1,2
 730 817 730 817 710 851.5 c 128,-1,3
 690 886 690 886 658.5 906 c 128,-1,4
 627 926 627 926 584 926 c 256,5,6
 541 926 541 926 498 908 c 128,-1,7
 455 890 455 890 415.5 857.5 c 128,-1,8
 376 825 376 825 339 779.5 c 128,-1,9
 302 734 302 734 270 677 c 1,10,-1
 745 677 l 1,0,1
937 605 m 1,11,-1
 242 605 l 1,12,13
 228 572 228 572 219.5 547.5 c 128,-1,14
 211 523 211 523 207 510 c 0,15,16
 187 434 187 434 193.5 362.5 c 128,-1,17
 200 291 200 291 232.5 235 c 128,-1,18
 265 179 265 179 322.5 144 c 128,-1,19
 380 109 380 109 457 104 c 1,20,21
 539 106 539 106 627 144 c 128,-1,22
 715 182 715 182 803 261 c 1,23,-1
 823 222 l 1,24,25
 559 -30 559 -30 323 -30 c 0,26,27
 240 -30 240 -30 174 3 c 128,-1,28
 108 36 108 36 68 100.5 c 128,-1,29
 28 165 28 165 18.5 256.5 c 128,-1,30
 9 348 9 348 38 464 c 1,31,32
 65 564 65 564 121 657.5 c 128,-1,33
 177 751 177 751 256 823 c 128,-1,34
 335 895 335 895 433.5 938.5 c 128,-1,35
 532 982 532 982 642 982 c 0,36,37
 747 982 747 982 809 954.5 c 128,-1,38
 871 927 871 927 895 869 c 1,39,40
 904 836 904 836 918 786.5 c 128,-1,41
 932 737 932 737 954 670 c 1,42,-1
 937 605 l 1,11,-1
EndSplineSet
Substitution2: "<17001,16003> Urdu lookup 129 subtable" e
EndChar

StartChar: f
Encoding: 102 102 73
Width: 650
GlyphClass: 2
Flags: W
LayerCount: 2
Fore
SplineSet
1191 1495 m 0,0,1
 1189 1488 1189 1488 1175 1468 c 128,-1,2
 1161 1448 1161 1448 1144.5 1427.5 c 128,-1,3
 1128 1407 1128 1407 1111.5 1391 c 128,-1,4
 1095 1375 1095 1375 1087 1375 c 256,5,6
 1079 1375 1079 1375 1062 1391.5 c 128,-1,7
 1045 1408 1045 1408 1012 1435 c 0,8,9
 977 1464 977 1464 933 1478 c 128,-1,10
 889 1492 889 1492 843 1493 c 1,11,12
 583 1493 583 1493 486 1132 c 2,13,-1
 439 956 l 1,14,-1
 681 956 l 1,15,-1
 667 840 l 1,16,-1
 408 840 l 1,17,-1
 234 191 l 2,18,19
 224 155 224 155 225.5 129.5 c 128,-1,20
 227 104 227 104 242.5 88.5 c 128,-1,21
 258 73 258 73 289 65.5 c 128,-1,22
 320 58 320 58 369 58 c 2,23,-1
 465 58 l 1,24,-1
 450 0 l 1,25,-1
 -148 0 l 1,26,-1
 -133 58 l 1,27,28
 -80 58 -80 58 -46 66 c 128,-1,29
 -12 74 -12 74 9.5 92.5 c 128,-1,30
 31 111 31 111 45 141.5 c 128,-1,31
 59 172 59 172 71 217 c 2,32,-1
 238 840 l 1,33,-1
 63 840 l 1,34,-1
 76 891 l 1,35,36
 128 902 128 902 176 917.5 c 128,-1,37
 224 933 224 933 268 952 c 1,38,39
 289 1024 289 1024 316 1094 c 128,-1,40
 343 1164 343 1164 375 1216 c 1,41,42
 457 1342 457 1342 583 1444 c 0,43,44
 695 1534 695 1534 790.5 1573.5 c 128,-1,45
 886 1613 886 1613 974 1613 c 0,46,47
 1014 1613 1014 1613 1055 1602 c 128,-1,48
 1096 1591 1096 1591 1128 1573.5 c 128,-1,49
 1160 1556 1160 1556 1178 1535 c 128,-1,50
 1196 1514 1196 1514 1191 1495 c 0,0,1
EndSplineSet
Substitution2: "<17001,16003> Urdu lookup 129 subtable" f
EndChar

StartChar: g
Encoding: 103 103 74
Width: 1127
GlyphClass: 2
Flags: W
LayerCount: 2
Fore
SplineSet
728 609 m 0,0,1
 747 680 747 680 745.5 738 c 128,-1,2
 744 796 744 796 723 838 c 128,-1,3
 702 880 702 880 663.5 903 c 128,-1,4
 625 926 625 926 568 926 c 0,5,6
 515 926 515 926 467.5 907 c 128,-1,7
 420 888 420 888 381.5 852.5 c 128,-1,8
 343 817 343 817 315 767.5 c 128,-1,9
 287 718 287 718 271 658 c 0,10,11
 254 595 254 595 255 536.5 c 128,-1,12
 256 478 256 478 276 434.5 c 128,-1,13
 296 391 296 391 335 364.5 c 128,-1,14
 374 338 374 338 433 338 c 0,15,16
 485 338 485 338 531.5 357.5 c 128,-1,17
 578 377 578 377 616.5 413.5 c 128,-1,18
 655 450 655 450 683.5 499.5 c 128,-1,19
 712 549 712 549 728 609 c 0,0,1
724 -201 m 0,20,21
 733 -166 733 -166 722 -139 c 128,-1,22
 711 -112 711 -112 685.5 -94 c 128,-1,23
 660 -76 660 -76 620.5 -68 c 128,-1,24
 581 -60 581 -60 533 -60 c 1,25,26
 496 -59 496 -59 455 -57 c 128,-1,27
 414 -55 414 -55 371.5 -52.5 c 128,-1,28
 329 -50 329 -50 286.5 -48.5 c 128,-1,29
 244 -47 244 -47 204 -47 c 0,30,31
 196 -47 196 -47 190 -47 c 128,-1,32
 184 -47 184 -47 180 -46 c 1,33,34
 150 -68 150 -68 104 -103.5 c 128,-1,35
 58 -139 58 -139 13 -176 c 1,36,37
 0 -191 0 -191 -10.5 -209 c 128,-1,38
 -21 -227 -21 -227 -26 -244 c 0,39,40
 -37 -284 -37 -284 -22.5 -325.5 c 128,-1,41
 -8 -367 -8 -367 29 -400.5 c 128,-1,42
 66 -434 66 -434 124.5 -455.5 c 128,-1,43
 183 -477 183 -477 260 -477 c 0,44,45
 330 -477 330 -477 405 -456 c 128,-1,46
 480 -435 480 -435 545.5 -398 c 128,-1,47
 611 -361 611 -361 659.5 -311 c 128,-1,48
 708 -261 708 -261 724 -201 c 0,20,21
1134 748 m 1,49,50
 1069 752 1069 752 1013.5 758 c 128,-1,51
 958 764 958 764 911 775 c 1,52,53
 919 739 919 739 917 701.5 c 128,-1,54
 915 664 915 664 907 631 c 1,55,56
 887 559 887 559 841.5 495.5 c 128,-1,57
 796 432 796 432 728.5 384 c 128,-1,58
 661 336 661 336 574.5 308 c 128,-1,59
 488 280 488 280 389 280 c 0,60,61
 344 280 344 280 286 297 c 1,62,63
 276 291 276 291 249 277.5 c 128,-1,64
 222 264 222 264 192.5 246 c 128,-1,65
 163 228 163 228 139 211 c 128,-1,66
 115 194 115 194 112 182 c 0,67,68
 92 107 92 107 427 104 c 0,69,70
 514 103 514 103 570.5 101.5 c 128,-1,71
 627 100 627 100 652 95 c 0,72,73
 724 83 724 83 771 59 c 128,-1,74
 818 35 818 35 844 2.5 c 128,-1,75
 870 -30 870 -30 874.5 -71.5 c 128,-1,76
 879 -113 879 -113 867 -157 c 0,77,78
 853 -210 853 -210 817 -259.5 c 128,-1,79
 781 -309 781 -309 726.5 -353.5 c 128,-1,80
 672 -398 672 -398 602 -434.5 c 128,-1,81
 532 -471 532 -471 452 -498 c 128,-1,82
 372 -525 372 -525 285 -540 c 128,-1,83
 198 -555 198 -555 107 -555 c 0,84,85
 28 -555 28 -555 -35 -538.5 c 128,-1,86
 -98 -522 -98 -522 -141.5 -492.5 c 128,-1,87
 -185 -463 -185 -463 -202.5 -420 c 128,-1,88
 -220 -377 -220 -377 -206 -325 c 0,89,90
 -200 -300 -200 -300 -189 -280 c 128,-1,91
 -178 -260 -178 -260 -158 -239.5 c 128,-1,92
 -138 -219 -138 -219 -109 -197 c 128,-1,93
 -80 -175 -80 -175 -38 -147 c 0,94,95
 -17 -132 -17 -132 6 -117.5 c 128,-1,96
 29 -103 29 -103 50 -88.5 c 128,-1,97
 71 -74 71 -74 89 -60.5 c 128,-1,98
 107 -47 107 -47 120 -36 c 1,99,100
 78 -29 78 -29 42.5 -13 c 128,-1,101
 7 3 7 3 -16.5 26 c 128,-1,102
 -40 49 -40 49 -50 78 c 128,-1,103
 -60 107 -60 107 -52 138 c 0,104,105
 -43 171 -43 171 -20 193.5 c 128,-1,106
 3 216 3 216 39 234.5 c 128,-1,107
 75 253 75 253 123 271.5 c 128,-1,108
 171 290 171 290 230 316 c 1,109,110
 132 363 132 363 96 434.5 c 128,-1,111
 60 506 60 506 88 611 c 0,112,113
 108 686 108 686 158 753.5 c 128,-1,114
 208 821 208 821 278.5 871.5 c 128,-1,115
 349 922 349 922 435 952 c 128,-1,116
 521 982 521 982 614 982 c 0,117,118
 695 982 695 982 756 956 c 128,-1,119
 817 930 817 930 857 887 c 1,120,121
 923 889 923 889 1000 895 c 128,-1,122
 1077 901 1077 901 1149 907 c 0,123,124
 1154 907 1154 907 1163 907.5 c 128,-1,125
 1172 908 1172 908 1177 910 c 1,126,-1
 1134 748 l 1,49,50
EndSplineSet
Substitution2: "<17001,16003> Urdu lookup 129 subtable" g
EndChar

StartChar: h
Encoding: 104 104 75
Width: 1250
GlyphClass: 2
Flags: W
LayerCount: 2
Fore
SplineSet
1018 0 m 1,0,-1
 493 0 l 1,1,-1
 508 58 l 1,2,3
 559 58 559 58 593 66 c 128,-1,4
 627 74 627 74 651 94 c 128,-1,5
 675 114 675 114 692 144.5 c 128,-1,6
 709 175 709 175 727 221 c 1,7,8
 744 268 744 268 768 345 c 128,-1,9
 792 422 792 422 822 536 c 2,10,-1
 836 589 l 1,11,12
 913 874 913 874 701 874 c 0,13,14
 654 874 654 874 573.5 843 c 128,-1,15
 493 812 493 812 395 760 c 1,16,-1
 243 193 l 2,17,18
 233 154 233 154 233.5 128 c 128,-1,19
 234 102 234 102 247 86.5 c 128,-1,20
 260 71 260 71 288 64.5 c 128,-1,21
 316 58 316 58 361 58 c 1,22,-1
 346 0 l 1,23,-1
 -141 0 l 1,24,-1
 -126 58 l 1,25,26
 -78 61 -78 61 -44.5 69.5 c 128,-1,27
 -11 78 -11 78 13.5 99 c 128,-1,28
 38 120 38 120 54 152.5 c 128,-1,29
 70 185 70 185 83 235 c 2,30,-1
 389 1376 l 2,31,32
 398 1408 398 1408 390.5 1424 c 128,-1,33
 383 1440 383 1440 363.5 1447 c 128,-1,34
 344 1454 344 1454 314.5 1456.5 c 128,-1,35
 285 1459 285 1459 251 1464 c 1,36,-1
 264 1513 l 1,37,-1
 578 1613 l 1,38,-1
 624 1613 l 1,39,-1
 416 838 l 1,40,41
 562 912 562 912 666.5 947 c 128,-1,42
 771 982 771 982 843 982 c 0,43,44
 982 982 982 982 1022.5 894 c 128,-1,45
 1063 806 1063 806 1014 620 c 1,46,47
 977 484 977 484 943.5 367.5 c 128,-1,48
 910 251 910 251 875 140 c 1,49,50
 872 119 872 119 878.5 102.5 c 128,-1,51
 885 86 885 86 902.5 76.5 c 128,-1,52
 920 67 920 67 952.5 62.5 c 128,-1,53
 985 58 985 58 1033 58 c 1,54,-1
 1018 0 l 1,0,-1
EndSplineSet
Substitution2: "<17001,16003> Urdu lookup 129 subtable" h
EndChar

StartChar: i
Encoding: 105 105 76
Width: 624
GlyphClass: 2
Flags: W
LayerCount: 2
Fore
SplineSet
599 1434 m 1,0,1
 586 1388 586 1388 547.5 1362.5 c 128,-1,2
 509 1337 509 1337 462 1337 c 0,3,4
 442 1337 442 1337 424.5 1343.5 c 128,-1,5
 407 1350 407 1350 396 1363 c 128,-1,6
 385 1376 385 1376 380 1394 c 128,-1,7
 375 1412 375 1412 381 1434 c 0,8,9
 386 1455 386 1455 400.5 1473 c 128,-1,10
 415 1491 415 1491 432.5 1503 c 128,-1,11
 450 1515 450 1515 471 1522.5 c 128,-1,12
 492 1530 492 1530 513 1530 c 0,13,14
 560 1530 560 1530 585 1503.5 c 128,-1,15
 610 1477 610 1477 599 1434 c 1,0,1
381 0 m 1,16,-1
 -161 0 l 1,17,-1
 -146 58 l 1,18,19
 -91 58 -91 58 -51 67.5 c 128,-1,20
 -11 77 -11 77 18.5 98.5 c 128,-1,21
 48 120 48 120 66 151 c 128,-1,22
 84 182 84 182 96 225 c 2,23,-1
 224 702 l 2,24,25
 235 745 235 745 235.5 769 c 128,-1,26
 236 793 236 793 228 800 c 0,27,28
 218 808 218 808 198 812.5 c 128,-1,29
 178 817 178 817 156 821 c 128,-1,30
 134 825 134 825 112 829 c 128,-1,31
 90 833 90 833 75 839 c 1,32,-1
 88 886 l 1,33,-1
 430 994 l 1,34,-1
 475 994 l 1,35,-1
 258 186 l 2,36,37
 224 58 224 58 396 58 c 1,38,-1
 381 0 l 1,16,-1
EndSplineSet
Substitution2: "<17001,16003> Urdu lookup 129 subtable" i
EndChar

StartChar: j
Encoding: 106 106 77
Width: 600
GlyphClass: 2
Flags: W
LayerCount: 2
Fore
SplineSet
594 1434 m 0,0,1
 581 1388 581 1388 542 1362.5 c 128,-1,2
 503 1337 503 1337 457 1337 c 0,3,4
 435 1337 435 1337 417 1343.5 c 128,-1,5
 399 1350 399 1350 387.5 1363 c 128,-1,6
 376 1376 376 1376 372 1394 c 128,-1,7
 368 1412 368 1412 374 1434 c 0,8,9
 379 1455 379 1455 393 1472.5 c 128,-1,10
 407 1490 407 1490 425 1502.5 c 128,-1,11
 443 1515 443 1515 464.5 1522.5 c 128,-1,12
 486 1530 486 1530 508 1530 c 256,13,14
 530 1530 530 1530 548.5 1522.5 c 128,-1,15
 567 1515 567 1515 579.5 1503 c 128,-1,16
 592 1491 592 1491 595.5 1473 c 128,-1,17
 599 1455 599 1455 594 1434 c 0,0,1
197 -38 m 2,18,19
 164 -161 164 -161 107.5 -257 c 128,-1,20
 51 -353 51 -353 -20.5 -419 c 128,-1,21
 -92 -485 -92 -485 -175 -520 c 128,-1,22
 -258 -555 -258 -555 -343 -555 c 0,23,24
 -389 -555 -389 -555 -433 -546 c 128,-1,25
 -477 -537 -477 -537 -511 -521 c 128,-1,26
 -545 -505 -545 -505 -562 -481 c 128,-1,27
 -579 -457 -579 -457 -570 -425 c 0,28,29
 -566 -408 -566 -408 -554.5 -387.5 c 128,-1,30
 -543 -367 -543 -367 -528 -350 c 128,-1,31
 -513 -333 -513 -333 -496 -323 c 128,-1,32
 -479 -313 -479 -313 -461 -313 c 0,33,34
 -446 -313 -446 -313 -420.5 -332 c 128,-1,35
 -395 -351 -395 -351 -360 -384 c 1,36,37
 -329 -417 -329 -417 -297 -434.5 c 128,-1,38
 -265 -452 -265 -452 -241 -452 c 0,39,40
 -163 -452 -163 -452 -108.5 -391.5 c 128,-1,41
 -54 -331 -54 -331 -19 -201 c 2,42,-1
 228 724 l 2,43,44
 241 770 241 770 231 789.5 c 128,-1,45
 221 809 221 809 181 817 c 0,46,47
 155 822 155 822 127 827.5 c 128,-1,48
 99 833 99 833 74 838 c 1,49,-1
 87 886 l 1,50,-1
 433 994 l 1,51,-1
 474 994 l 1,52,-1
 197 -38 l 2,18,19
EndSplineSet
Substitution2: "<17001,16003> Urdu lookup 129 subtable" j
EndChar

StartChar: k
Encoding: 107 107 78
Width: 1200
GlyphClass: 2
Flags: W
LayerCount: 2
Fore
SplineSet
992 0 m 1,0,-1
 469 0 l 1,1,-1
 484 58 l 1,2,3
 591 58 591 58 601 96 c 0,4,5
 607 117 607 117 583 153 c 0,6,7
 576 165 576 165 555.5 193.5 c 128,-1,8
 535 222 535 222 509 260 c 128,-1,9
 483 298 483 298 454.5 339.5 c 128,-1,10
 426 381 426 381 400.5 418 c 128,-1,11
 375 455 375 455 355.5 481.5 c 128,-1,12
 336 508 336 508 328 516 c 1,13,-1
 235 169 l 2,14,15
 218 105 218 105 242 81.5 c 128,-1,16
 266 58 266 58 335 58 c 2,17,-1
 366 58 l 1,18,-1
 351 0 l 1,19,-1
 -148 0 l 1,20,-1
 -133 58 l 1,21,22
 34 58 34 58 76 213 c 2,23,-1
 383 1361 l 2,24,25
 390 1387 390 1387 391.5 1403 c 128,-1,26
 393 1419 393 1419 388 1429 c 128,-1,27
 383 1439 383 1439 371.5 1443 c 128,-1,28
 360 1447 360 1447 345 1449 c 0,29,30
 320 1452 320 1452 294 1456.5 c 128,-1,31
 268 1461 268 1461 244 1464 c 1,32,-1
 257 1513 l 1,33,-1
 578 1613 l 1,34,-1
 622 1613 l 1,35,-1
 346 584 l 1,36,37
 351 587 351 587 381 605 c 128,-1,38
 411 623 411 623 454 649 c 128,-1,39
 497 675 497 675 547 705 c 128,-1,40
 597 735 597 735 639.5 760.5 c 128,-1,41
 682 786 682 786 711 803.5 c 128,-1,42
 740 821 740 821 743 823 c 0,43,44
 782 847 782 847 788 866 c 1,45,46
 792 882 792 882 773 890.5 c 128,-1,47
 754 899 754 899 718 899 c 2,48,-1
 671 899 l 1,49,-1
 687 956 l 1,50,-1
 1168 956 l 1,51,-1
 1152 899 l 1,52,53
 1092 897 1092 897 1041.5 886.5 c 128,-1,54
 991 876 991 876 943 856 c 0,55,56
 919 846 919 846 869 820 c 128,-1,57
 819 794 819 794 756 758.5 c 128,-1,58
 693 723 693 723 623.5 681 c 128,-1,59
 554 639 554 639 488 597 c 1,60,61
 490 595 490 595 502 578 c 128,-1,62
 514 561 514 561 533 534 c 128,-1,63
 552 507 552 507 577 473 c 128,-1,64
 602 439 602 439 627 403.5 c 128,-1,65
 652 368 652 368 676.5 334.5 c 128,-1,66
 701 301 701 301 720.5 274.5 c 128,-1,67
 740 248 740 248 752 231.5 c 128,-1,68
 764 215 764 215 764 214 c 0,69,70
 820 134 820 134 878 97 c 128,-1,71
 936 60 936 60 1007 58 c 1,72,-1
 992 0 l 1,0,-1
EndSplineSet
Substitution2: "<17001,16003> Urdu lookup 129 subtable" k
EndChar

StartChar: l
Encoding: 108 108 79
AltUni2: 00217c.ffffffff.0
Width: 576
GlyphClass: 2
Flags: W
LayerCount: 2
Fore
SplineSet
359 0 m 1,0,-1
 -191 0 l 1,1,-1
 -176 58 l 1,2,3
 -120 58 -120 58 -80.5 66 c 128,-1,4
 -41 74 -41 74 -12 93 c 128,-1,5
 17 112 17 112 35.5 141.5 c 128,-1,6
 54 171 54 171 66 213 c 2,7,-1
 373 1361 l 2,8,9
 383 1396 383 1396 381 1414 c 128,-1,10
 379 1432 379 1432 368 1440.5 c 128,-1,11
 357 1449 357 1449 334 1451.5 c 128,-1,12
 311 1454 311 1454 277 1458 c 0,13,14
 265 1460 265 1460 253.5 1462.5 c 128,-1,15
 242 1465 242 1465 231 1464 c 1,16,-1
 226 1464 l 1,17,-1
 220 1464 l 1,18,-1
 233 1513 l 1,19,-1
 570 1613 l 1,20,-1
 612 1613 l 1,21,-1
 231 193 l 2,22,23
 195 58 195 58 328 58 c 2,24,-1
 374 58 l 1,25,-1
 359 0 l 1,0,-1
EndSplineSet
Substitution2: "<17001,16003> Urdu lookup 129 subtable" l
EndChar

StartChar: m
Encoding: 109 109 80
AltUni2: 00217f.ffffffff.0
Width: 1900
GlyphClass: 2
Flags: W
LayerCount: 2
Fore
SplineSet
1698 0 m 1,0,-1
 1152 0 l 1,1,-1
 1167 58 l 1,2,-1
 1191 58 l 2,3,4
 1232 58 1232 58 1264.5 65.5 c 128,-1,5
 1297 73 1297 73 1318 89 c 0,6,7
 1364 125 1364 125 1443 419 c 2,8,-1
 1494 609 l 2,9,10
 1565 876 1565 876 1394 876 c 0,11,12
 1368 876 1368 876 1331.5 866.5 c 128,-1,13
 1295 857 1295 857 1250 839.5 c 128,-1,14
 1205 822 1205 822 1153.5 797.5 c 128,-1,15
 1102 773 1102 773 1047 743 c 1,16,-1
 901 199 l 2,17,18
 890 158 890 158 888.5 130.5 c 128,-1,19
 887 103 887 103 899.5 87 c 128,-1,20
 912 71 912 71 939 64.5 c 128,-1,21
 966 58 966 58 1010 58 c 1,22,-1
 995 0 l 1,23,-1
 494 0 l 1,24,-1
 509 58 l 1,25,26
 562 58 562 58 600 68.5 c 128,-1,27
 638 79 638 79 664.5 101 c 128,-1,28
 691 123 691 123 709 157 c 128,-1,29
 727 191 727 191 738 235 c 2,30,-1
 856 675 l 2,31,32
 868 720 868 720 865.5 756.5 c 128,-1,33
 863 793 863 793 848 820 c 128,-1,34
 833 847 833 847 805.5 861.5 c 128,-1,35
 778 876 778 876 739 876 c 0,36,37
 714 876 714 876 678 866 c 128,-1,38
 642 856 642 856 596.5 837.5 c 128,-1,39
 551 819 551 819 498.5 793.5 c 128,-1,40
 446 768 446 768 390 738 c 1,41,-1
 246 199 l 2,42,43
 233 152 233 152 234 124 c 128,-1,44
 235 96 235 96 250.5 81.5 c 128,-1,45
 266 67 266 67 297 62.5 c 128,-1,46
 328 58 328 58 375 58 c 1,47,-1
 360 0 l 1,48,-1
 -149 0 l 1,49,-1
 -134 58 l 1,50,51
 -86 58 -86 58 -51 66.5 c 128,-1,52
 -16 75 -16 75 9.5 97 c 128,-1,53
 35 119 35 119 52.5 152.5 c 128,-1,54
 70 186 70 186 83 235 c 2,55,-1
 208 700 l 2,56,57
 222 751 222 751 221 774.5 c 128,-1,58
 220 798 220 798 204.5 808 c 128,-1,59
 189 818 189 818 158 820.5 c 128,-1,60
 127 823 127 823 80 831 c 1,61,-1
 94 882 l 1,62,-1
 412 982 l 1,63,-1
 456 982 l 1,64,-1
 406 797 l 1,65,66
 567 892 567 892 681 937 c 128,-1,67
 795 982 795 982 872 982 c 0,68,69
 916 982 916 982 949.5 968.5 c 128,-1,70
 983 955 983 955 1006 930.5 c 128,-1,71
 1029 906 1029 906 1041 872 c 128,-1,72
 1053 838 1053 838 1052 795 c 1,73,74
 1117 831 1117 831 1165.5 856.5 c 128,-1,75
 1214 882 1214 882 1253.5 900 c 128,-1,76
 1293 918 1293 918 1327 931.5 c 128,-1,77
 1361 945 1361 945 1396 956 c 0,78,79
 1429 967 1429 967 1460.5 974.5 c 128,-1,80
 1492 982 1492 982 1520 982 c 0,81,82
 1648 982 1648 982 1682.5 892.5 c 128,-1,83
 1717 803 1717 803 1666 615 c 0,84,85
 1629 477 1629 477 1598 366.5 c 128,-1,86
 1567 256 1567 256 1537 160 c 1,87,-1
 1535 152 l 1,88,89
 1510 58 1510 58 1631 58 c 2,90,-1
 1713 58 l 1,91,-1
 1698 0 l 1,0,-1
EndSplineSet
Substitution2: "<17001,16003> Urdu lookup 129 subtable" m
EndChar

StartChar: n
Encoding: 110 110 81
Width: 1250
GlyphClass: 2
Flags: W
LayerCount: 2
Fore
SplineSet
1023 0 m 1,0,-1
 499 0 l 1,1,-1
 514 58 l 1,2,3
 613 63 613 63 665 103 c 0,4,5
 727 152 727 152 856 633 c 0,6,7
 890 758 890 758 857.5 818 c 128,-1,8
 825 878 825 878 737 878 c 0,9,10
 693 878 693 878 602 838.5 c 128,-1,11
 511 799 511 799 386 727 c 1,12,-1
 249 215 l 2,13,14
 236 165 236 165 236 133.5 c 128,-1,15
 236 102 236 102 250.5 86 c 128,-1,16
 265 70 265 70 293.5 64 c 128,-1,17
 322 58 322 58 366 58 c 1,18,-1
 351 0 l 1,19,-1
 -139 0 l 1,20,-1
 -124 58 l 1,21,22
 36 58 36 58 74 201 c 2,23,-1
 208 700 l 2,24,25
 217 735 217 735 220.5 755 c 128,-1,26
 224 775 224 775 220 786 c 128,-1,27
 216 797 216 797 204 802.5 c 128,-1,28
 192 808 192 808 173 811 c 1,29,30
 151 816 151 816 131 822.5 c 128,-1,31
 111 829 111 829 90 831 c 1,32,-1
 103 878 l 1,33,-1
 408 979 l 1,34,-1
 454 979 l 1,35,-1
 405 798 l 1,36,37
 425 809 425 809 459 827.5 c 128,-1,38
 493 846 493 846 529 865.5 c 128,-1,39
 565 885 565 885 592.5 899 c 128,-1,40
 620 913 620 913 624 914 c 0,41,42
 695 945 695 945 755.5 963.5 c 128,-1,43
 816 982 816 982 859 982 c 0,44,45
 993 982 993 982 1031 893 c 128,-1,46
 1069 804 1069 804 1019 618 c 0,47,48
 985 489 985 489 951 377 c 128,-1,49
 917 265 917 265 881 160 c 1,50,-1
 880 155 l 2,51,52
 879 153 879 153 878.5 151.5 c 128,-1,53
 878 150 878 150 877 149 c 2,54,-1
 875 140 l 1,55,56
 853 58 853 58 979 58 c 2,57,-1
 1038 58 l 1,58,-1
 1023 0 l 1,0,-1
EndSplineSet
Substitution2: "<17001,16003> Urdu lookup 129 subtable" n
EndChar

StartChar: o
Encoding: 111 111 82
Width: 1250
GlyphClass: 2
Flags: W
LayerCount: 2
Fore
SplineSet
866 413 m 0,0,1
 893 515 893 515 889 606 c 128,-1,2
 885 697 885 697 854 765.5 c 128,-1,3
 823 834 823 834 767.5 873.5 c 128,-1,4
 712 913 712 913 638 913 c 0,5,6
 581 913 581 913 519.5 884.5 c 128,-1,7
 458 856 458 856 403 806.5 c 128,-1,8
 348 757 348 757 305 691 c 128,-1,9
 262 625 262 625 242 552 c 0,10,11
 216 452 216 452 218.5 359.5 c 128,-1,12
 221 267 221 267 250.5 196 c 128,-1,13
 280 125 280 125 336 83.5 c 128,-1,14
 392 42 392 42 471 42 c 0,15,16
 525 42 525 42 585 67 c 128,-1,17
 645 92 645 92 700 139.5 c 128,-1,18
 755 187 755 187 799 256 c 128,-1,19
 843 325 843 325 866 413 c 0,0,1
1070 472 m 0,20,21
 1041 365 1041 365 975 273 c 128,-1,22
 909 181 909 181 821.5 113.5 c 128,-1,23
 734 46 734 46 631 8 c 128,-1,24
 528 -30 528 -30 425 -30 c 0,25,26
 318 -30 318 -30 232.5 4.5 c 128,-1,27
 147 39 147 39 93 104 c 128,-1,28
 39 169 39 169 22 262 c 128,-1,29
 5 355 5 355 33 468 c 1,30,31
 63 581 63 581 129 675 c 128,-1,32
 195 769 195 769 283.5 837.5 c 128,-1,33
 372 906 372 906 477 944 c 128,-1,34
 582 982 582 982 690 982 c 0,35,36
 802 982 802 982 886 944 c 128,-1,37
 970 906 970 906 1021 838 c 128,-1,38
 1072 770 1072 770 1086 677 c 128,-1,39
 1100 584 1100 584 1070 472 c 0,20,21
EndSplineSet
Substitution2: "<17001,16003> Urdu lookup 129 subtable" o
EndChar

StartChar: p
Encoding: 112 112 83
Width: 1200
GlyphClass: 2
Flags: W
LayerCount: 2
Fore
SplineSet
831 415 m 0,0,1
 869 559 869 559 853 653 c 128,-1,2
 837 747 837 747 763 802 c 0,3,4
 733 825 733 825 703 836 c 128,-1,5
 673 847 673 847 638 847 c 0,6,7
 613 847 613 847 580.5 838.5 c 128,-1,8
 548 830 548 830 512 815 c 128,-1,9
 476 800 476 800 438 779 c 128,-1,10
 400 758 400 758 362 732 c 1,11,-1
 217 194 l 1,12,13
 271 136 271 136 334 102.5 c 128,-1,14
 397 69 397 69 461 69 c 0,15,16
 516 69 516 69 573.5 94.5 c 128,-1,17
 631 120 631 120 681 165.5 c 128,-1,18
 731 211 731 211 770.5 274.5 c 128,-1,19
 810 338 810 338 831 415 c 0,0,1
1029 523 m 1,20,21
 992 385 992 385 891 263 c 0,22,23
 838 198 838 198 777.5 146 c 128,-1,24
 717 94 717 94 650 59 c 256,25,26
 583 24 583 24 512.5 4.5 c 128,-1,27
 442 -15 442 -15 374 -16 c 0,28,29
 331 -16 331 -16 279.5 -3 c 128,-1,30
 228 10 228 10 174 31 c 1,31,-1
 71 -351 l 2,32,33
 32 -499 32 -499 186 -499 c 2,34,-1
 253 -499 l 1,35,-1
 238 -555 l 1,36,-1
 -335 -555 l 1,37,-1
 -320 -499 l 1,38,-1
 -289 -499 l 2,39,40
 -248 -499 -248 -499 -218 -490.5 c 128,-1,41
 -188 -482 -188 -482 -165 -463 c 128,-1,42
 -142 -444 -142 -444 -125.5 -411 c 128,-1,43
 -109 -378 -109 -378 -96 -330 c 2,44,-1
 186 722 l 2,45,46
 193 748 193 748 185 763.5 c 128,-1,47
 177 779 177 779 160 788 c 128,-1,48
 143 797 143 797 119 803 c 128,-1,49
 95 809 95 809 72 816 c 1,50,-1
 87 870 l 1,51,-1
 383 1029 l 1,52,-1
 441 1029 l 1,53,-1
 382 809 l 1,54,55
 519 896 519 896 619 935 c 128,-1,56
 719 974 719 974 792 974 c 0,57,58
 856 974 856 974 911 941 c 128,-1,59
 966 908 966 908 1000.5 849.5 c 128,-1,60
 1035 791 1035 791 1045 707.5 c 128,-1,61
 1055 624 1055 624 1029 523 c 1,20,21
EndSplineSet
Substitution2: "<17001,16003> Urdu lookup 129 subtable" p
EndChar

StartChar: q
Encoding: 113 113 84
Width: 1200
GlyphClass: 2
Flags: W
LayerCount: 2
Fore
SplineSet
826 633 m 2,0,1
 842 692 842 692 836.5 742.5 c 128,-1,2
 831 793 831 793 806.5 830.5 c 128,-1,3
 782 868 782 868 739.5 889.5 c 128,-1,4
 697 911 697 911 638 911 c 0,5,6
 565 911 565 911 499.5 882.5 c 128,-1,7
 434 854 434 854 378.5 802 c 128,-1,8
 323 750 323 750 281 677 c 128,-1,9
 239 604 239 604 215 515 c 0,10,11
 192 429 192 429 196.5 352 c 128,-1,12
 201 275 201 275 229.5 218 c 128,-1,13
 258 161 258 161 307.5 127 c 128,-1,14
 357 93 357 93 426 93 c 0,15,16
 489 93 489 93 565 126.5 c 128,-1,17
 641 160 641 160 714 213 c 1,18,-1
 826 633 l 2,0,1
843 -555 m 1,19,-1
 255 -555 l 1,20,-1
 270 -499 l 1,21,-1
 368 -499 l 2,22,23
 412 -499 412 -499 444.5 -489.5 c 128,-1,24
 477 -480 477 -480 500 -459.5 c 128,-1,25
 523 -439 523 -439 540 -405 c 128,-1,26
 557 -371 557 -371 570 -323 c 2,27,-1
 694 141 l 1,28,29
 576 63 576 63 481 22.5 c 128,-1,30
 386 -18 386 -18 299 -18 c 0,31,32
 109 -18 109 -18 46 129 c 0,33,34
 16 200 16 200 11 280 c 128,-1,35
 6 360 6 360 31 453 c 0,36,37
 59 558 59 558 121 653.5 c 128,-1,38
 183 749 183 749 269.5 822 c 128,-1,39
 356 895 356 895 462 938.5 c 128,-1,40
 568 982 568 982 680 982 c 0,41,42
 750 982 750 982 819 960.5 c 128,-1,43
 888 939 888 939 955 903 c 1,44,45
 982 927 982 927 1008 946.5 c 128,-1,46
 1034 966 1034 966 1054 977 c 1,47,-1
 1107 977 l 1,48,49
 1087 940 1087 940 1075.5 909 c 128,-1,50
 1064 878 1064 878 1056 850 c 2,51,-1
 732 -360 l 2,52,53
 714 -428 714 -428 735.5 -463.5 c 128,-1,54
 757 -499 757 -499 826 -499 c 2,55,-1
 858 -499 l 1,56,-1
 843 -555 l 1,19,-1
EndSplineSet
Substitution2: "<17001,16003> Urdu lookup 129 subtable" q
EndChar

StartChar: r
Encoding: 114 114 85
Width: 800
GlyphClass: 2
Flags: W
LayerCount: 2
Fore
SplineSet
871 908 m 1,0,-1
 770 754 l 1,1,2
 741 759 741 759 712.5 769.5 c 128,-1,3
 684 780 684 780 658 790.5 c 128,-1,4
 632 801 632 801 610 809 c 128,-1,5
 588 817 588 817 572 817 c 0,6,7
 551 817 551 817 521.5 797 c 128,-1,8
 492 777 492 777 461.5 748.5 c 128,-1,9
 431 720 431 720 405 690.5 c 128,-1,10
 379 661 379 661 362 641 c 1,11,-1
 238 179 l 2,12,13
 230 146 230 146 231 122.5 c 128,-1,14
 232 99 232 99 245.5 85 c 128,-1,15
 259 71 259 71 285.5 64.5 c 128,-1,16
 312 58 312 58 355 58 c 2,17,-1
 451 58 l 1,18,-1
 436 0 l 1,19,-1
 -142 0 l 1,20,-1
 -127 58 l 1,21,22
 -83 59 -83 59 -49.5 68 c 128,-1,23
 -16 77 -16 77 8.5 98 c 128,-1,24
 33 119 33 119 50.5 151 c 128,-1,25
 68 183 68 183 80 230 c 2,26,-1
 226 776 l 1,27,28
 193 792 193 792 155 806 c 128,-1,29
 117 820 117 820 81 834 c 1,30,-1
 94 884 l 1,31,-1
 398 979 l 1,32,-1
 453 979 l 1,33,-1
 395 743 l 1,34,35
 460 819 460 819 501 863.5 c 128,-1,36
 542 908 542 908 571 931 c 128,-1,37
 600 954 600 954 622.5 960 c 128,-1,38
 645 966 645 966 674 966 c 0,39,40
 688 966 688 966 710 960 c 128,-1,41
 732 954 732 954 751 945 c 1,42,-1
 871 908 l 1,0,-1
EndSplineSet
Substitution2: "<17001,16003> Urdu lookup 129 subtable" r
EndChar

StartChar: s
Encoding: 115 115 86
Width: 724
GlyphClass: 2
Flags: W
LayerCount: 2
Fore
SplineSet
519 249 m 0,0,1
 503 188 503 188 465.5 136.5 c 128,-1,2
 428 85 428 85 377.5 48.5 c 128,-1,3
 327 12 327 12 266 -9 c 128,-1,4
 205 -30 205 -30 142 -30 c 0,5,6
 115 -30 115 -30 90 -25.5 c 128,-1,7
 65 -21 65 -21 43.5 -14.5 c 128,-1,8
 22 -8 22 -8 6.5 -2.5 c 128,-1,9
 -9 3 -9 3 -18 3 c 0,10,11
 -26 3 -26 3 -38 -4.5 c 128,-1,12
 -50 -12 -50 -12 -62 -25 c 1,13,-1
 -108 -25 l 1,14,-1
 -60 252 l 1,15,-1
 -12 252 l 1,16,17
 -14 205 -14 205 -4.5 163.5 c 128,-1,18
 5 122 5 122 26 92 c 128,-1,19
 47 62 47 62 78 44 c 128,-1,20
 109 26 109 26 150 26 c 0,21,22
 180 26 180 26 213 37.5 c 128,-1,23
 246 49 246 49 274 69 c 128,-1,24
 302 89 302 89 323.5 117 c 128,-1,25
 345 145 345 145 354 179 c 0,26,27
 364 213 364 213 355 248.5 c 128,-1,28
 346 284 346 284 319 321 c 0,29,30
 308 335 308 335 288 354 c 128,-1,31
 268 373 268 373 244.5 395.5 c 128,-1,32
 221 418 221 418 193 442 c 128,-1,33
 165 466 165 466 140.5 489.5 c 128,-1,34
 116 513 116 513 97 533 c 128,-1,35
 78 553 78 553 69 566 c 0,36,37
 61 579 61 579 57.5 595.5 c 128,-1,38
 54 612 54 612 54 630.5 c 128,-1,39
 54 649 54 649 56 669.5 c 128,-1,40
 58 690 58 690 62 708 c 0,41,42
 79 769 79 769 115.5 819.5 c 128,-1,43
 152 870 152 870 203 906 c 128,-1,44
 254 942 254 942 316.5 962 c 128,-1,45
 379 982 379 982 448 982 c 0,46,47
 552 982 552 982 633 943 c 1,48,-1
 577 714 l 1,49,-1
 523 714 l 1,50,51
 529 758 529 758 523.5 794.5 c 128,-1,52
 518 831 518 831 501.5 857.5 c 128,-1,53
 485 884 485 884 457 898.5 c 128,-1,54
 429 913 429 913 392 913 c 0,55,56
 365 913 365 913 337 903.5 c 128,-1,57
 309 894 309 894 285.5 877 c 128,-1,58
 262 860 262 860 244 836.5 c 128,-1,59
 226 813 226 813 219 786 c 0,60,61
 211 755 211 755 220.5 717.5 c 128,-1,62
 230 680 230 680 255 652 c 1,63,64
 264 644 264 644 293 620.5 c 128,-1,65
 322 597 322 597 367 560 c 0,66,67
 418 518 418 518 453 482 c 128,-1,68
 488 446 488 446 506.5 409 c 128,-1,69
 525 372 525 372 528.5 333.5 c 128,-1,70
 532 295 532 295 519 249 c 0,0,1
EndSplineSet
Substitution2: "<17001,16003> Urdu lookup 129 subtable" s
EndChar

StartChar: t
Encoding: 116 116 87
Width: 700
GlyphClass: 2
Flags: W
LayerCount: 2
Fore
SplineSet
537 174 m 1,0,1
 461 73 461 73 381.5 21.5 c 128,-1,2
 302 -30 302 -30 211 -30 c 0,3,4
 159 -30 159 -30 119.5 -8 c 128,-1,5
 80 14 80 14 58.5 52 c 128,-1,6
 37 90 37 90 31.5 142 c 128,-1,7
 26 194 26 194 42 253 c 2,8,-1
 200 840 l 1,9,-1
 90 840 l 1,10,-1
 103 889 l 1,11,12
 265 956 265 956 414 1192 c 1,13,-1
 466 1192 l 1,14,-1
 403 956 l 1,15,-1
 747 956 l 1,16,-1
 674 840 l 1,17,-1
 372 840 l 1,18,-1
 224 290 l 2,19,20
 214 253 214 253 216.5 217.5 c 128,-1,21
 219 182 219 182 233 154.5 c 128,-1,22
 247 127 247 127 270 111 c 128,-1,23
 293 95 293 95 326 95 c 0,24,25
 360 95 360 95 404 125.5 c 128,-1,26
 448 156 448 156 501 219 c 1,27,-1
 537 174 l 1,0,1
EndSplineSet
Substitution2: "<17001,16003> Urdu lookup 129 subtable" t
EndChar

StartChar: u
Encoding: 117 117 88
Width: 1250
GlyphClass: 2
Flags: W
LayerCount: 2
Fore
SplineSet
1012 70 m 1,0,-1
 654 -31 l 1,1,-1
 705 157 l 1,2,3
 548 62 548 62 437.5 16 c 128,-1,4
 327 -30 327 -30 255 -30 c 0,5,6
 200 -30 200 -30 158.5 -11.5 c 128,-1,7
 117 7 117 7 91.5 40 c 128,-1,8
 66 73 66 73 59.5 120 c 128,-1,9
 53 167 53 167 68 221 c 2,10,-1
 209 749 l 2,11,12
 219 784 219 784 209.5 803 c 128,-1,13
 200 822 200 822 181.5 833 c 128,-1,14
 163 844 163 844 137.5 851 c 128,-1,15
 112 858 112 858 91 866 c 1,16,-1
 103 912 l 1,17,-1
 437 980 l 1,18,-1
 257 307 l 2,19,20
 244 261 244 261 250.5 222 c 128,-1,21
 257 183 257 183 277 155.5 c 128,-1,22
 297 128 297 128 331.5 113 c 128,-1,23
 366 98 366 98 412 98 c 0,24,25
 470 98 470 98 551.5 132.5 c 128,-1,26
 633 167 633 167 723 226 c 1,27,-1
 860 736 l 2,28,29
 870 776 870 776 871 798 c 128,-1,30
 872 820 872 820 862.5 831.5 c 128,-1,31
 853 843 853 843 833.5 848.5 c 128,-1,32
 814 854 814 854 783 861 c 1,33,34
 762 867 762 867 737.5 871 c 128,-1,35
 713 875 713 875 692 879 c 1,36,-1
 704 922 l 1,37,-1
 1095 979 l 1,38,-1
 878 170 l 2,39,40
 869 138 869 138 879 124 c 128,-1,41
 889 110 889 110 911 109 c 1,42,43
 922 113 922 113 937.5 113 c 128,-1,44
 953 113 953 113 970 116 c 2,45,-1
 1026 123 l 1,46,-1
 1012 70 l 1,0,-1
EndSplineSet
Substitution2: "<17001,16003> Urdu lookup 129 subtable" u
EndChar

StartChar: v
Encoding: 118 118 89
Width: 1150
GlyphClass: 2
Flags: W
LayerCount: 2
Fore
SplineSet
1177 901 m 1,0,1
 1116 890 1116 890 1056.5 845.5 c 128,-1,2
 997 801 997 801 946 732 c 0,3,4
 933 715 933 715 906 677.5 c 128,-1,5
 879 640 879 640 843.5 589 c 128,-1,6
 808 538 808 538 765 477 c 128,-1,7
 722 416 722 416 678 353.5 c 128,-1,8
 634 291 634 291 591.5 230.5 c 128,-1,9
 549 170 549 170 513.5 120 c 128,-1,10
 478 70 478 70 451 32.5 c 128,-1,11
 424 -5 424 -5 412 -21 c 1,12,-1
 334 -21 l 1,13,-1
 198 775 l 1,14,15
 194 820 194 820 179 844.5 c 128,-1,16
 164 869 164 869 144 881 c 128,-1,17
 124 893 124 893 100.5 896.5 c 128,-1,18
 77 900 77 900 56 903 c 1,19,-1
 71 956 l 1,20,-1
 569 956 l 1,21,-1
 554 901 l 1,22,23
 471 899 471 899 431.5 889 c 128,-1,24
 392 879 392 879 384 848 c 0,25,26
 379 831 379 831 378.5 814.5 c 128,-1,27
 378 798 378 798 383 769 c 128,-1,28
 388 740 388 740 397 691 c 128,-1,29
 406 642 406 642 418 558 c 1,30,31
 429 503 429 503 439 444 c 128,-1,32
 449 385 449 385 457 334 c 128,-1,33
 465 283 465 283 470.5 245 c 128,-1,34
 476 207 476 207 478 191 c 1,35,36
 491 208 491 208 528 260 c 128,-1,37
 565 312 565 312 617 385.5 c 128,-1,38
 669 459 669 459 731.5 548.5 c 128,-1,39
 794 638 794 638 858 729 c 0,40,41
 874 751 874 751 884 768.5 c 128,-1,42
 894 786 894 786 898 802 c 0,43,44
 910 845 910 845 877 870 c 128,-1,45
 844 895 844 895 751 901 c 1,46,-1
 766 956 l 1,47,-1
 1192 956 l 1,48,-1
 1177 901 l 1,0,1
EndSplineSet
Substitution2: "<17001,16003> Urdu lookup 129 subtable" v
EndChar

StartChar: w
Encoding: 119 119 90
Width: 1777
GlyphClass: 2
Flags: W
LayerCount: 2
Fore
SplineSet
1807 901 m 1,0,1
 1733 894 1733 894 1676 851.5 c 128,-1,2
 1619 809 1619 809 1565 735 c 0,3,4
 1556 722 1556 722 1532.5 686.5 c 128,-1,5
 1509 651 1509 651 1475.5 601 c 128,-1,6
 1442 551 1442 551 1401 490 c 128,-1,7
 1360 429 1360 429 1318 366.5 c 128,-1,8
 1276 304 1276 304 1234 241.5 c 128,-1,9
 1192 179 1192 179 1156.5 126.5 c 128,-1,10
 1121 74 1121 74 1095.5 35.5 c 128,-1,11
 1070 -3 1070 -3 1058 -21 c 1,12,-1
 984 -21 l 1,13,-1
 882 642 l 1,14,15
 871 626 871 626 847 591.5 c 128,-1,16
 823 557 823 557 791 510.5 c 128,-1,17
 759 464 759 464 721.5 410 c 128,-1,18
 684 356 684 356 645.5 299.5 c 128,-1,19
 607 243 607 243 570 190 c 128,-1,20
 533 137 533 137 502.5 93.5 c 128,-1,21
 472 50 472 50 450.5 19.5 c 128,-1,22
 429 -11 429 -11 421 -21 c 1,23,-1
 346 -21 l 1,24,-1
 206 784 l 2,25,26
 196 836 196 836 160.5 865 c 128,-1,27
 125 894 125 894 59 901 c 1,28,-1
 74 956 l 1,29,-1
 550 956 l 1,30,-1
 535 901 l 1,31,32
 405 895 405 895 391 840 c 0,33,34
 388 832 388 832 391 803.5 c 128,-1,35
 394 775 394 775 400 733 c 128,-1,36
 406 691 406 691 414.5 638.5 c 128,-1,37
 423 586 423 586 432.5 530 c 128,-1,38
 442 474 442 474 451.5 419.5 c 128,-1,39
 461 365 461 365 469.5 318 c 128,-1,40
 478 271 478 271 484.5 236.5 c 128,-1,41
 491 202 491 202 493 185 c 1,42,43
 505 203 505 203 534 244 c 128,-1,44
 563 285 563 285 600.5 339.5 c 128,-1,45
 638 394 638 394 679.5 454 c 128,-1,46
 721 514 721 514 758.5 568 c 128,-1,47
 796 622 796 622 825.5 664.5 c 128,-1,48
 855 707 855 707 867 724 c 1,49,50
 860 755 860 755 847 783 c 128,-1,51
 834 811 834 811 816.5 834.5 c 128,-1,52
 799 858 799 858 779.5 873.5 c 128,-1,53
 760 889 760 889 740 894 c 0,54,55
 728 897 728 897 709 900 c 128,-1,56
 690 903 690 903 680 903 c 1,57,-1
 695 956 l 1,58,-1
 1200 956 l 1,59,-1
 1185 901 l 1,60,61
 1119 900 1119 900 1086.5 883.5 c 128,-1,62
 1054 867 1054 867 1045 834 c 0,63,64
 1041 818 1041 818 1039.5 797 c 128,-1,65
 1038 776 1038 776 1041 750 c 1,66,67
 1063 609 1063 609 1084 474.5 c 128,-1,68
 1105 340 1105 340 1125 199 c 1,69,70
 1137 219 1137 219 1166.5 263 c 128,-1,71
 1196 307 1196 307 1233 361.5 c 128,-1,72
 1270 416 1270 416 1310.5 476 c 128,-1,73
 1351 536 1351 536 1387.5 589.5 c 128,-1,74
 1424 643 1424 643 1452.5 684 c 128,-1,75
 1481 725 1481 725 1492 742 c 0,76,77
 1509 767 1509 767 1520 789 c 128,-1,78
 1531 811 1531 811 1535 827 c 0,79,80
 1546 867 1546 867 1512.5 884 c 128,-1,81
 1479 901 1479 901 1394 901 c 1,82,-1
 1409 956 l 1,83,-1
 1822 956 l 1,84,-1
 1807 901 l 1,0,1
EndSplineSet
Substitution2: "<17001,16003> Urdu lookup 129 subtable" w
EndChar

StartChar: x
Encoding: 120 120 91
Width: 1177
GlyphClass: 2
Flags: W
LayerCount: 2
Fore
SplineSet
963 0 m 1,0,-1
 477 0 l 1,1,-1
 493 60 l 1,2,3
 551 60 551 60 581 67.5 c 128,-1,4
 611 75 611 75 616 95 c 0,5,6
 620 110 620 110 609 135 c 128,-1,7
 598 160 598 160 585 184 c 0,8,9
 557 239 557 239 525.5 300 c 128,-1,10
 494 361 494 361 464 413 c 1,11,12
 455 406 455 406 433.5 387.5 c 128,-1,13
 412 369 412 369 385 346 c 128,-1,14
 358 323 358 323 328 297.5 c 128,-1,15
 298 272 298 272 272 249.5 c 128,-1,16
 246 227 246 227 226.5 209.5 c 128,-1,17
 207 192 207 192 198 184 c 0,18,19
 159 152 159 152 152 126 c 0,20,21
 135 60 135 60 286 60 c 1,22,-1
 270 0 l 1,23,-1
 -183 0 l 1,24,-1
 -167 60 l 1,25,26
 -124 60 -124 60 -91 65.5 c 128,-1,27
 -58 71 -58 71 -28 84 c 128,-1,28
 2 97 2 97 34.5 120.5 c 128,-1,29
 67 144 67 144 111 181 c 0,30,31
 118 188 118 188 142.5 209.5 c 128,-1,32
 167 231 167 231 200.5 259.5 c 128,-1,33
 234 288 234 288 271 320.5 c 128,-1,34
 308 353 308 353 341 381.5 c 128,-1,35
 374 410 374 410 400 432.5 c 128,-1,36
 426 455 426 455 434 462 c 1,37,38
 431 468 431 468 419.5 491.5 c 128,-1,39
 408 515 408 515 393 546.5 c 128,-1,40
 378 578 378 578 360.5 613.5 c 128,-1,41
 343 649 343 649 328 680 c 128,-1,42
 313 711 313 711 302 733.5 c 128,-1,43
 291 756 291 756 288 760 c 0,44,45
 256 825 256 825 203 862 c 128,-1,46
 150 899 150 899 77 901 c 1,47,-1
 92 956 l 1,48,-1
 581 956 l 1,49,-1
 566 901 l 1,50,51
 514 901 514 901 487 892.5 c 128,-1,52
 460 884 460 884 455 864 c 0,53,54
 453 856 453 856 456 842 c 128,-1,55
 459 828 459 828 466 812 c 0,56,57
 491 757 491 757 521.5 698.5 c 128,-1,58
 552 640 552 640 576 582 c 1,59,60
 608 609 608 609 650 644 c 128,-1,61
 692 679 692 679 732 714.5 c 128,-1,62
 772 750 772 750 803 782 c 128,-1,63
 834 814 834 814 839 835 c 0,64,65
 857 901 857 901 734 901 c 1,66,-1
 749 956 l 1,67,-1
 1219 956 l 1,68,-1
 1204 901 l 1,69,-1
 1127 894 l 2,70,71
 1070 888 1070 888 1001 850.5 c 128,-1,72
 932 813 932 813 861 753 c 0,73,74
 798 700 798 700 733.5 645.5 c 128,-1,75
 669 591 669 591 604 533 c 1,76,77
 607 526 607 526 622 497.5 c 128,-1,78
 637 469 637 469 658 431.5 c 128,-1,79
 679 394 679 394 702 351.5 c 128,-1,80
 725 309 725 309 744.5 271.5 c 128,-1,81
 764 234 764 234 777.5 209 c 128,-1,82
 791 184 791 184 792 181 c 0,83,84
 808 153 808 153 823.5 130.5 c 128,-1,85
 839 108 839 108 859.5 91.5 c 128,-1,86
 880 75 880 75 909 67.5 c 128,-1,87
 938 60 938 60 979 60 c 1,88,-1
 963 0 l 1,0,-1
EndSplineSet
Substitution2: "<17001,16003> Urdu lookup 129 subtable" x
EndChar

StartChar: y
Encoding: 121 121 92
Width: 1127
GlyphClass: 2
Flags: W
LayerCount: 2
Fore
SplineSet
1155 901 m 1,0,1
 1083 894 1083 894 1021.5 846 c 128,-1,2
 960 798 960 798 910 713 c 1,3,-1
 233 -296 l 2,4,5
 189 -362 189 -362 150.5 -411 c 128,-1,6
 112 -460 112 -460 77.5 -491.5 c 128,-1,7
 43 -523 43 -523 10.5 -539 c 128,-1,8
 -22 -555 -22 -555 -53 -555 c 0,9,10
 -74 -555 -74 -555 -91 -548.5 c 128,-1,11
 -108 -542 -108 -542 -119 -529.5 c 128,-1,12
 -130 -517 -130 -517 -134.5 -501 c 128,-1,13
 -139 -485 -139 -485 -134 -465 c 256,14,15
 -129 -445 -129 -445 -120.5 -431.5 c 128,-1,16
 -112 -418 -112 -418 -96.5 -408.5 c 128,-1,17
 -81 -399 -81 -399 -55 -390 c 128,-1,18
 -29 -381 -29 -381 14 -369 c 1,19,20
 55 -359 55 -359 84 -343 c 128,-1,21
 113 -327 113 -327 135 -306 c 128,-1,22
 157 -285 157 -285 176 -258 c 128,-1,23
 195 -231 195 -231 218 -197 c 2,24,-1
 340 -17 l 1,25,26
 336 8 336 8 327.5 50.5 c 128,-1,27
 319 93 319 93 308.5 147.5 c 128,-1,28
 298 202 298 202 285 263.5 c 128,-1,29
 272 325 272 325 258.5 388.5 c 128,-1,30
 245 452 245 452 232.5 512 c 128,-1,31
 220 572 220 572 209.5 622.5 c 128,-1,32
 199 673 199 673 190.5 710 c 128,-1,33
 182 747 182 747 177 764 c 1,34,35
 173 803 173 803 162.5 829 c 128,-1,36
 152 855 152 855 134 871 c 128,-1,37
 116 887 116 887 91 894 c 128,-1,38
 66 901 66 901 28 901 c 1,39,-1
 43 956 l 1,40,-1
 530 956 l 1,41,-1
 515 901 l 1,42,43
 441 900 441 900 407 885 c 128,-1,44
 373 870 373 870 365 840 c 0,45,46
 353 796 353 796 373 720 c 0,47,48
 381 689 381 689 390.5 641 c 128,-1,49
 400 593 400 593 411 538.5 c 128,-1,50
 422 484 422 484 433 428 c 128,-1,51
 444 372 444 372 453 324 c 128,-1,52
 462 276 462 276 469 241.5 c 128,-1,53
 476 207 476 207 478 193 c 1,54,55
 480 196 480 196 495.5 218.5 c 128,-1,56
 511 241 511 241 534 276 c 128,-1,57
 557 311 557 311 586 354.5 c 128,-1,58
 615 398 615 398 645.5 443.5 c 128,-1,59
 676 489 676 489 705.5 532 c 128,-1,60
 735 575 735 575 757.5 609.5 c 128,-1,61
 780 644 780 644 793.5 664.5 c 128,-1,62
 807 685 807 685 807 686 c 0,63,64
 835 726 835 726 853 760.5 c 128,-1,65
 871 795 871 795 876 817 c 0,66,67
 887 858 887 858 856.5 878.5 c 128,-1,68
 826 899 826 899 749 901 c 1,69,-1
 764 956 l 1,70,-1
 1170 956 l 1,71,-1
 1155 901 l 1,0,1
EndSplineSet
Substitution2: "<17001,16003> Urdu lookup 129 subtable" y
EndChar

StartChar: z
Encoding: 122 122 93
Width: 974
GlyphClass: 2
Flags: W
LayerCount: 2
Fore
SplineSet
820 271 m 1,0,-1
 650 0 l 1,1,-1
 -127 0 l 1,2,-1
 -113 55 l 1,3,-1
 699 858 l 1,4,-1
 307 858 l 2,5,6
 271 858 271 858 237 814 c 0,7,8
 224 798 224 798 197 753 c 128,-1,9
 170 708 170 708 124 630 c 1,10,-1
 70 630 l 1,11,-1
 246 1019 l 1,12,-1
 298 1019 l 1,13,14
 293 1001 293 1001 294 988.5 c 128,-1,15
 295 976 295 976 305.5 968.5 c 128,-1,16
 316 961 316 961 336.5 958.5 c 128,-1,17
 357 956 357 956 389 956 c 2,18,-1
 962 956 l 1,19,-1
 948 904 l 1,20,-1
 137 98 l 1,21,-1
 563 98 l 2,22,23
 588 98 588 98 610.5 106 c 128,-1,24
 633 114 633 114 656.5 133 c 128,-1,25
 680 152 680 152 707 186 c 128,-1,26
 734 220 734 220 769 271 c 1,27,-1
 820 271 l 1,0,-1
EndSplineSet
Substitution2: "<17001,16003> Urdu lookup 129 subtable" z
EndChar

StartChar: braceleft
Encoding: 123 123 94
Width: 868
GlyphClass: 2
Flags: W
LayerCount: 2
Fore
SplineSet
46 545 m 1,0,1
 106 553 106 553 161.5 577 c 128,-1,2
 217 601 217 601 261.5 636 c 128,-1,3
 306 671 306 671 338.5 715.5 c 128,-1,4
 371 760 371 760 385 810 c 0,5,6
 389 825 389 825 392 851 c 128,-1,7
 395 877 395 877 398 908 c 128,-1,8
 401 939 401 939 403.5 973.5 c 128,-1,9
 406 1008 406 1008 408.5 1039.5 c 128,-1,10
 411 1071 411 1071 414.5 1097 c 128,-1,11
 418 1123 418 1123 422 1137 c 0,12,13
 444 1218 444 1218 491.5 1290.5 c 128,-1,14
 539 1363 539 1363 607 1421 c 128,-1,15
 675 1479 675 1479 760 1519.5 c 128,-1,16
 845 1560 845 1560 940 1575 c 1,17,-1
 928 1531 l 1,18,19
 658 1472 658 1472 604 1271 c 0,20,21
 600 1254 600 1254 596 1226.5 c 128,-1,22
 592 1199 592 1199 588.5 1165 c 128,-1,23
 585 1131 585 1131 582 1094 c 128,-1,24
 579 1057 579 1057 575.5 1023 c 128,-1,25
 572 989 572 989 567.5 960.5 c 128,-1,26
 563 932 563 932 558 914 c 0,27,28
 488 650 488 650 133 518 c 1,29,30
 423 391 423 391 356 141 c 0,31,32
 351 123 351 123 340 93.5 c 128,-1,33
 329 64 329 64 314 29 c 128,-1,34
 299 -6 299 -6 283 -43.5 c 128,-1,35
 267 -81 267 -81 251.5 -116.5 c 128,-1,36
 236 -152 236 -152 224.5 -182 c 128,-1,37
 213 -212 213 -212 208 -229 c 0,38,39
 195 -277 195 -277 202.5 -320 c 128,-1,40
 210 -363 210 -363 233.5 -396.5 c 128,-1,41
 257 -430 257 -430 297 -452 c 128,-1,42
 337 -474 337 -474 389 -481 c 1,43,-1
 375 -532 l 1,44,45
 289 -516 289 -516 226 -478 c 128,-1,46
 163 -440 163 -440 126 -382.5 c 128,-1,47
 89 -325 89 -325 81.5 -252 c 128,-1,48
 74 -179 74 -179 96 -96 c 0,49,50
 100 -79 100 -79 110.5 -52 c 128,-1,51
 121 -25 121 -25 136 8.5 c 128,-1,52
 151 42 151 42 166.5 78.5 c 128,-1,53
 182 115 182 115 197 147.5 c 128,-1,54
 212 180 212 180 222.5 208 c 128,-1,55
 233 236 233 236 238 254 c 0,56,57
 288 442 288 442 34 502 c 1,58,-1
 46 545 l 1,0,1
EndSplineSet
Substitution2: "<17001,16003> Urdu lookup 129 subtable" braceleft
EndChar

StartChar: bar
Encoding: 124 124 95
Width: 1224
GlyphClass: 2
Flags: W
LayerCount: 2
Fore
SplineSet
321 -555 m 1,0,-1
 208 -555 l 1,1,-1
 766 1530 l 1,2,-1
 879 1530 l 1,3,-1
 321 -555 l 1,0,-1
EndSplineSet
Substitution2: "<17001,16003> Urdu lookup 129 subtable" bar
EndChar

StartChar: braceright
Encoding: 125 125 96
Width: 868
GlyphClass: 2
Flags: W
LayerCount: 2
Fore
SplineSet
652 502 m 1,0,1
 367 442 367 442 317 254 c 0,2,3
 312 236 312 236 308 208 c 128,-1,4
 304 180 304 180 300.5 147.5 c 128,-1,5
 297 115 297 115 293 78.5 c 128,-1,6
 289 42 289 42 286 8.5 c 128,-1,7
 283 -25 283 -25 279 -52 c 128,-1,8
 275 -79 275 -79 271 -96 c 0,9,10
 249 -179 249 -179 201 -252 c 128,-1,11
 153 -325 153 -325 86 -382.5 c 128,-1,12
 19 -440 19 -440 -64.5 -478 c 128,-1,13
 -148 -516 -148 -516 -242 -532 c 1,14,-1
 -228 -481 l 1,15,16
 -174 -474 -174 -474 -122.5 -452 c 128,-1,17
 -71 -430 -71 -430 -28.5 -396.5 c 128,-1,18
 14 -363 14 -363 43.5 -320 c 128,-1,19
 73 -277 73 -277 86 -229 c 0,20,21
 91 -212 91 -212 95.5 -182 c 128,-1,22
 100 -152 100 -152 103.5 -116.5 c 128,-1,23
 107 -81 107 -81 111.5 -43.5 c 128,-1,24
 116 -6 116 -6 120 29 c 128,-1,25
 124 64 124 64 128 93.5 c 128,-1,26
 132 123 132 123 137 141 c 0,27,28
 204 391 204 391 561 518 c 1,29,30
 279 650 279 650 349 914 c 0,31,32
 354 932 354 932 366 960.5 c 128,-1,33
 378 989 378 989 392 1023 c 128,-1,34
 406 1057 406 1057 422.5 1094 c 128,-1,35
 439 1131 439 1131 453.5 1165 c 128,-1,36
 468 1199 468 1199 479.5 1226.5 c 128,-1,37
 491 1254 491 1254 495 1271 c 0,38,39
 549 1472 549 1472 310 1531 c 1,40,-1
 322 1575 l 1,41,42
 409 1560 409 1560 472 1519.5 c 128,-1,43
 535 1479 535 1479 572 1421 c 128,-1,44
 609 1363 609 1363 618 1290.5 c 128,-1,45
 627 1218 627 1218 605 1137 c 0,46,47
 601 1123 601 1123 590 1097 c 128,-1,48
 579 1071 579 1071 565.5 1039.5 c 128,-1,49
 552 1008 552 1008 536 973.5 c 128,-1,50
 520 939 520 939 506.5 908 c 128,-1,51
 493 877 493 877 482.5 851 c 128,-1,52
 472 825 472 825 468 810 c 0,53,54
 454 760 454 760 462 715.5 c 128,-1,55
 470 671 470 671 497 636 c 128,-1,56
 524 601 524 601 566.5 577 c 128,-1,57
 609 553 609 553 664 545 c 1,58,-1
 652 502 l 1,0,1
EndSplineSet
Substitution2: "<17001,16003> Urdu lookup 129 subtable" braceright
EndChar

StartChar: asciitilde
Encoding: 126 126 97
Width: 1301
GlyphClass: 2
Flags: W
LayerCount: 2
Fore
SplineSet
1336 936 m 1,0,1
 1223 566 1223 566 924 566 c 0,2,3
 866 566 866 566 786.5 592.5 c 128,-1,4
 707 619 707 619 592 671 c 1,5,6
 481 723 481 723 410.5 750.5 c 128,-1,7
 340 778 340 778 295 778 c 0,8,9
 140 778 140 778 45 566 c 1,10,-1
 -34 566 l 1,11,12
 -9 653 -9 653 31.5 721.5 c 128,-1,13
 72 790 72 790 125 837.5 c 128,-1,14
 178 885 178 885 242.5 910.5 c 128,-1,15
 307 936 307 936 379 936 c 0,16,17
 476 936 476 936 697 828 c 0,18,19
 925 717 925 717 1010 717 c 0,20,21
 1178 717 1178 717 1256 936 c 1,22,-1
 1336 936 l 1,0,1
EndSplineSet
Substitution2: "<17001,16003> Urdu lookup 129 subtable" asciitilde
EndChar

StartChar: Adieresis
Encoding: 196 196 98
Width: 1625
GlyphClass: 2
Flags: W
LayerCount: 2
Fore
SplineSet
976 1812 m 0,0,1
 970 1789 970 1789 956 1769 c 128,-1,2
 942 1749 942 1749 923.5 1734 c 128,-1,3
 905 1719 905 1719 882.5 1710.5 c 128,-1,4
 860 1702 860 1702 836 1702 c 256,5,6
 812 1702 812 1702 793.5 1710.5 c 128,-1,7
 775 1719 775 1719 764 1734 c 128,-1,8
 753 1749 753 1749 750 1769 c 128,-1,9
 747 1789 747 1789 753 1812 c 0,10,11
 766 1861 766 1861 806 1892.5 c 128,-1,12
 846 1924 846 1924 895 1924 c 256,13,14
 944 1924 944 1924 966.5 1892.5 c 128,-1,15
 989 1861 989 1861 976 1812 c 0,0,1
1441 1812 m 0,16,17
 1435 1789 1435 1789 1421.5 1769 c 128,-1,18
 1408 1749 1408 1749 1389 1734 c 128,-1,19
 1370 1719 1370 1719 1348 1710.5 c 128,-1,20
 1326 1702 1326 1702 1301 1702 c 0,21,22
 1252 1702 1252 1702 1229.5 1733.5 c 128,-1,23
 1207 1765 1207 1765 1220 1812 c 0,24,25
 1233 1861 1233 1861 1272 1892.5 c 128,-1,26
 1311 1924 1311 1924 1360 1924 c 256,27,28
 1409 1924 1409 1924 1431.5 1892.5 c 128,-1,29
 1454 1861 1454 1861 1441 1812 c 0,16,17
972 773 m 1,30,31
 970 793 970 793 966 836.5 c 128,-1,32
 962 880 962 880 956 934 c 128,-1,33
 950 988 950 988 943 1048 c 128,-1,34
 936 1108 936 1108 930 1160.5 c 128,-1,35
 924 1213 924 1213 919.5 1253 c 128,-1,36
 915 1293 915 1293 913 1308 c 1,37,38
 902 1291 902 1291 874.5 1247.5 c 128,-1,39
 847 1204 847 1204 812.5 1149.5 c 128,-1,40
 778 1095 778 1095 739.5 1034.5 c 128,-1,41
 701 974 701 974 667 920 c 128,-1,42
 633 866 633 866 607.5 826.5 c 128,-1,43
 582 787 582 787 574 773 c 1,44,-1
 972 773 l 1,30,31
1413 0 m 1,45,-1
 747 0 l 1,46,-1
 762 58 l 1,47,-1
 829 58 l 2,48,49
 884 58 884 58 920 61.5 c 128,-1,50
 956 65 956 65 978.5 73 c 128,-1,51
 1001 81 1001 81 1013.5 96.5 c 128,-1,52
 1026 112 1026 112 1031 134 c 1,53,54
 1036 150 1036 150 1034.5 175.5 c 128,-1,55
 1033 201 1033 201 1031 229 c 0,56,57
 1030 245 1030 245 1026.5 278.5 c 128,-1,58
 1023 312 1023 312 1018 354.5 c 128,-1,59
 1013 397 1013 397 1008 444.5 c 128,-1,60
 1003 492 1003 492 998.5 534 c 128,-1,61
 994 576 994 576 990.5 610 c 128,-1,62
 987 644 987 644 985 658 c 1,63,-1
 499 658 l 1,64,65
 471 614 471 614 436 560.5 c 128,-1,66
 401 507 401 507 367 452 c 128,-1,67
 333 397 333 397 300 343.5 c 128,-1,68
 267 290 267 290 241 247 c 128,-1,69
 215 204 215 204 198 174.5 c 128,-1,70
 181 145 181 145 179 138 c 0,71,72
 158 58 158 58 342 58 c 2,73,-1
 386 58 l 1,74,-1
 371 0 l 1,75,-1
 -191 0 l 1,76,-1
 -176 58 l 1,77,78
 -110 61 -110 61 -65.5 76 c 128,-1,79
 -21 91 -21 91 13.5 119.5 c 128,-1,80
 48 148 48 148 78 190 c 128,-1,81
 108 232 108 232 145 289 c 0,82,83
 163 318 163 318 201.5 379.5 c 128,-1,84
 240 441 240 441 292 522.5 c 128,-1,85
 344 604 344 604 405.5 700.5 c 128,-1,86
 467 797 467 797 528.5 895.5 c 128,-1,87
 590 994 590 994 650 1088.5 c 128,-1,88
 710 1183 710 1183 760 1261.5 c 128,-1,89
 810 1340 810 1340 845 1395.5 c 128,-1,90
 880 1451 880 1451 893 1472 c 1,91,92
 892 1486 892 1486 890 1503 c 128,-1,93
 888 1520 888 1520 886 1530 c 1,94,-1
 1107 1530 l 1,95,-1
 1251 202 l 1,96,97
 1257 162 1257 162 1268.5 134 c 128,-1,98
 1280 106 1280 106 1300.5 89.5 c 128,-1,99
 1321 73 1321 73 1352 65.5 c 128,-1,100
 1383 58 1383 58 1428 58 c 1,101,-1
 1413 0 l 1,45,-1
EndSplineSet
Substitution2: "<17001,16003> Urdu lookup 129 subtable" Adieresis
EndChar

StartChar: Aring
Encoding: 197 197 99
AltUni2: 00212b.ffffffff.0
Width: 1625
GlyphClass: 2
Flags: W
LayerCount: 2
Fore
SplineSet
1066 1703 m 0,0,1
 1097 1703 1097 1703 1126 1714.5 c 128,-1,2
 1155 1726 1155 1726 1181 1746 c 128,-1,3
 1207 1766 1207 1766 1225.5 1793 c 128,-1,4
 1244 1820 1244 1820 1252 1849 c 0,5,6
 1260 1879 1260 1879 1255.5 1905.5 c 128,-1,7
 1251 1932 1251 1932 1236 1952 c 128,-1,8
 1221 1972 1221 1972 1198 1983 c 128,-1,9
 1175 1994 1175 1994 1144 1994 c 0,10,11
 1116 1994 1116 1994 1087 1983 c 128,-1,12
 1058 1972 1058 1972 1032.5 1952 c 128,-1,13
 1007 1932 1007 1932 987.5 1905.5 c 128,-1,14
 968 1879 968 1879 960 1849 c 0,15,16
 952 1820 952 1820 957.5 1793 c 128,-1,17
 963 1766 963 1766 977.5 1746 c 128,-1,18
 992 1726 992 1726 1015 1714.5 c 128,-1,19
 1038 1703 1038 1703 1066 1703 c 0,0,1
972 773 m 1,20,21
 970 793 970 793 966 836.5 c 128,-1,22
 962 880 962 880 956 934 c 128,-1,23
 950 988 950 988 943 1048 c 128,-1,24
 936 1108 936 1108 930 1160.5 c 128,-1,25
 924 1213 924 1213 919.5 1253 c 128,-1,26
 915 1293 915 1293 913 1308 c 1,27,28
 902 1291 902 1291 874.5 1247.5 c 128,-1,29
 847 1204 847 1204 812.5 1149.5 c 128,-1,30
 778 1095 778 1095 739.5 1034.5 c 128,-1,31
 701 974 701 974 667 920 c 128,-1,32
 633 866 633 866 607.5 826.5 c 128,-1,33
 582 787 582 787 574 773 c 1,34,-1
 972 773 l 1,20,21
1168 2083 m 256,35,36
 1216 2083 1216 2083 1253.5 2064 c 128,-1,37
 1291 2045 1291 2045 1314.5 2014 c 128,-1,38
 1338 1983 1338 1983 1345.5 1940 c 128,-1,39
 1353 1897 1353 1897 1340 1849 c 256,40,41
 1327 1801 1327 1801 1297 1758.5 c 128,-1,42
 1267 1716 1267 1716 1227 1684.5 c 128,-1,43
 1187 1653 1187 1653 1139 1634 c 128,-1,44
 1091 1615 1091 1615 1042 1615 c 0,45,46
 994 1615 994 1615 957 1634 c 128,-1,47
 920 1653 920 1653 897 1684.5 c 128,-1,48
 874 1716 874 1716 867.5 1758.5 c 128,-1,49
 861 1801 861 1801 874 1849 c 256,50,51
 887 1897 887 1897 916.5 1940 c 128,-1,52
 946 1983 946 1983 985.5 2014 c 128,-1,53
 1025 2045 1025 2045 1072.5 2064 c 128,-1,54
 1120 2083 1120 2083 1168 2083 c 256,35,36
1413 0 m 1,55,-1
 747 0 l 1,56,-1
 762 58 l 1,57,-1
 829 58 l 2,58,59
 884 58 884 58 920 61.5 c 128,-1,60
 956 65 956 65 978.5 73 c 128,-1,61
 1001 81 1001 81 1013.5 96.5 c 128,-1,62
 1026 112 1026 112 1031 134 c 1,63,64
 1036 150 1036 150 1034.5 175.5 c 128,-1,65
 1033 201 1033 201 1031 229 c 0,66,67
 1030 245 1030 245 1026.5 278.5 c 128,-1,68
 1023 312 1023 312 1018 354.5 c 128,-1,69
 1013 397 1013 397 1008 444.5 c 128,-1,70
 1003 492 1003 492 998.5 534 c 128,-1,71
 994 576 994 576 990.5 610 c 128,-1,72
 987 644 987 644 985 658 c 1,73,-1
 499 658 l 1,74,75
 471 614 471 614 436 560.5 c 128,-1,76
 401 507 401 507 367 452 c 128,-1,77
 333 397 333 397 300 343.5 c 128,-1,78
 267 290 267 290 241 247 c 128,-1,79
 215 204 215 204 198 174.5 c 128,-1,80
 181 145 181 145 179 138 c 0,81,82
 158 58 158 58 342 58 c 2,83,-1
 386 58 l 1,84,-1
 371 0 l 1,85,-1
 -191 0 l 1,86,-1
 -176 58 l 1,87,88
 -110 61 -110 61 -65.5 76 c 128,-1,89
 -21 91 -21 91 13.5 119.5 c 128,-1,90
 48 148 48 148 78 190 c 128,-1,91
 108 232 108 232 145 289 c 0,92,93
 163 318 163 318 201.5 379.5 c 128,-1,94
 240 441 240 441 292 522.5 c 128,-1,95
 344 604 344 604 405.5 700.5 c 128,-1,96
 467 797 467 797 528.5 895.5 c 128,-1,97
 590 994 590 994 650 1088.5 c 128,-1,98
 710 1183 710 1183 760 1261.5 c 128,-1,99
 810 1340 810 1340 845 1395.5 c 128,-1,100
 880 1451 880 1451 893 1472 c 1,101,102
 892 1486 892 1486 890 1503 c 128,-1,103
 888 1520 888 1520 886 1530 c 1,104,-1
 1107 1530 l 1,105,-1
 1251 202 l 1,106,107
 1257 162 1257 162 1268.5 134 c 128,-1,108
 1280 106 1280 106 1300.5 89.5 c 128,-1,109
 1321 73 1321 73 1352 65.5 c 128,-1,110
 1383 58 1383 58 1428 58 c 1,111,-1
 1413 0 l 1,55,-1
EndSplineSet
Substitution2: "<17001,16003> Urdu lookup 129 subtable" Aring
EndChar

StartChar: Ccedilla
Encoding: 199 199 100
Width: 1750
GlyphClass: 2
Flags: W
LayerCount: 2
Fore
SplineSet
1561 388 m 1,0,1
 1532 333 1532 333 1498 280 c 128,-1,2
 1464 227 1464 227 1430.5 180 c 128,-1,3
 1397 133 1397 133 1366.5 93.5 c 128,-1,4
 1336 54 1336 54 1311 25 c 1,5,6
 1297 28 1297 28 1284.5 29.5 c 128,-1,7
 1272 31 1272 31 1259 31 c 0,8,9
 1252 31 1252 31 1241.5 29.5 c 128,-1,10
 1231 28 1231 28 1219 26 c 0,11,12
 1172 18 1172 18 1108.5 5.5 c 128,-1,13
 1045 -7 1045 -7 982 -16.5 c 128,-1,14
 919 -26 919 -26 863.5 -33 c 128,-1,15
 808 -40 808 -40 777 -40 c 0,16,17
 757 -40 757 -40 737.5 -39 c 128,-1,18
 718 -38 718 -38 700 -38 c 1,19,-1
 644 -104 l 1,20,-1
 657 -104 l 2,21,22
 688 -104 688 -104 714 -117.5 c 128,-1,23
 740 -131 740 -131 757 -155.5 c 128,-1,24
 774 -180 774 -180 779 -214.5 c 128,-1,25
 784 -249 784 -249 773 -288 c 0,26,27
 761 -333 761 -333 734.5 -371.5 c 128,-1,28
 708 -410 708 -410 671.5 -438 c 128,-1,29
 635 -466 635 -466 592.5 -482.5 c 128,-1,30
 550 -499 550 -499 506 -499 c 256,31,32
 462 -499 462 -499 404 -476 c 1,33,-1
 434 -433 l 1,34,35
 462 -443 462 -443 498 -443 c 0,36,37
 522 -443 522 -443 547 -434 c 128,-1,38
 572 -425 572 -425 591.5 -410.5 c 128,-1,39
 611 -396 611 -396 626.5 -375.5 c 128,-1,40
 642 -355 642 -355 649 -330 c 0,41,42
 671 -248 671 -248 600 -248 c 0,43,44
 554 -248 554 -248 415 -305 c 1,45,-1
 651 -35 l 1,46,47
 479 -19 479 -19 360 52 c 0,48,49
 272 104 272 104 212 173.5 c 128,-1,50
 152 243 152 243 119 334 c 0,51,52
 87 421 87 421 89 519 c 128,-1,53
 91 617 91 617 118 728 c 1,54,55
 149 847 149 847 203 948 c 128,-1,56
 257 1049 257 1049 336 1142 c 1,57,58
 414 1232 414 1232 513 1302 c 128,-1,59
 612 1372 612 1372 726 1427 c 0,60,61
 840 1483 840 1483 954.5 1506 c 128,-1,62
 1069 1529 1069 1529 1196 1530 c 0,63,64
 1295 1530 1295 1530 1391.5 1512.5 c 128,-1,65
 1488 1495 1488 1495 1573 1464 c 1,66,67
 1605 1451 1605 1451 1633 1442.5 c 128,-1,68
 1661 1434 1661 1434 1672 1434 c 0,69,70
 1705 1434 1705 1434 1718 1449 c 1,71,-1
 1759 1449 l 1,72,-1
 1685 1092 l 1,73,-1
 1631 1092 l 1,74,75
 1606 1323 1606 1323 1416 1414 c 0,76,77
 1367 1438 1367 1438 1310.5 1448.5 c 128,-1,78
 1254 1459 1254 1459 1191 1459 c 0,79,80
 791 1459 791 1459 543 1133 c 0,81,82
 482 1053 482 1053 439 966.5 c 128,-1,83
 396 880 396 880 368 776 c 0,84,85
 326 616 326 616 340 486.5 c 128,-1,86
 354 357 354 357 423 246 c 0,87,88
 492 136 492 136 598.5 85 c 128,-1,89
 705 34 705 34 836 31 c 1,90,91
 1032 31 1032 31 1197 118.5 c 128,-1,92
 1362 206 1362 206 1509 388 c 1,93,-1
 1561 388 l 1,0,1
EndSplineSet
Substitution2: "<17001,16003> Urdu lookup 129 subtable" Ccedilla
EndChar

StartChar: Eacute
Encoding: 201 201 101
Width: 1426
GlyphClass: 2
Flags: W
LayerCount: 2
Fore
SplineSet
1274 1981 m 0,0,1
 1266 1952 1266 1952 1211.5 1906.5 c 128,-1,2
 1157 1861 1157 1861 1065 1808 c 0,3,4
 1031 1789 1031 1789 992 1767 c 128,-1,5
 953 1745 953 1745 913 1722.5 c 128,-1,6
 873 1700 873 1700 834.5 1678.5 c 128,-1,7
 796 1657 796 1657 761 1638 c 1,8,-1
 718 1638 l 1,9,-1
 1031 1952 l 2,10,11
 1081 2002 1081 2002 1129 2029.5 c 128,-1,12
 1177 2057 1177 2057 1213 2057 c 0,13,14
 1295 2057 1295 2057 1274 1981 c 0,0,1
1219 367 m 1,15,-1
 1083 0 l 1,16,-1
 -194 0 l 1,17,-1
 -179 58 l 1,18,-1
 -108 58 l 2,19,20
 -36 58 -36 58 9.5 68.5 c 128,-1,21
 55 79 55 79 84 102 c 128,-1,22
 113 125 113 125 130 161 c 128,-1,23
 147 197 147 197 160 246 c 2,24,-1
 429 1250 l 2,25,26
 445 1308 445 1308 444.5 1344.5 c 128,-1,27
 444 1381 444 1381 427.5 1401.5 c 128,-1,28
 411 1422 411 1422 379 1430 c 128,-1,29
 347 1438 347 1438 298 1438 c 2,30,-1
 239 1438 l 1,31,-1
 254 1494 l 1,32,-1
 1408 1494 l 1,33,-1
 1316 1152 l 1,34,-1
 1282 1152 l 1,35,36
 1297 1277 1297 1277 1270.5 1337 c 128,-1,37
 1244 1397 1244 1397 1179 1397 c 2,38,-1
 681 1397 l 1,39,-1
 527 822 l 1,40,-1
 948 822 l 2,41,42
 980 822 980 822 1005.5 831.5 c 128,-1,43
 1031 841 1031 841 1052 861.5 c 128,-1,44
 1073 882 1073 882 1091 916.5 c 128,-1,45
 1109 951 1109 951 1128 1001 c 1,46,-1
 1182 1001 l 1,47,-1
 1057 536 l 1,48,-1
 1003 536 l 1,49,50
 1021 643 1021 643 1007 676 c 0,51,52
 997 698 997 698 967.5 711 c 128,-1,53
 938 724 938 724 897 724 c 2,54,-1
 500 724 l 1,55,-1
 366 222 l 2,56,57
 357 188 357 188 356 164 c 128,-1,58
 355 140 355 140 366 125.5 c 128,-1,59
 377 111 377 111 399 104.5 c 128,-1,60
 421 98 421 98 456 98 c 2,61,-1
 823 98 l 2,62,63
 885 98 885 98 932.5 114.5 c 128,-1,64
 980 131 980 131 1019 165.5 c 128,-1,65
 1058 200 1058 200 1093.5 250.5 c 128,-1,66
 1129 301 1129 301 1167 367 c 1,67,-1
 1219 367 l 1,15,-1
EndSplineSet
Substitution2: "<17001,16003> Urdu lookup 129 subtable" Eacute
EndChar

StartChar: Ntilde
Encoding: 209 209 102
Width: 1951
GlyphClass: 2
Flags: W
LayerCount: 2
Fore
SplineSet
1334 1887 m 0,0,1
 1363 1874 1363 1874 1387 1865.5 c 128,-1,2
 1411 1857 1411 1857 1439 1857 c 0,3,4
 1491 1857 1491 1857 1525.5 1881.5 c 128,-1,5
 1560 1906 1560 1906 1582 1961 c 1,6,-1
 1693 1961 l 1,7,8
 1662 1890 1662 1890 1627 1843 c 128,-1,9
 1592 1796 1592 1796 1554 1768 c 128,-1,10
 1516 1740 1516 1740 1475 1728 c 128,-1,11
 1434 1716 1434 1716 1392 1716 c 0,12,13
 1372 1716 1372 1716 1349 1721.5 c 128,-1,14
 1326 1727 1326 1727 1302 1734.5 c 128,-1,15
 1278 1742 1278 1742 1256 1750.5 c 128,-1,16
 1234 1759 1234 1759 1217 1766 c 0,17,18
 1193 1777 1193 1777 1173 1784 c 128,-1,19
 1153 1791 1153 1791 1136.5 1796 c 128,-1,20
 1120 1801 1120 1801 1104.5 1802.5 c 128,-1,21
 1089 1804 1089 1804 1073 1804 c 0,22,23
 1032 1804 1032 1804 999 1779 c 128,-1,24
 966 1754 966 1754 942 1700 c 1,25,-1
 839 1700 l 1,26,27
 949 1944 949 1944 1139 1944 c 0,28,29
 1158 1944 1158 1944 1177.5 1941.5 c 128,-1,30
 1197 1939 1197 1939 1220.5 1932.5 c 128,-1,31
 1244 1926 1244 1926 1271 1914.5 c 128,-1,32
 1298 1903 1298 1903 1334 1887 c 0,0,1
2095 1438 m 1,33,34
 2031 1438 2031 1438 1987 1432 c 128,-1,35
 1943 1426 1943 1426 1914 1412.5 c 128,-1,36
 1885 1399 1885 1399 1869.5 1375.5 c 128,-1,37
 1854 1352 1854 1352 1845 1318 c 2,38,-1
 1487 -16 l 1,39,-1
 1417 -16 l 1,40,-1
 537 1266 l 1,41,-1
 267 259 l 2,42,43
 246 180 246 180 255 134.5 c 128,-1,44
 264 89 264 89 297 73 c 1,45,46
 321 65 321 65 360 62 c 128,-1,47
 399 59 399 59 451 58 c 1,48,-1
 436 0 l 1,49,-1
 -128 0 l 1,50,-1
 -113 58 l 1,51,-1
 -98 58 l 2,52,53
 94 58 94 58 136 213 c 2,54,-1
 448 1379 l 1,55,56
 414 1403 414 1403 364.5 1419.5 c 128,-1,57
 315 1436 315 1436 260 1438 c 1,58,-1
 275 1494 l 1,59,-1
 662 1494 l 1,60,-1
 1463 332 l 1,61,-1
 1713 1265 l 2,62,63
 1728 1321 1728 1321 1723.5 1354.5 c 128,-1,64
 1719 1388 1719 1388 1696.5 1406 c 128,-1,65
 1674 1424 1674 1424 1631.5 1430.5 c 128,-1,66
 1589 1437 1589 1437 1527 1438 c 1,67,-1
 1542 1494 l 1,68,-1
 2110 1494 l 1,69,-1
 2095 1438 l 1,33,34
EndSplineSet
Substitution2: "<17001,16003> Urdu lookup 129 subtable" Ntilde
EndChar

StartChar: Odieresis
Encoding: 214 214 103
Width: 1976
GlyphClass: 2
Flags: W
LayerCount: 2
Fore
SplineSet
1617 1812 m 0,0,1
 1611 1789 1611 1789 1597 1769 c 128,-1,2
 1583 1749 1583 1749 1564 1734 c 128,-1,3
 1545 1719 1545 1719 1523 1710.5 c 128,-1,4
 1501 1702 1501 1702 1477 1702 c 256,5,6
 1453 1702 1453 1702 1434.5 1710.5 c 128,-1,7
 1416 1719 1416 1719 1405.5 1734 c 128,-1,8
 1395 1749 1395 1749 1392 1769 c 128,-1,9
 1389 1789 1389 1789 1395 1812 c 0,10,11
 1408 1861 1408 1861 1447.5 1892.5 c 128,-1,12
 1487 1924 1487 1924 1536 1924 c 256,13,14
 1585 1924 1585 1924 1607.5 1892.5 c 128,-1,15
 1630 1861 1630 1861 1617 1812 c 0,0,1
1151 1812 m 0,16,17
 1145 1789 1145 1789 1131.5 1769 c 128,-1,18
 1118 1749 1118 1749 1099 1734 c 128,-1,19
 1080 1719 1080 1719 1058 1710.5 c 128,-1,20
 1036 1702 1036 1702 1012 1702 c 256,21,22
 988 1702 988 1702 969.5 1710.5 c 128,-1,23
 951 1719 951 1719 940 1734 c 128,-1,24
 929 1749 929 1749 926 1769 c 128,-1,25
 923 1789 923 1789 929 1812 c 0,26,27
 942 1861 942 1861 982 1892.5 c 128,-1,28
 1022 1924 1022 1924 1071 1924 c 256,29,30
 1120 1924 1120 1924 1142 1892.5 c 128,-1,31
 1164 1861 1164 1861 1151 1812 c 0,16,17
1601 708 m 0,32,33
 1645 871 1645 871 1632.5 1009 c 128,-1,34
 1620 1147 1620 1147 1557 1247 c 128,-1,35
 1494 1347 1494 1347 1386.5 1403 c 128,-1,36
 1279 1459 1279 1459 1133 1459 c 0,37,38
 848 1459 848 1459 634 1234 c 0,39,40
 539 1135 539 1135 473 1026 c 128,-1,41
 407 917 407 917 373 788 c 0,42,43
 320 590 320 590 357 409 c 0,44,45
 375 320 375 320 419.5 251.5 c 128,-1,46
 464 183 464 183 534 130 c 0,47,48
 602 78 602 78 681 55.5 c 128,-1,49
 760 33 760 33 853 31 c 1,50,51
 976 31 976 31 1093 80.5 c 128,-1,52
 1210 130 1210 130 1310 220 c 128,-1,53
 1410 310 1410 310 1485.5 434 c 128,-1,54
 1561 558 1561 558 1601 708 c 0,32,33
1860 788 m 0,55,56
 1811 606 1811 606 1709 461 c 128,-1,57
 1607 316 1607 316 1450 194 c 1,58,59
 1292 80 1292 80 1128 20.5 c 128,-1,60
 964 -39 964 -39 783 -39 c 0,61,62
 670 -39 670 -39 570 -16 c 128,-1,63
 470 7 470 7 389 50 c 0,64,65
 299 97 299 97 234 166.5 c 128,-1,66
 169 236 169 236 131 323 c 1,67,68
 96 409 96 409 92.5 505.5 c 128,-1,69
 89 602 89 602 116 712 c 1,70,71
 179 947 179 947 341 1135 c 0,72,73
 418 1225 418 1225 522 1298 c 128,-1,74
 626 1371 626 1371 740 1426 c 0,75,76
 853 1481 853 1481 970.5 1504.5 c 128,-1,77
 1088 1528 1088 1528 1215 1530 c 1,78,79
 1328 1530 1328 1530 1427.5 1504.5 c 128,-1,80
 1527 1479 1527 1479 1608 1432 c 128,-1,81
 1689 1385 1689 1385 1749 1318.5 c 128,-1,82
 1809 1252 1809 1252 1843.5 1169.5 c 128,-1,83
 1878 1087 1878 1087 1883 990.5 c 128,-1,84
 1888 894 1888 894 1860 788 c 0,55,56
EndSplineSet
Substitution2: "<17001,16003> Urdu lookup 129 subtable" Odieresis
EndChar

StartChar: Udieresis
Encoding: 220 220 104
Width: 1900
GlyphClass: 2
Flags: W
LayerCount: 2
Fore
SplineSet
1579 1812 m 0,0,1
 1573 1789 1573 1789 1558.5 1769 c 128,-1,2
 1544 1749 1544 1749 1525.5 1734 c 128,-1,3
 1507 1719 1507 1719 1484.5 1710.5 c 128,-1,4
 1462 1702 1462 1702 1438 1702 c 256,5,6
 1414 1702 1414 1702 1396 1710.5 c 128,-1,7
 1378 1719 1378 1719 1367 1734 c 128,-1,8
 1356 1749 1356 1749 1353.5 1769 c 128,-1,9
 1351 1789 1351 1789 1357 1812 c 0,10,11
 1370 1861 1370 1861 1409 1892.5 c 128,-1,12
 1448 1924 1448 1924 1497 1924 c 256,13,14
 1546 1924 1546 1924 1569 1892.5 c 128,-1,15
 1592 1861 1592 1861 1579 1812 c 0,0,1
1113 1812 m 0,16,17
 1107 1789 1107 1789 1093 1769 c 128,-1,18
 1079 1749 1079 1749 1060.5 1734 c 128,-1,19
 1042 1719 1042 1719 1020 1710.5 c 128,-1,20
 998 1702 998 1702 973 1702 c 0,21,22
 950 1702 950 1702 931.5 1710.5 c 128,-1,23
 913 1719 913 1719 902 1734 c 128,-1,24
 891 1749 891 1749 888 1769 c 128,-1,25
 885 1789 885 1789 891 1812 c 0,26,27
 904 1861 904 1861 943.5 1892.5 c 128,-1,28
 983 1924 983 1924 1032 1924 c 256,29,30
 1081 1924 1081 1924 1103.5 1892.5 c 128,-1,31
 1126 1861 1126 1861 1113 1812 c 0,16,17
2057 1438 m 1,32,33
 1998 1437 1998 1437 1953 1424.5 c 128,-1,34
 1908 1412 1908 1412 1875 1386 c 128,-1,35
 1842 1360 1842 1360 1819 1319.5 c 128,-1,36
 1796 1279 1796 1279 1781 1223 c 2,37,-1
 1609 580 l 2,38,39
 1581 475 1581 475 1533.5 390.5 c 128,-1,40
 1486 306 1486 306 1414 229 c 1,41,42
 1346 158 1346 158 1258 103 c 128,-1,43
 1170 48 1170 48 1074 14 c 1,44,45
 997 -12 997 -12 911 -25.5 c 128,-1,46
 825 -39 825 -39 732 -39 c 0,47,48
 573 -39 573 -39 455.5 4.5 c 128,-1,49
 338 48 338 48 269.5 128 c 128,-1,50
 201 208 201 208 182.5 319.5 c 128,-1,51
 164 431 164 431 200 567 c 2,52,-1
 387 1262 l 2,53,54
 402 1320 402 1320 400.5 1354.5 c 128,-1,55
 399 1389 399 1389 379.5 1407 c 128,-1,56
 360 1425 360 1425 323 1431 c 128,-1,57
 286 1437 286 1437 229 1438 c 1,58,-1
 244 1494 l 1,59,-1
 865 1494 l 1,60,-1
 850 1438 l 1,61,-1
 825 1438 l 2,62,63
 776 1438 776 1438 739 1429.5 c 128,-1,64
 702 1421 702 1421 675.5 1401.5 c 128,-1,65
 649 1382 649 1382 630 1349.5 c 128,-1,66
 611 1317 611 1317 598 1268 c 2,67,-1
 421 606 l 2,68,69
 388 485 388 485 400 391 c 128,-1,70
 412 297 412 297 463.5 232 c 128,-1,71
 515 167 515 167 606 132.5 c 128,-1,72
 697 98 697 98 822 98 c 0,73,74
 1359 98 1359 98 1496 609 c 2,75,-1
 1645 1165 l 2,76,77
 1671 1264 1671 1264 1667 1326.5 c 128,-1,78
 1663 1389 1663 1389 1635 1411 c 1,79,80
 1614 1420 1614 1420 1575.5 1428 c 128,-1,81
 1537 1436 1537 1436 1486 1438 c 1,82,-1
 1501 1494 l 1,83,-1
 2072 1494 l 1,84,-1
 2057 1438 l 1,32,33
EndSplineSet
Substitution2: "<17001,16003> Urdu lookup 129 subtable" Udieresis
EndChar

StartChar: aacute
Encoding: 225 225 105
Width: 951
GlyphClass: 2
Flags: W
LayerCount: 2
Fore
SplineSet
910 1507 m 0,0,1
 902 1478 902 1478 847.5 1432 c 128,-1,2
 793 1386 793 1386 701 1333 c 0,3,4
 667 1314 667 1314 628 1292.5 c 128,-1,5
 589 1271 589 1271 548.5 1248.5 c 128,-1,6
 508 1226 508 1226 469.5 1204.5 c 128,-1,7
 431 1183 431 1183 397 1164 c 1,8,-1
 353 1164 l 1,9,-1
 664 1477 l 2,10,11
 716 1529 716 1529 764 1556 c 128,-1,12
 812 1583 812 1583 849 1583 c 0,13,14
 931 1583 931 1583 910 1507 c 0,0,1
494 437 m 1,15,16
 480 430 480 430 454.5 420 c 128,-1,17
 429 410 429 410 399 398.5 c 128,-1,18
 369 387 369 387 337 375 c 128,-1,19
 305 363 305 363 276.5 352.5 c 128,-1,20
 248 342 248 342 226.5 332.5 c 128,-1,21
 205 323 205 323 198 318 c 0,22,23
 162 294 162 294 135.5 265 c 128,-1,24
 109 236 109 236 99 201 c 1,25,26
 92 172 92 172 96.5 147.5 c 128,-1,27
 101 123 101 123 115.5 105 c 128,-1,28
 130 87 130 87 152 77 c 128,-1,29
 174 67 174 67 200 67 c 0,30,31
 210 67 210 67 232.5 75 c 128,-1,32
 255 83 255 83 286 98 c 128,-1,33
 317 113 317 113 352.5 131.5 c 128,-1,34
 388 150 388 150 422 169 c 1,35,-1
 494 437 l 1,15,16
766 106 m 1,36,37
 570 -30 570 -30 488 -30 c 0,38,39
 437 -30 437 -30 416.5 2.5 c 128,-1,40
 396 35 396 35 411 111 c 1,41,42
 200 -30 200 -30 102 -30 c 0,43,44
 51 -30 51 -30 13 -16.5 c 128,-1,45
 -25 -3 -25 -3 -46.5 23.5 c 128,-1,46
 -68 50 -68 50 -74.5 87 c 128,-1,47
 -81 124 -81 124 -68 172 c 0,48,49
 -52 235 -52 235 -3.5 284.5 c 128,-1,50
 45 334 45 334 116 363 c 0,51,52
 134 370 134 370 182 385 c 128,-1,53
 230 400 230 400 289.5 418.5 c 128,-1,54
 349 437 349 437 409 458 c 128,-1,55
 469 479 469 479 510 500 c 1,56,-1
 560 685 l 2,57,58
 576 745 576 745 571.5 786.5 c 128,-1,59
 567 828 567 828 549.5 853.5 c 128,-1,60
 532 879 532 879 504.5 890 c 128,-1,61
 477 901 477 901 449 901 c 0,62,63
 425 901 425 901 397.5 892 c 128,-1,64
 370 883 370 883 345.5 867 c 128,-1,65
 321 851 321 851 302 831 c 128,-1,66
 283 811 283 811 277 790 c 0,67,68
 274 778 274 778 278 744 c 1,69,-1
 85 658 l 1,70,71
 83 671 83 671 84.5 681 c 128,-1,72
 86 691 86 691 88 698 c 0,73,74
 94 721 94 721 119 752.5 c 128,-1,75
 144 784 144 784 180 817 c 128,-1,76
 216 850 216 850 260 880.5 c 128,-1,77
 304 911 304 911 346 934 c 1,78,79
 395 959 395 959 438 969.5 c 128,-1,80
 481 980 481 980 520 982 c 1,81,82
 681 982 681 982 740 855 c 0,83,84
 752 830 752 830 747.5 777.5 c 128,-1,85
 743 725 743 725 721 644 c 2,86,-1
 636 325 l 2,87,88
 615 248 615 248 605.5 202.5 c 128,-1,89
 596 157 596 157 596 134 c 128,-1,90
 596 111 596 111 605.5 104.5 c 128,-1,91
 615 98 615 98 631 98 c 0,92,93
 685 98 685 98 762 154 c 1,94,-1
 766 106 l 1,36,37
EndSplineSet
Substitution2: "<17001,16003> Urdu lookup 129 subtable" aacute
EndChar

StartChar: agrave
Encoding: 224 224 106
Width: 951
GlyphClass: 2
Flags: W
LayerCount: 2
Fore
SplineSet
815 1164 m 1,0,-1
 769 1164 l 1,1,-1
 562 1333 l 2,2,3
 491 1390 491 1390 464 1434.5 c 128,-1,4
 437 1479 437 1479 443 1507 c 1,5,6
 464 1583 464 1583 544 1583 c 0,7,8
 625 1583 625 1583 672 1477 c 1,9,-1
 815 1164 l 1,0,-1
494 437 m 1,10,11
 480 430 480 430 454.5 420 c 128,-1,12
 429 410 429 410 399 398.5 c 128,-1,13
 369 387 369 387 337 375 c 128,-1,14
 305 363 305 363 276.5 352.5 c 128,-1,15
 248 342 248 342 226.5 332.5 c 128,-1,16
 205 323 205 323 198 318 c 0,17,18
 162 294 162 294 135.5 265 c 128,-1,19
 109 236 109 236 99 201 c 1,20,21
 92 172 92 172 96.5 147.5 c 128,-1,22
 101 123 101 123 115.5 105 c 128,-1,23
 130 87 130 87 152 77 c 128,-1,24
 174 67 174 67 200 67 c 0,25,26
 210 67 210 67 232.5 75 c 128,-1,27
 255 83 255 83 286 98 c 128,-1,28
 317 113 317 113 352.5 131.5 c 128,-1,29
 388 150 388 150 422 169 c 1,30,-1
 494 437 l 1,10,11
766 106 m 1,31,32
 570 -30 570 -30 488 -30 c 0,33,34
 437 -30 437 -30 416.5 2.5 c 128,-1,35
 396 35 396 35 411 111 c 1,36,37
 200 -30 200 -30 102 -30 c 0,38,39
 51 -30 51 -30 13 -16.5 c 128,-1,40
 -25 -3 -25 -3 -46.5 23.5 c 128,-1,41
 -68 50 -68 50 -74.5 87 c 128,-1,42
 -81 124 -81 124 -68 172 c 0,43,44
 -51 236 -51 236 -3 285 c 128,-1,45
 45 334 45 334 116 363 c 0,46,47
 134 370 134 370 182 385 c 128,-1,48
 230 400 230 400 289.5 418.5 c 128,-1,49
 349 437 349 437 409 458 c 128,-1,50
 469 479 469 479 510 500 c 1,51,-1
 560 685 l 2,52,53
 576 745 576 745 571.5 786.5 c 128,-1,54
 567 828 567 828 549.5 853.5 c 128,-1,55
 532 879 532 879 504.5 890 c 128,-1,56
 477 901 477 901 449 901 c 0,57,58
 425 901 425 901 397.5 892 c 128,-1,59
 370 883 370 883 345.5 867 c 128,-1,60
 321 851 321 851 302 831 c 128,-1,61
 283 811 283 811 277 790 c 0,62,63
 274 778 274 778 278 744 c 1,64,-1
 85 658 l 1,65,66
 83 671 83 671 84.5 681 c 128,-1,67
 86 691 86 691 88 698 c 0,68,69
 94 721 94 721 119 752.5 c 128,-1,70
 144 784 144 784 180 817 c 128,-1,71
 216 850 216 850 260 880.5 c 128,-1,72
 304 911 304 911 346 934 c 1,73,74
 395 959 395 959 438 969.5 c 128,-1,75
 481 980 481 980 520 982 c 1,76,77
 681 982 681 982 740 855 c 0,78,79
 752 830 752 830 747.5 777.5 c 128,-1,80
 743 725 743 725 721 644 c 2,81,-1
 636 325 l 2,82,83
 615 248 615 248 605.5 202.5 c 128,-1,84
 596 157 596 157 596 134 c 128,-1,85
 596 111 596 111 605.5 104.5 c 128,-1,86
 615 98 615 98 631 98 c 0,87,88
 685 98 685 98 762 154 c 1,89,-1
 766 106 l 1,31,32
EndSplineSet
Substitution2: "<17001,16003> Urdu lookup 129 subtable" agrave
EndChar

StartChar: acircumflex
Encoding: 226 226 107
Width: 951
GlyphClass: 2
Flags: W
LayerCount: 2
Fore
SplineSet
494 437 m 1,0,1
 480 430 480 430 454.5 420 c 128,-1,2
 429 410 429 410 399 398.5 c 128,-1,3
 369 387 369 387 337 375 c 128,-1,4
 305 363 305 363 276.5 352.5 c 128,-1,5
 248 342 248 342 226.5 332.5 c 128,-1,6
 205 323 205 323 198 318 c 0,7,8
 162 294 162 294 135.5 265 c 128,-1,9
 109 236 109 236 99 201 c 1,10,11
 92 172 92 172 96.5 147.5 c 128,-1,12
 101 123 101 123 115.5 105 c 128,-1,13
 130 87 130 87 152 77 c 128,-1,14
 174 67 174 67 200 67 c 0,15,16
 210 67 210 67 232.5 75 c 128,-1,17
 255 83 255 83 286 98 c 128,-1,18
 317 113 317 113 352.5 131.5 c 128,-1,19
 388 150 388 150 422 169 c 1,20,-1
 494 437 l 1,0,1
831 1150 m 1,21,-1
 609 1453 l 1,22,23
 521 1378 521 1378 425 1300 c 128,-1,24
 329 1222 329 1222 240 1150 c 1,25,-1
 255 1209 l 1,26,-1
 630 1641 l 1,27,-1
 707 1641 l 1,28,-1
 846 1209 l 1,29,-1
 831 1150 l 1,21,-1
766 106 m 1,30,31
 570 -30 570 -30 488 -30 c 0,32,33
 437 -30 437 -30 416.5 2.5 c 128,-1,34
 396 35 396 35 411 111 c 1,35,36
 200 -30 200 -30 102 -30 c 0,37,38
 51 -30 51 -30 13 -16.5 c 128,-1,39
 -25 -3 -25 -3 -46.5 23.5 c 128,-1,40
 -68 50 -68 50 -74.5 87 c 128,-1,41
 -81 124 -81 124 -68 172 c 0,42,43
 -51 236 -51 236 -3 285 c 128,-1,44
 45 334 45 334 116 363 c 0,45,46
 134 370 134 370 182 385 c 128,-1,47
 230 400 230 400 289.5 418.5 c 128,-1,48
 349 437 349 437 409 458 c 128,-1,49
 469 479 469 479 510 500 c 1,50,-1
 560 685 l 2,51,52
 576 745 576 745 571.5 786.5 c 128,-1,53
 567 828 567 828 549.5 853.5 c 128,-1,54
 532 879 532 879 504.5 890 c 128,-1,55
 477 901 477 901 449 901 c 0,56,57
 425 901 425 901 397.5 892 c 128,-1,58
 370 883 370 883 345.5 867 c 128,-1,59
 321 851 321 851 302 831 c 128,-1,60
 283 811 283 811 277 790 c 0,61,62
 274 778 274 778 278 744 c 1,63,-1
 85 658 l 1,64,65
 83 671 83 671 84.5 681 c 128,-1,66
 86 691 86 691 88 698 c 0,67,68
 94 721 94 721 119 752.5 c 128,-1,69
 144 784 144 784 180 817 c 128,-1,70
 216 850 216 850 260 880.5 c 128,-1,71
 304 911 304 911 346 934 c 1,72,73
 395 959 395 959 438 969.5 c 128,-1,74
 481 980 481 980 520 982 c 1,75,76
 681 982 681 982 740 855 c 0,77,78
 752 830 752 830 747.5 777.5 c 128,-1,79
 743 725 743 725 721 644 c 2,80,-1
 636 325 l 2,81,82
 615 248 615 248 605.5 202.5 c 128,-1,83
 596 157 596 157 596 134 c 128,-1,84
 596 111 596 111 605.5 104.5 c 128,-1,85
 615 98 615 98 631 98 c 0,86,87
 685 98 685 98 762 154 c 1,88,-1
 766 106 l 1,30,31
EndSplineSet
Substitution2: "<17001,16003> Urdu lookup 129 subtable" acircumflex
EndChar

StartChar: adieresis
Encoding: 228 228 108
Width: 951
GlyphClass: 2
Flags: W
LayerCount: 2
Fore
SplineSet
512 1338 m 256,0,1
 499 1289 499 1289 459.5 1258 c 128,-1,2
 420 1227 420 1227 371 1227 c 256,3,4
 322 1227 322 1227 299 1258 c 128,-1,5
 276 1289 276 1289 289 1338 c 256,6,7
 302 1387 302 1387 342 1418 c 128,-1,8
 382 1449 382 1449 431 1449 c 256,9,10
 480 1449 480 1449 502.5 1418 c 128,-1,11
 525 1387 525 1387 512 1338 c 256,0,1
977 1338 m 256,12,13
 964 1289 964 1289 924.5 1258 c 128,-1,14
 885 1227 885 1227 836 1227 c 256,15,16
 787 1227 787 1227 765 1258 c 128,-1,17
 743 1289 743 1289 756 1338 c 0,18,19
 762 1362 762 1362 775 1382 c 128,-1,20
 788 1402 788 1402 807 1417 c 128,-1,21
 826 1432 826 1432 849 1440.5 c 128,-1,22
 872 1449 872 1449 896 1449 c 0,23,24
 945 1449 945 1449 967.5 1418 c 128,-1,25
 990 1387 990 1387 977 1338 c 256,12,13
494 437 m 1,26,27
 480 430 480 430 454.5 420 c 128,-1,28
 429 410 429 410 399 398.5 c 128,-1,29
 369 387 369 387 337 375 c 128,-1,30
 305 363 305 363 276.5 352.5 c 128,-1,31
 248 342 248 342 226.5 332.5 c 128,-1,32
 205 323 205 323 198 318 c 0,33,34
 162 294 162 294 135.5 265 c 128,-1,35
 109 236 109 236 99 201 c 1,36,37
 92 172 92 172 96.5 147.5 c 128,-1,38
 101 123 101 123 115.5 105 c 128,-1,39
 130 87 130 87 152 77 c 128,-1,40
 174 67 174 67 200 67 c 0,41,42
 210 67 210 67 232.5 75 c 128,-1,43
 255 83 255 83 286 98 c 128,-1,44
 317 113 317 113 352.5 131.5 c 128,-1,45
 388 150 388 150 422 169 c 1,46,-1
 494 437 l 1,26,27
766 106 m 1,47,48
 570 -30 570 -30 488 -30 c 0,49,50
 437 -30 437 -30 416.5 2.5 c 128,-1,51
 396 35 396 35 411 111 c 1,52,53
 200 -30 200 -30 102 -30 c 0,54,55
 51 -30 51 -30 13 -16.5 c 128,-1,56
 -25 -3 -25 -3 -46.5 23.5 c 128,-1,57
 -68 50 -68 50 -74.5 87 c 128,-1,58
 -81 124 -81 124 -68 172 c 0,59,60
 -52 235 -52 235 -3.5 284.5 c 128,-1,61
 45 334 45 334 116 363 c 0,62,63
 134 370 134 370 182 385 c 128,-1,64
 230 400 230 400 289.5 418.5 c 128,-1,65
 349 437 349 437 409 458 c 128,-1,66
 469 479 469 479 510 500 c 1,67,-1
 560 685 l 2,68,69
 576 745 576 745 571.5 786.5 c 128,-1,70
 567 828 567 828 549.5 853.5 c 128,-1,71
 532 879 532 879 504.5 890 c 128,-1,72
 477 901 477 901 449 901 c 0,73,74
 425 901 425 901 397.5 892 c 128,-1,75
 370 883 370 883 345.5 867 c 128,-1,76
 321 851 321 851 302 831 c 128,-1,77
 283 811 283 811 277 790 c 0,78,79
 274 778 274 778 278 744 c 1,80,-1
 85 658 l 1,81,82
 83 671 83 671 84.5 681 c 128,-1,83
 86 691 86 691 88 698 c 0,84,85
 94 721 94 721 119 752.5 c 128,-1,86
 144 784 144 784 180 817 c 128,-1,87
 216 850 216 850 260 880.5 c 128,-1,88
 304 911 304 911 346 934 c 1,89,90
 395 959 395 959 438 969.5 c 128,-1,91
 481 980 481 980 520 982 c 1,92,93
 681 982 681 982 740 855 c 0,94,95
 752 830 752 830 747.5 777.5 c 128,-1,96
 743 725 743 725 721 644 c 2,97,-1
 636 325 l 2,98,99
 615 248 615 248 605.5 202.5 c 128,-1,100
 596 157 596 157 596 134 c 128,-1,101
 596 111 596 111 605.5 104.5 c 128,-1,102
 615 98 615 98 631 98 c 0,103,104
 685 98 685 98 762 154 c 1,105,-1
 766 106 l 1,47,48
EndSplineSet
Substitution2: "<17001,16003> Urdu lookup 129 subtable" adieresis
EndChar

StartChar: atilde
Encoding: 227 227 109
Width: 951
GlyphClass: 2
Flags: W
LayerCount: 2
Fore
SplineSet
494 437 m 1,0,1
 480 430 480 430 454.5 420 c 128,-1,2
 429 410 429 410 399 398.5 c 128,-1,3
 369 387 369 387 337 375 c 128,-1,4
 305 363 305 363 276.5 352.5 c 128,-1,5
 248 342 248 342 226.5 332.5 c 128,-1,6
 205 323 205 323 198 318 c 0,7,8
 162 294 162 294 135.5 265 c 128,-1,9
 109 236 109 236 99 201 c 1,10,11
 92 172 92 172 96.5 147.5 c 128,-1,12
 101 123 101 123 115.5 105 c 128,-1,13
 130 87 130 87 152 77 c 128,-1,14
 174 67 174 67 200 67 c 0,15,16
 210 67 210 67 232.5 75 c 128,-1,17
 255 83 255 83 286 98 c 128,-1,18
 317 113 317 113 352.5 131.5 c 128,-1,19
 388 150 388 150 422 169 c 1,20,-1
 494 437 l 1,0,1
706 1412 m 0,21,22
 735 1398 735 1398 759 1390.5 c 128,-1,23
 783 1383 783 1383 812 1383 c 0,24,25
 864 1383 864 1383 898.5 1407 c 128,-1,26
 933 1431 933 1431 955 1486 c 1,27,-1
 1065 1486 l 1,28,29
 1035 1417 1035 1417 999.5 1369.5 c 128,-1,30
 964 1322 964 1322 925.5 1293.5 c 128,-1,31
 887 1265 887 1265 846.5 1252.5 c 128,-1,32
 806 1240 806 1240 765 1240 c 0,33,34
 746 1240 746 1240 724 1245 c 128,-1,35
 702 1250 702 1250 680.5 1257 c 128,-1,36
 659 1264 659 1264 638 1272 c 128,-1,37
 617 1280 617 1280 600 1287 c 0,38,39
 572 1298 572 1298 551 1305.5 c 128,-1,40
 530 1313 530 1313 512.5 1318.5 c 128,-1,41
 495 1324 495 1324 479 1327 c 128,-1,42
 463 1330 463 1330 445 1330 c 0,43,44
 365 1330 365 1330 314 1225 c 1,45,-1
 213 1225 l 1,46,47
 268 1351 268 1351 340.5 1409 c 128,-1,48
 413 1467 413 1467 512 1467 c 0,49,50
 549 1467 549 1467 594 1456.5 c 128,-1,51
 639 1446 639 1446 706 1412 c 0,21,22
766 106 m 1,52,53
 570 -30 570 -30 488 -30 c 0,54,55
 437 -30 437 -30 416.5 2.5 c 128,-1,56
 396 35 396 35 411 111 c 1,57,58
 200 -30 200 -30 102 -30 c 0,59,60
 51 -30 51 -30 13 -16.5 c 128,-1,61
 -25 -3 -25 -3 -46.5 23.5 c 128,-1,62
 -68 50 -68 50 -74.5 87 c 128,-1,63
 -81 124 -81 124 -68 172 c 0,64,65
 -51 236 -51 236 -3 285 c 128,-1,66
 45 334 45 334 116 363 c 0,67,68
 134 370 134 370 182 385 c 128,-1,69
 230 400 230 400 289.5 418.5 c 128,-1,70
 349 437 349 437 409 458 c 128,-1,71
 469 479 469 479 510 500 c 1,72,-1
 560 685 l 2,73,74
 576 745 576 745 571.5 786.5 c 128,-1,75
 567 828 567 828 549.5 853.5 c 128,-1,76
 532 879 532 879 504.5 890 c 128,-1,77
 477 901 477 901 449 901 c 0,78,79
 425 901 425 901 397.5 892 c 128,-1,80
 370 883 370 883 345.5 867 c 128,-1,81
 321 851 321 851 302 831 c 128,-1,82
 283 811 283 811 277 790 c 0,83,84
 274 778 274 778 278 744 c 1,85,-1
 85 658 l 1,86,87
 83 671 83 671 84.5 681 c 128,-1,88
 86 691 86 691 88 698 c 0,89,90
 94 721 94 721 119 752.5 c 128,-1,91
 144 784 144 784 180 817 c 128,-1,92
 216 850 216 850 260 880.5 c 128,-1,93
 304 911 304 911 346 934 c 1,94,95
 395 959 395 959 438 969.5 c 128,-1,96
 481 980 481 980 520 982 c 1,97,98
 681 982 681 982 740 855 c 0,99,100
 752 830 752 830 747.5 777.5 c 128,-1,101
 743 725 743 725 721 644 c 2,102,-1
 636 325 l 2,103,104
 615 248 615 248 605.5 202.5 c 128,-1,105
 596 157 596 157 596 134 c 128,-1,106
 596 111 596 111 605.5 104.5 c 128,-1,107
 615 98 615 98 631 98 c 0,108,109
 685 98 685 98 762 154 c 1,110,-1
 766 106 l 1,52,53
EndSplineSet
Substitution2: "<17001,16003> Urdu lookup 129 subtable" atilde
EndChar

StartChar: aring
Encoding: 229 229 110
Width: 951
GlyphClass: 2
Flags: W
LayerCount: 2
Fore
SplineSet
602 1228 m 0,0,1
 633 1228 633 1228 662 1239.5 c 128,-1,2
 691 1251 691 1251 717 1271.5 c 128,-1,3
 743 1292 743 1292 761.5 1318.5 c 128,-1,4
 780 1345 780 1345 788 1374 c 0,5,6
 795 1403 795 1403 791 1430 c 128,-1,7
 787 1457 787 1457 772 1477 c 128,-1,8
 757 1497 757 1497 734 1509 c 128,-1,9
 711 1521 711 1521 680 1521 c 0,10,11
 652 1521 652 1521 623 1509 c 128,-1,12
 594 1497 594 1497 569 1477 c 128,-1,13
 544 1457 544 1457 524 1430 c 128,-1,14
 504 1403 504 1403 497 1374 c 0,15,16
 489 1345 489 1345 494.5 1318.5 c 128,-1,17
 500 1292 500 1292 514 1271.5 c 128,-1,18
 528 1251 528 1251 551 1239.5 c 128,-1,19
 574 1228 574 1228 602 1228 c 0,0,1
494 437 m 1,20,21
 480 430 480 430 454.5 420 c 128,-1,22
 429 410 429 410 399 398.5 c 128,-1,23
 369 387 369 387 337 375 c 128,-1,24
 305 363 305 363 276.5 352.5 c 128,-1,25
 248 342 248 342 226.5 332.5 c 128,-1,26
 205 323 205 323 198 318 c 0,27,28
 162 294 162 294 135.5 265 c 128,-1,29
 109 236 109 236 99 201 c 1,30,31
 92 172 92 172 96.5 147.5 c 128,-1,32
 101 123 101 123 115.5 105 c 128,-1,33
 130 87 130 87 152 77 c 128,-1,34
 174 67 174 67 200 67 c 0,35,36
 210 67 210 67 232.5 75 c 128,-1,37
 255 83 255 83 286 98 c 128,-1,38
 317 113 317 113 352.5 131.5 c 128,-1,39
 388 150 388 150 422 169 c 1,40,-1
 494 437 l 1,20,21
703 1608 m 256,41,42
 751 1608 751 1608 789 1589 c 128,-1,43
 827 1570 827 1570 850 1538.5 c 128,-1,44
 873 1507 873 1507 881 1464.5 c 128,-1,45
 889 1422 889 1422 876 1374 c 256,46,47
 863 1326 863 1326 833 1283.5 c 128,-1,48
 803 1241 803 1241 763 1209 c 128,-1,49
 723 1177 723 1177 675 1159 c 128,-1,50
 627 1141 627 1141 578 1141 c 0,51,52
 530 1141 530 1141 493 1159 c 128,-1,53
 456 1177 456 1177 433 1209 c 128,-1,54
 410 1241 410 1241 403.5 1283.5 c 128,-1,55
 397 1326 397 1326 410 1374 c 256,56,57
 423 1422 423 1422 452.5 1465 c 128,-1,58
 482 1508 482 1508 521.5 1539.5 c 128,-1,59
 561 1571 561 1571 608 1589.5 c 128,-1,60
 655 1608 655 1608 703 1608 c 256,41,42
766 106 m 1,61,62
 570 -30 570 -30 488 -30 c 0,63,64
 437 -30 437 -30 416.5 2.5 c 128,-1,65
 396 35 396 35 411 111 c 1,66,67
 200 -30 200 -30 102 -30 c 0,68,69
 51 -30 51 -30 13 -16.5 c 128,-1,70
 -25 -3 -25 -3 -46.5 23.5 c 128,-1,71
 -68 50 -68 50 -74.5 87 c 128,-1,72
 -81 124 -81 124 -68 172 c 0,73,74
 -51 236 -51 236 -3 285 c 128,-1,75
 45 334 45 334 116 363 c 0,76,77
 134 370 134 370 182 385 c 128,-1,78
 230 400 230 400 289.5 418.5 c 128,-1,79
 349 437 349 437 409 458 c 128,-1,80
 469 479 469 479 510 500 c 1,81,-1
 560 685 l 2,82,83
 576 745 576 745 571.5 786.5 c 128,-1,84
 567 828 567 828 549.5 853.5 c 128,-1,85
 532 879 532 879 504.5 890 c 128,-1,86
 477 901 477 901 449 901 c 0,87,88
 425 901 425 901 397.5 892 c 128,-1,89
 370 883 370 883 345.5 867 c 128,-1,90
 321 851 321 851 302 831 c 128,-1,91
 283 811 283 811 277 790 c 0,92,93
 274 778 274 778 278 744 c 1,94,-1
 85 658 l 1,95,96
 83 671 83 671 84.5 681 c 128,-1,97
 86 691 86 691 88 698 c 0,98,99
 94 721 94 721 119 752.5 c 128,-1,100
 144 784 144 784 180 817 c 128,-1,101
 216 850 216 850 260 880.5 c 128,-1,102
 304 911 304 911 346 934 c 1,103,104
 395 959 395 959 438 969.5 c 128,-1,105
 481 980 481 980 520 982 c 1,106,107
 681 982 681 982 740 855 c 0,108,109
 752 830 752 830 747.5 777.5 c 128,-1,110
 743 725 743 725 721 644 c 2,111,-1
 636 325 l 2,112,113
 615 248 615 248 605.5 202.5 c 128,-1,114
 596 157 596 157 596 134 c 128,-1,115
 596 111 596 111 605.5 104.5 c 128,-1,116
 615 98 615 98 631 98 c 0,117,118
 685 98 685 98 762 154 c 1,119,-1
 766 106 l 1,61,62
EndSplineSet
Substitution2: "<17001,16003> Urdu lookup 129 subtable" aring
EndChar

StartChar: ccedilla
Encoding: 231 231 111
Width: 1024
GlyphClass: 2
Flags: W
LayerCount: 2
Fore
SplineSet
804 226 m 1,0,1
 702 113 702 113 576 47 c 128,-1,2
 450 -19 450 -19 323 -30 c 1,3,4
 302 -60 302 -60 289 -74 c 128,-1,5
 276 -88 276 -88 263 -104 c 1,6,-1
 276 -104 l 2,7,8
 310 -104 310 -104 335 -120 c 128,-1,9
 360 -136 360 -136 374.5 -162 c 128,-1,10
 389 -188 389 -188 391.5 -221.5 c 128,-1,11
 394 -255 394 -255 385 -288 c 0,12,13
 373 -333 373 -333 347 -371.5 c 128,-1,14
 321 -410 321 -410 285.5 -438 c 128,-1,15
 250 -466 250 -466 208 -482.5 c 128,-1,16
 166 -499 166 -499 123 -499 c 0,17,18
 97 -499 97 -499 72 -493.5 c 128,-1,19
 47 -488 47 -488 19 -476 c 1,20,-1
 51 -433 l 1,21,22
 78 -443 78 -443 114 -443 c 0,23,24
 138 -443 138 -443 162 -434 c 128,-1,25
 186 -425 186 -425 206.5 -410 c 128,-1,26
 227 -395 227 -395 243 -374.5 c 128,-1,27
 259 -354 259 -354 265 -330 c 0,28,29
 287 -248 287 -248 216 -248 c 0,30,31
 164 -248 164 -248 32 -307 c 1,32,-1
 274 -25 l 1,33,34
 196 -19 196 -19 138 16.5 c 128,-1,35
 80 52 80 52 47.5 112 c 128,-1,36
 15 172 15 172 8.5 254 c 128,-1,37
 2 336 2 336 26 436 c 1,38,39
 54 541 54 541 119 639.5 c 128,-1,40
 184 738 184 738 276.5 813.5 c 128,-1,41
 369 889 369 889 484 935.5 c 128,-1,42
 599 982 599 982 725 982 c 0,43,44
 779 982 779 982 826 973 c 128,-1,45
 873 964 873 964 905 946.5 c 128,-1,46
 937 929 937 929 952.5 902.5 c 128,-1,47
 968 876 968 876 959 841 c 0,48,49
 948 800 948 800 925 780.5 c 128,-1,50
 902 761 902 761 863 761 c 0,51,52
 810 761 810 761 753 833 c 1,53,54
 719 873 719 873 690 890.5 c 128,-1,55
 661 908 661 908 624 908 c 0,56,57
 568 908 568 908 505.5 877.5 c 128,-1,58
 443 847 443 847 385.5 791.5 c 128,-1,59
 328 736 328 736 280.5 658.5 c 128,-1,60
 233 581 233 581 208 488 c 0,61,62
 187 407 187 407 190 332.5 c 128,-1,63
 193 258 193 258 221.5 202 c 128,-1,64
 250 146 250 146 302.5 112.5 c 128,-1,65
 355 79 355 79 431 79 c 0,66,67
 513 79 513 79 597.5 122.5 c 128,-1,68
 682 166 682 166 769 256 c 1,69,-1
 804 226 l 1,0,1
EndSplineSet
Substitution2: "<17001,16003> Urdu lookup 129 subtable" ccedilla
EndChar

StartChar: eacute
Encoding: 233 233 112
Width: 1052
GlyphClass: 2
Flags: W
LayerCount: 2
Fore
SplineSet
952 1507 m 0,0,1
 943 1477 943 1477 889 1431.5 c 128,-1,2
 835 1386 835 1386 743 1333 c 0,3,4
 670 1292 670 1292 591.5 1248 c 128,-1,5
 513 1204 513 1204 440 1164 c 1,6,-1
 396 1164 l 1,7,-1
 708 1477 l 2,8,9
 760 1529 760 1529 807 1556 c 128,-1,10
 854 1583 854 1583 892 1583 c 0,11,12
 973 1583 973 1583 952 1507 c 0,0,1
745 677 m 1,13,14
 748 727 748 727 739 772 c 128,-1,15
 730 817 730 817 710 851.5 c 128,-1,16
 690 886 690 886 658.5 906 c 128,-1,17
 627 926 627 926 584 926 c 256,18,19
 541 926 541 926 498 908 c 128,-1,20
 455 890 455 890 415.5 857.5 c 128,-1,21
 376 825 376 825 339 779.5 c 128,-1,22
 302 734 302 734 270 677 c 1,23,-1
 745 677 l 1,13,14
937 605 m 1,24,-1
 242 605 l 1,25,26
 228 572 228 572 219.5 547.5 c 128,-1,27
 211 523 211 523 207 510 c 0,28,29
 187 434 187 434 193.5 362.5 c 128,-1,30
 200 291 200 291 232.5 235 c 128,-1,31
 265 179 265 179 322.5 144 c 128,-1,32
 380 109 380 109 457 104 c 1,33,34
 539 106 539 106 627 144 c 128,-1,35
 715 182 715 182 803 261 c 1,36,-1
 823 222 l 1,37,38
 559 -30 559 -30 323 -30 c 0,39,40
 240 -30 240 -30 174 3 c 128,-1,41
 108 36 108 36 68 100.5 c 128,-1,42
 28 165 28 165 18.5 256.5 c 128,-1,43
 9 348 9 348 38 464 c 1,44,45
 65 564 65 564 121 657.5 c 128,-1,46
 177 751 177 751 256 823 c 128,-1,47
 335 895 335 895 433.5 938.5 c 128,-1,48
 532 982 532 982 642 982 c 0,49,50
 747 982 747 982 809 954.5 c 128,-1,51
 871 927 871 927 895 869 c 1,52,53
 904 836 904 836 918 786.5 c 128,-1,54
 932 737 932 737 954 670 c 1,55,-1
 937 605 l 1,24,-1
EndSplineSet
Substitution2: "<17001,16003> Urdu lookup 129 subtable" eacute
EndChar

StartChar: egrave
Encoding: 232 232 113
Width: 1052
GlyphClass: 2
Flags: W
LayerCount: 2
Fore
SplineSet
865 1164 m 1,0,-1
 820 1164 l 1,1,-1
 613 1333 l 2,2,3
 542 1390 542 1390 515 1434.5 c 128,-1,4
 488 1479 488 1479 493 1507 c 1,5,6
 514 1583 514 1583 594 1583 c 0,7,8
 633 1583 633 1583 666 1556 c 128,-1,9
 699 1529 699 1529 723 1477 c 2,10,-1
 865 1164 l 1,0,-1
745 677 m 1,11,12
 748 727 748 727 739 772 c 128,-1,13
 730 817 730 817 710 851.5 c 128,-1,14
 690 886 690 886 658.5 906 c 128,-1,15
 627 926 627 926 584 926 c 256,16,17
 541 926 541 926 498 908 c 128,-1,18
 455 890 455 890 415.5 857.5 c 128,-1,19
 376 825 376 825 339 779.5 c 128,-1,20
 302 734 302 734 270 677 c 1,21,-1
 745 677 l 1,11,12
937 605 m 1,22,-1
 242 605 l 1,23,24
 228 572 228 572 219.5 547.5 c 128,-1,25
 211 523 211 523 207 510 c 0,26,27
 187 434 187 434 193.5 362.5 c 128,-1,28
 200 291 200 291 232.5 235 c 128,-1,29
 265 179 265 179 322.5 144 c 128,-1,30
 380 109 380 109 457 104 c 1,31,32
 539 106 539 106 627 144 c 128,-1,33
 715 182 715 182 803 261 c 1,34,-1
 823 222 l 1,35,36
 559 -30 559 -30 323 -30 c 0,37,38
 240 -30 240 -30 174 3 c 128,-1,39
 108 36 108 36 68 100.5 c 128,-1,40
 28 165 28 165 18.5 256.5 c 128,-1,41
 9 348 9 348 38 464 c 1,42,43
 65 564 65 564 121 657.5 c 128,-1,44
 177 751 177 751 256 823 c 128,-1,45
 335 895 335 895 433.5 938.5 c 128,-1,46
 532 982 532 982 642 982 c 0,47,48
 747 982 747 982 809 954.5 c 128,-1,49
 871 927 871 927 895 869 c 1,50,51
 904 836 904 836 918 786.5 c 128,-1,52
 932 737 932 737 954 670 c 1,53,-1
 937 605 l 1,22,-1
EndSplineSet
Substitution2: "<17001,16003> Urdu lookup 129 subtable" egrave
EndChar

StartChar: ecircumflex
Encoding: 234 234 114
Width: 1052
GlyphClass: 2
Flags: W
LayerCount: 2
Fore
SplineSet
745 677 m 1,0,1
 748 727 748 727 739 772 c 128,-1,2
 730 817 730 817 710 851.5 c 128,-1,3
 690 886 690 886 658.5 906 c 128,-1,4
 627 926 627 926 584 926 c 256,5,6
 541 926 541 926 498 908 c 128,-1,7
 455 890 455 890 415.5 857.5 c 128,-1,8
 376 825 376 825 339 779.5 c 128,-1,9
 302 734 302 734 270 677 c 1,10,-1
 745 677 l 1,0,1
966 1150 m 1,11,-1
 746 1453 l 1,12,13
 703 1417 703 1417 657.5 1378.5 c 128,-1,14
 612 1340 612 1340 563 1300.5 c 128,-1,15
 514 1261 514 1261 467 1222.5 c 128,-1,16
 420 1184 420 1184 376 1150 c 1,17,-1
 391 1209 l 1,18,-1
 764 1641 l 1,19,-1
 843 1641 l 1,20,-1
 981 1209 l 1,21,-1
 966 1150 l 1,11,-1
937 605 m 1,22,-1
 242 605 l 1,23,24
 228 572 228 572 219.5 547.5 c 128,-1,25
 211 523 211 523 207 510 c 0,26,27
 187 434 187 434 193.5 362.5 c 128,-1,28
 200 291 200 291 232.5 235 c 128,-1,29
 265 179 265 179 322.5 144 c 128,-1,30
 380 109 380 109 457 104 c 1,31,32
 539 106 539 106 627 144 c 128,-1,33
 715 182 715 182 803 261 c 1,34,-1
 823 222 l 1,35,36
 559 -30 559 -30 323 -30 c 0,37,38
 240 -30 240 -30 174 3 c 128,-1,39
 108 36 108 36 68 100.5 c 128,-1,40
 28 165 28 165 18.5 256.5 c 128,-1,41
 9 348 9 348 38 464 c 1,42,43
 65 564 65 564 121 657.5 c 128,-1,44
 177 751 177 751 256 823 c 128,-1,45
 335 895 335 895 433.5 938.5 c 128,-1,46
 532 982 532 982 642 982 c 0,47,48
 747 982 747 982 809 954.5 c 128,-1,49
 871 927 871 927 895 869 c 1,50,51
 904 836 904 836 918 786.5 c 128,-1,52
 932 737 932 737 954 670 c 1,53,-1
 937 605 l 1,22,-1
EndSplineSet
Substitution2: "<17001,16003> Urdu lookup 129 subtable" ecircumflex
EndChar

